/* XPM */
static char *grass[] = {
/* columns rows colors chars-per-pixel */
"76 76 134 2 ",
"   c #005601",
".  c #005D01",
"X  c #006201",
"o  c #0A6505",
"O  c #006B01",
"+  c #0D6D04",
"@  c #017101",
"#  c #0A7401",
"$  c #047A02",
"%  c #0D7B01",
"&  c #0B770E",
"*  c #0D7D0B",
"=  c #137402",
"-  c #147C00",
";  c #197D01",
":  c #0B7512",
">  c #0F7A10",
",  c #107911",
"<  c #11761D",
"1  c #0E8401",
"2  c #148401",
"3  c #1C8501",
"4  c #148B02",
"5  c #1C8C01",
"6  c #13810D",
"7  c #1E8F09",
"8  c #179100",
"9  c #1D9301",
"0  c #1E9901",
"q  c #1B9108",
"w  c #178212",
"e  c #1E8D12",
"r  c #218602",
"t  c #218D00",
"y  c #239502",
"u  c #2C9501",
"i  c #259C01",
"p  c #2A9D01",
"a  c #2F9E0C",
"s  c #319602",
"d  c #319D01",
"f  c #249310",
"g  c #2B9612",
"h  c #25A401",
"j  c #2CA401",
"k  c #25A900",
"l  c #2CAA01",
"z  c #31A600",
"x  c #39A303",
"c  c #33AB01",
"v  c #3AAC01",
"b  c #33A40C",
"n  c #38A60E",
"m  c #36AC09",
"M  c #39AE0B",
"N  c #2DB301",
"B  c #33B301",
"V  c #3CB501",
"C  c #35B901",
"Z  c #3CBB01",
"A  c #37A413",
"S  c #3AA514",
"D  c #3CA913",
"F  c #41AD01",
"G  c #43B601",
"H  c #48B500",
"J  c #42BC01",
"K  c #49BD01",
"L  c #45B60C",
"P  c #48B40E",
"I  c #46BE0C",
"U  c #45AF10",
"Y  c #49B412",
"T  c #4BB811",
"R  c #53BB18",
"E  c #3EC301",
"W  c #3DCA00",
"Q  c #44C301",
"!  c #4BC401",
"~  c #43CC01",
"^  c #4CCB01",
"/  c #47C10C",
"(  c #51C605",
")  c #51CB02",
"_  c #59CC05",
"`  c #53C50E",
"'  c #52CC0D",
"]  c #44D301",
"[  c #4BD301",
"{  c #47D900",
"}  c #4DDB02",
"|  c #54D402",
" . c #59D602",
".. c #54DB01",
"X. c #5ADD02",
"o. c #56D40C",
"O. c #5ADB0B",
"+. c #52C413",
"@. c #56CB12",
"#. c #5ACE17",
"$. c #55C118",
"%. c #57D410",
"&. c #5BD412",
"*. c #5CDA11",
"=. c #63D905",
"-. c #62D61D",
";. c #68DC1B",
":. c #53E301",
">. c #5BE301",
",. c #56E901",
"<. c #5DEB01",
"1. c #62E302",
"2. c #69E104",
"3. c #63EA02",
"4. c #6EEA04",
"5. c #72EC03",
"6. c #7AEE03",
"7. c #65F202",
"8. c #6CF501",
"9. c #66F800",
"0. c #6EFA01",
"q. c #73F500",
"w. c #7CF506",
"e. c #74FD01",
"r. c #7BFE01",
"t. c #66E016",
"y. c #68E318",
"u. c #56C620",
"i. c #77E32C",
"p. c #84FE01",
"a. c #8CFF01",
"s. c #92FF01",
"d. c #99FF03",
"f. c #A2FF02",
/* pixels */
"@ @ @ @ @ O 5 l l l l i c ( Q K K ! K z l j z j z l j j j j l l c v c c c B V V V V V V v p z d z y K r.0.8.q.e.8.^ Q ^ ^ ! ^ Z j c c c B l d z d d d d ",
"O @ O @ @ X 9 c j j h i c ! Q Q K ! K z j l l l l j j j j j j j B c B c v c V G V V V Z v p j z j y K e.8.8.8.q.8.^ Q ! ^ ~ ^ V l c c c B z s j p d d j ",
"@ @ @ @ @ O 5 B h j h h c ! K ! Q ! Q z j l l z j l j l j j l z v V v c c c V V V V V V v p z d z i I e.0.q.0.q.8.^ ~ ~ ! ^ ^ Z l c c c c z p d d d d p ",
"@ O @ @ O O 9 c l j l i c ( K K K ! K z j z z j z z j j j l j l c c c c c c V V V V V J z a z z z y I e.8.0.8.0.8.^ Q ^ ~ ^ ^ Z l c c l B z d d p z d d ",
"@ @ O @ @ O q c j l h h v ! K Q ! ! K z l j j j l j j l j j j j c v z v c c V V V V V V x p z z d y K e.0.q.q.e.q.^ Q Q ^ Q ^ Z l v z c B c d d d d d d ",
"O O O O O X 4 j i i i 0 z ) K ! K Q K j i j j j l j z j z l j l j j j j j j V J V G V J z p p p j t I p.r.e.e.r.e.^ ~ ^ ^ ^ ) Z l c c B B z s d d d d d ",
"1 1 1 1 1 $ l [ Q E Q Q Q G G J Z J J J J Z J J J j i i i i y M =.X.O.X.X.X.V B B B B B V V V V V v Z Q Q Q / Q Q Q Q Q Q Q Q V d z z z j z j j j j j p ",
"9 9 9 0 9 4 Q 3.X.>.>.3.[ c B V V c V ^ ) ) ) ^  .v 5 9 y y 2 Z a.r.r.p.p.r.C l N B N N Z ! Q Q J ^ V q 0 0 0 0 y Z E Z V Z E c p j z p z j j l l l j l ",
"8 8 8 8 8 1 E ,...| ....^ B V V V B Z ! ^ ^ ! ^ | z 5 i y y 4 V p.e.q.e.r.q.C N N B B c Z J J Z Z Q V h l j l h l Z Z Z E E E v p z z z z p j j l j j l ",
"8 8 8 8 8 1 Z t.} ......^ B V V V V V ! ^ ! ^ ! ^ z 9 y y y 4 V r.e.q.e.r.q.C l B B B B Z J J Q J Q V j j h j j l Z E E Z Z E c p z z d z z j j j j j j ",
"8 8 8 8 8 1 Z >.| | ....^ B V C V B V ! ! ! ^ ^ ) v 9 y y i 2 V r.e.e.w.r.8.C l B B c N Z Q J Z Q Q V h h j l i l Z / Z Z E E v s z z z d z j j j j j j ",
"8 8 0 0 8 4 Z >.| } | ..[ Z J E Q Z Q ^ | ^ ^ ) ..c 5 y y y 2 Z a.p.p.p.p.e.E N B C C B Z ! Q Q ~ ! V i i h h h i V Z Z Z C Z c p z p j j p p h h j i h ",
"4 1 4 1 1 % Z 3.......<.^ p j b b p z L K G G G K z y i p i 5 v 2.X.1.X.1.O.z j l z j j c V B V B V B z z c c c v Q ~ ~ Q ~ ^ B j z z c z z V c c c B v ",
"@ O O O O   C 0.<.<.<.9.Q o # = = = = u u u s u u a j j j z z j y i y y y y r 5 r 5 5 3 9 i i i y 9 z Q J J J J J ..X.......>./ j c c c l V ) ) ) ) ) ^ ",
"@ @ @ @ O X Z 9.<.>.<.9.! + - ; ; = ; s d d s d s d j j j p z j j j j j z j t t t t y t i j i h h i z K J G J V J | ..| ......Q j c c c l V ) ! ! ! ! ! ",
"@ @ @ O @ X C 0.>.<.>.9.~ + = ; ; ; ; s d d d s s z j j z j p j j j j d j j t t t t t 5 y j i i i y j J G Z G L J } ..} | | >.Z j B l c j V ) ! ! ! ! ! ",
"O @ O @ O . V 0.>.<.>.9.~ # ; ; - - ; s d d d s s z j j j j j j j d j j j j t t t t t t y j h i i y l K J G J V J | ....| ....J j c c c l V ! ! ! ! ^ ! ",
"O O O O O   Z 0.<.<.<.0./ + = ; ; = ; s s s s s u d j z j z z j j j j j z j t t y t t 5 y j i i h y j Z v V V v V ..........:.Q j c B c l B ) ! ! ! ( ! ",
"@ @ @ & @ X C 9.>.>.>.7.Q + ; ; ; - ; a d a d d d a j j j j j j j j p j j j t t t t t t i p p p p y l I J J J G K ........| ..I j z z m l V ! ! ! ! ! ! ",
"V V V V V V l b z j j d j j j k j h j Q ( Q ! ! ) j 3 5 t 5 5 y l j l j l l t 5 5 t t 5 p j j p j y I a.p.p.p.p.w./ Z K J Q Q v u p p p u m Q Z E Z E Z ",
"J J J J I Q x y u y p u p l k l l h c ! ) ^ ( ^ | z 2 5 5 5 4 y l l l j l h t t t t t 5 p z j j j y ! d.a.a.a.s.a.K G J J J Q m u p p p u j ~ Z Z Z E Z ",
"J V G J V J z p z p p p j l l j l l l Q ( ! ! ! ) z 2 5 5 5 5 y l l h l l l t t t y t t p z j j j 9 I s.p.p.p.a.p.Q Z J K J Q v u p p s u v Z Z Z E J Z ",
"G V G V J G z p p p p p j l l l l h l ! ( ! ! ! | j 2 5 5 5 5 q l j l j l l t t t t t 5 p j z j j 9 K s.a.a.p.a.p.I G J J J Q x u p p a u z E Z Z Z E E ",
"V G V V V G z p d p p p j h h l l l l Q ^ ! ! ^ ) z 2 t 5 9 5 y k l l h l j t 5 t t t t u z j j j y Q d.p.p.p.s.p.I J J Q J Q m u p p p u z E E E Z Z Z ",
"c c c c v c j y u u y y i l l l j l l Q ! ^ ! ^ ) j % 2 4 2 2 9 h h h h h h 5 t t 5 t 5 p z z p j 9 ( f.d.d.d.d.a.L M V V L Z x p d p p s v Z Z Z Z Z V ",
"2.2.2.2.2.4.) V J Z J K V p h a i i h J Q Q Q J ! V l c c c z B Z Z V V Z V y y y u y y j j j j j p m ( / ! ! Q ! O.>.>.>.>.3.M 1 0 y y 4 j [ ~ ~ ~ ~ ~ ",
"a.s.s.s.s.d.4.[  .| | >.Q y u i p y p V Z C C Z C Q ! ! Q ^ Q Q ! ! ^ ^ ^ ! j p j h p h j j j j j z p 4 9 5 8 4 0 0.e.e.e.e.p.Z $ 4 4 4 1 k ..{ [ { [ [ ",
"p.p.p.p.p.a.1.Q [ [ ) ..J y p p p i a Z E Z E C Z Z Z Q Z Q J Q Q Q Q Q Q Q p p i p p i p j z j j j j j i h i i j 7.e.9.8.0.e.C 1 8 8 8 1 h } ] [ ] ] [ ",
"p.p.p.p.p.s.2.~ ) | | | Q y p p p y p Z Z Z Z Z V E J J E J J Q Q Q Q Q ~ Q p i i p p b p j j j j d j p h p i y b 7.0.8.8.9.r.Z 1 8 8 8 1 j } [ [ ] [ [ ",
"p.p.p.p.p.a.1.Q ^ ^ ^ | Q y y p p p h Z E Z Z C Z Z J Q Q J Z J Q Q Q Q ! Q p p p p p i p z j z j j j p p h j i l 7.0.8.8.9.e.M $ 8 8 8 1 h } { ] [ [ ~ ",
"s.a.s.a.s.s.4.[  . .| 1.Q y p p p p p V C Z Z E Z Z J J Z J J Q ^ ^ ^ ^ [ Q y 9 t y y q p z j p j j i 9 q 8 q 4 q 0.r.e.0.e.p.Z $ 8 8 4 1 k } [ { { [ { ",
"5.4.4.5.5.6.) V Q J J ! V y p p p y p V Z Z Z Z Z J J J J J J J V V V V Z V v V V B V V z j l z j h v K J I E L / >.>.>.>.,.3.M 2 9 0 q 4 l | ~ ^ ^ ~ ^ ",
"V V C V V J j 5 y y y y i p i p i i i G J J G G G V v G V G J v y y y i y p >.3.>.1.>.3.~ l B B N h ^ d.p.a.a.s.a.V z v V v V z p p h p i c ) Q ! ! ! ( ",
"E Q J Q Q Q m y u p p p p i h i i i h J J G J Z J V G V V V G c i p p p y j ..>.:.X.>.>.~ j c N B h ^ a.p.p.p.p.w.J V V V V J z i a a p y v ^ ! ! ! ! ! ",
"Q J Q J Q Q v y i p p i p i i h p i j V G J J G J V V G G V G v i p h i i j ..>.>.....>.Z l c B B h ^ a.r.p.p.p.r.J V V G V J z i h p p i c ^ ! ! ! ! ! ",
"Q Q J Q Q Q m y p p p p p i p i h i i V J G G J Z G G V V G J c i p a p y p ..>.....>.y./ l N c N h / a.p.p.p.p.w.K V V V J J z y p i p y c ) ! ! ! ! ! ",
"Z Q J Q J Q v y i p i p u 9 i 9 y 9 i Z G J J V G V V V V V G v i i i i y p ..<.:.:.;.i.u.l B B B k ^ s.p.p.p.a.p.J z v V v V j y y p i 9 v ) ! ! ( ! ^ ",
"Q J Q J Q Q z i p p p p p j j h j i j G J J G Z T L V G Z G G M p p a j p j | X.O.o.O.;.I l N l l h / a.r.p.r.p.w.J V G J J J v i j p j i c ^ ! ! ! ! ! ",
"! ^ ! ^ ^ ) v y p p p 5 L e.q.q.q.q.8.! Q ^ ! +.$.@.%.o.%.&.O.@.U V P Y Y V c D S U m m 7 , w 6 * , g ) ! ! ! Q ! w.p.p.p.p.p.1.{ } } } ..[ J J J Z J J ",
"^ ! ^ ! ^ ) c y p p p 5 K p.e.p.r.r.r.^ Q ^ ) @.` #.O.O.-.*.O.@.U R T Y R L A a a S b D e : > > , < f Q K G G G Q p.a.a.a.p.s.8.} :.:.:.:.} Z Z J Q J E ",
"! ! ! ^ ! | c y p p p t L r.e.q.q.r.q.^ ! ~ ^ +.+.o.O.} &.&.O.@.Y Y L L T Y D h z S b M e & 6 * * : f ` K Q Q G ! p.a.p.p.p.s.3.{ } :.:.:.{ J J Q J J Z ",
"! ^ ^ ! ! ^ v y p p p 5 I r.q.q.q.e.q.^ ! ^ ^ ^ Q | ..| | ..:.^ V V V Z V G l j j j l z 4 @ $ $ $ @ q ! ! K ! K ! w.p.p.p.p.s.3.{ :.} } :.[ Z J Z Z Q Q ",
"^ ^ ! ! ! ) V y p p p t J r.e.e.q.e.q.^ Q ^ ~ ! ~ [ ......| ..[ v V J V V V l j l j l z 4 @ $ $ $ O q ^ K K Q J Q p.a.p.p.p.a.3.{ :.:.:.:.] Z J J Q J J ",
"^ ! ^ ^ ^ | z 5 y y y 2 L p.p.r.p.p.r.^ Q ^ ^ ^ ! ..>.X.>.>.<.[ v G V G G V j l j j j c 4 O @ $ @ O 9 _ ( ! ! J ) a.d.s.s.s.d.e.,.<.,.<.7.:.J Q J Q Q Q ",
"Q Q Q Q Q Q J G J J J J !  . . . . . .! Q ! ! ! ! Z B B B B c V Q E Z Z W Z k h l h k k 0 4 4 4 4 2 y V V v V c V ( ( ( ( ( _ B q h h f i k V v B v v c ",
"J Z J J Z Z ) X. ...| X.) v V G G V G K K J J Q ! j 4 5 5 8 2 h ] W W W W W k h k h h k h i i h h h j j j j p j p y i i i y p * X O O O X % z j j z z j ",
"J Q J Z J J ^ | | ^ ^ | ) K K K K K K Q ! K Q K ) z 0 0 i 0 9 l W W W W ~ E h h h h k k i y i 0 i i i l z z z z z z z z z z v 4 @ & $ $ @ 4 v z z z z z ",
"Z J Q Z J Z Q | ) [ ) [ ( K K K K K K K K Q K ! ! z 8 i 0 i 9 l W W W W W W k h k k h k i 0 0 i 0 9 h z z l z l z z z z z z v 4 @ $ $ $ @ 4 c z z z z z ",
"Q J J Z J Z ^ | ) [ | [ ! K K K K K K K Q K Q K ( z 0 0 0 i 9 k W W W W W W k h h k h k i i i i 0 i i l z z z z z z z z z z v 4 $ $ $ $ $ 6 c z z z z z ",
"J Q J Q Q Z ^ | | | | | ) H H K K G G ! ( ( ! ^ ) v 8 9 i 0 5 l { W ~ ~ W W N k k N k N h 9 9 0 0 9 h c c z B c z i i y y i p 1 O @ @ @ O 1 c v v z z z ",
"Z Z Z Z V V ~ ~ ! ~ Q ~ ! ^ ! ^ ^ ^ ! J V V Z V Q z 0 h i i i j Z Z C C C C i 0 0 0 0 0 0 i i i i i i p p p p p j I / ! / Q ( p % 4 4 4 1 9 z j j z j j ",
"N N N N N N N N N B B l E :.:.:.:.,.} k i h h h h j z z z l c j y i i p p i # # % $ # + q B j j j z p 3 r ; 3 = t a.d.s.d.d.d.o.p v c c M z i i i i i i ",
"N N C N N N C C N C B N E :.} :.} :.} l i h j l h l z j z l z j h p j p j p - # % % - # y m j l j l p ; r r r ; t w.s.p.p.p.s._ y z z z v z i i p h p i ",
"N N N N N N N C C B C N E :.:.} } :.} l h l h h h l z z j z z j j a p j j p 2 % - % % # y c j j j c p 3 r r r ; t p.a.p.p.p.s.( i z z v z z i h i i i h ",
"N N N N C N N C C C B N E :.} } :.:.} l i l l j h j z j z z z j p j j p j p - % % - % % y c j j l l p r r r r ; t p.s.p.p.p.s.( y z z z z z i i p h i i ",
"N N N N N N N C C N B N W ,.:.,.:.,...h i h h h h j j j j j j j p i p p j i % % % % % # y j i h i l y ; r r r ; r a.s.a.a.p.d._ y z z j z j i i i i i i ",
"B B N B B B C C C B B B E :.} } } ..} l k l l l l c c c j c c j j j j j z p - * % % - % y B b l l N a 3 r r t 3 t p.a.p.w.p.a.( p z v z c z i p p i p p ",
"} } ....o...~ Z E E Z ~ B y i y i 9 i o.:.O.....O.| [ | | | ..^ K J J Q Q K 5 2 5 2 4 % / e.8.9.9.q.O.u j z z j b d x x d x d K  .| | )  .^ c V V V V V ",
"...... ...:.^ Z J Q Q ^ B 5 q y y 5 y X.3.>.>.>.>.:.........>.| Q Q Q ^ ^ Q 9 3 5 5 5 # | p.e.e.e.p.>.p z v z c z u u s s s t K =. . . .X.) V V V V G Z ",
"......| ....! Z Q Z E Q V t i y y 9 i O.<.X.>.>.>.X.| ...... .[ Q Q Q Q Q J 9 2 5 5 3 * [ r.0.0.0.e.O.p z j z z x d d d d d s K X.| _ |  .( V V V V V V ",
"| ..| ......^ Z Q Q Q Q B t y y y 9 i X.<...>...>.....| | .. .| J Q Q Q ^ J 9 2 5 3 4 % ^ r.0.0.q.e.>.a z z z z v d d d d x s K X._ | |  .^ B V V V V V ",
"..| | ....O.~ J Z Z Q Q V 5 y i y 5 i X.>.X.>.>.X.............| Q Q Q Q Q Q 5 3 5 4 5 # [ r.0.0.0.r.X.y z z z z z d d x d d s K X. . ._  .! V V V V V V ",
">.:.>.:.:.>.^ V Z Z J Q c 2 2 4 4 2 e >.8.<.<.3.3.<.>.>.>.,.3...Z J J Q Q J 9 5 5 5 5 % O.a.r.r.r.a.3.y p j z j j d d d d d u ! 1.O. .X.2.^ b c c c j c ",
"M V V V V V Q | [ [ [ [ [ o. .o.| o.o.Z V V V Z Z l b j j b i V  .| | | ..^ 2 % 2 2 - 1 f M m l m b m V V v v V v x x z x z x v Z V G V B Q 2.2.=.2.2.=.",
"y y y y u 5 Q 7.>.>.>...8.p.p.p.p.a.p.i 4 y 9 y i 2 O # = #   y 8.1.>.>.3.X.% # % % % - O X X X X   - / J J J J G v v v v v F z i i i h 4 / d.s.d.s.s.s.",
"j j j p p y ~ <...X.....3.r.r.e.e.r.q.l i i j i l 5 - 2 ; 2 # a 3.X.X.X.3. .- # % % % 1 % $ # % # O 5 I J V V G F v v v v v v x h l l h 0 / a.p.p.p.p.p.",
"h p j j j y Q >.X.......>.r.e.e.e.r.0.b 9 j j i h 5 - ; 2 ; # p 3.X.X.X.>...; # 2 % % - % # $ % % O 7 Q G J V J V v v v v v F z k l j l 0 Q s.p.p.p.p.p.",
"a j p p j y Q <...>.....3.r.r.e.r.r.8.l i j i j j 5 - 2 2 2 + a 3.>.X.X.3...2 # % % % - % # & # $ O 4 K V V V G G v v v x v x z k j k j 0 Q s.p.p.p.p.p.",
"p j p p p y Q 7.>.>.>...7.a.p.p.p.a.r.j 0 p j i l 2 X + O +   y 8.>.1.>.3. .# O # # # # @ O @ @ + X 4 ! J J J Q J d p d d d d j h h h h 8 Q d.a.a.a.a.a.",
"j j j j j p I ..| [ [ ^ o.X.O.X.O.O.X.j i j p j i x m x x v a L | | | [ ..| y 5 5 5 t t 5 6 4 1 1 * y m c v m z v / ! / ! Q ` V l B c c h / w.5.5.4.5.5.",
"z z v z v z v V v v V G j 2 3 2 4 2 4 a a z p p 5 2.f.s.s.s.f.w.B Z Z V Z J J J K K Q Q B k k l k N h 3 5 3 3 3 t e.r.e.e.e.r. .F K K H H K Q J J Q Q Q ",
"v z z z j j v V G V G G m 5 y y y y y d p p p d t =.d.p.p.p.s.4.C Z J Q J J G V Z G Z G B h k k k N i t t t t 3 y 8.e.0.e.q.e.| F G G G H K ^ ! ^ ! Q ! ",
"z z z z z z v V G G V G v 9 y y y y y j d j j p y =.s.p.p.p.s.5.C J Q Q Z J Z G V G V G l h k h h k h 5 t t t 3 y 8.e.0.0.0.e.| F G G H H G ^ ^ ! ! ^ ! ",
"z z z z z z V G V V G G c t y y y y y p j d p d f =.s.p.p.p.a.5.V J Z J Z Q G V G Z G J c h h k k k i 5 t t t 3 y 8.e.0.0.q.e.| F G K G H K ^ ! ! ^ ^ ! ",
"z l c z z z v G G V G J z q y y y y y p p d p p 5 =.d.p.p.p.s.4.C Z J Q Q J V V V Z J G N h h k k k h 5 t t t 3 y 8.e.0.0.8.e.| F G G G H K ^ ! ^ ! ! ^ ",
"z v z z z j V J V G V G v y y y y y y j d j d p t =.s.p.p.p.a.4.V J Z J Z Q Z G V G V J l h h h k k i 5 5 y t 3 y 8.e.0.0.0.e._ F H G H G G ^ ^ ! ! ^ ! "
};
