/* XPM */
static char *hole[] = {
/* columns rows colors chars-per-pixel */
"50 50 122 2 ",
"   c black",
".  c #010101",
"X  c gray1",
"o  c #040404",
"O  c gray2",
"+  c #060606",
"@  c #070707",
"#  c gray3",
"$  c #090909",
"%  c gray4",
"&  c #0B0B0B",
"*  c gray5",
"=  c #0E0E0E",
"-  c gray6",
";  c #101010",
":  c gray7",
">  c #131313",
",  c gray8",
"<  c #151515",
"1  c #161616",
"2  c gray9",
"3  c #181818",
"4  c #191919",
"5  c gray10",
"6  c #1B1B1B",
"7  c gray11",
"8  c #1D1D1D",
"9  c #1E1E1E",
"0  c gray12",
"q  c #202020",
"w  c gray13",
"e  c #222222",
"r  c #232323",
"t  c gray14",
"y  c #252525",
"u  c gray15",
"i  c #272727",
"p  c #282828",
"a  c gray16",
"s  c #2A2A2A",
"d  c gray17",
"f  c #2C2C2C",
"g  c #2D2D2D",
"h  c gray18",
"j  c #2F2F2F",
"k  c gray19",
"l  c #313131",
"z  c #323232",
"x  c gray20",
"c  c #343434",
"v  c #353535",
"b  c gray21",
"n  c #373737",
"m  c gray22",
"M  c #393939",
"N  c #3A3A3A",
"B  c gray23",
"V  c #3C3C3C",
"C  c gray24",
"Z  c #3E3E3E",
"A  c #3F3F3F",
"S  c gray26",
"D  c #434343",
"F  c gray28",
"G  c #4E4E4E",
"H  c gray31",
"J  c gray32",
"K  c #555555",
"L  c gray40",
"P  c DimGray",
"I  c gray44",
"U  c #717171",
"Y  c #727272",
"T  c #747474",
"R  c #777777",
"E  c gray47",
"W  c #7C7C7C",
"Q  c #7E7E7E",
"!  c gray50",
"~  c #818181",
"^  c #848484",
"/  c #868686",
"(  c gray53",
")  c #898989",
"_  c #909090",
"`  c gray57",
"'  c #929292",
"]  c #989898",
"[  c #9A9A9A",
"{  c gray61",
"}  c gray62",
"|  c #9F9F9F",
" . c gray64",
".. c gray65",
"X. c #A9A9A9",
"o. c #AAAAAA",
"O. c #AEAEAE",
"+. c #AFAFAF",
"@. c gray69",
"#. c #B1B1B1",
"$. c #B2B2B2",
"%. c gray70",
"&. c #B4B4B4",
"*. c gray71",
"=. c gray72",
"-. c #B9B9B9",
";. c gray73",
":. c #BBBBBB",
">. c #BCBCBC",
",. c gray74",
"<. c gray",
"1. c gray75",
"2. c #C0C0C0",
"3. c #C1C1C1",
"4. c gray76",
"5. c #C3C3C3",
"6. c gray77",
"7. c #C5C5C5",
"8. c #C6C6C6",
"9. c gray78",
"0. c #C8C8C8",
"q. c None",
/* pixels */
"q.q.q.q.q.q.q.q.q.q.q.q.q.q.q.q.q.q.q.q.q.q.q.q.q.q.q.q.q.q.q.q.q.q.q.q.q.q.q.q.q.q.q.q.q.q.q.q.q.q.",
"q.q.q.q.q.q.q.q.q.q.q.q.q.q.q.q.q.q.q.q.q.q.q.q.q.q.q.q.q.q.q.q.q.q.q.q.q.q.q.q.q.q.q.q.q.q.q.q.q.q.",
"q.q.q.q.q.q.q.q.q.q.q.q.q.q.q.q.q.q.q.q.q.q.q.q.q.q.q.q.q.q.q.q.q.q.q.q.q.q.q.q.q.q.q.q.q.q.q.q.q.q.",
"q.q.q.q.q.q.q.q.q.q.q.q.q.q.q.q.q.q.q.q.q.q.q.q.q.q.q.q.q.q.q.q.q.q.q.q.q.q.q.q.q.q.q.q.q.q.q.q.q.q.",
"q.q.q.q.q.q.q.q.q.q.q.q.q.q.q.q.q.q.q.q.q.q.q.q.q.q.q.q.q.q.q.q.q.q.q.q.q.q.q.q.q.q.q.q.q.q.q.q.q.q.",
"q.q.q.q.q.q.q.q.q.q.q.q.q.q.q.q.q.q.q.q.q.q.q.q.q.q.q.q.q.q.q.q.q.q.q.q.q.q.q.q.q.q.q.q.q.q.q.q.q.q.",
"q.q.q.q.q.q.q.q.q.q.q.q.q.q.q.q.q.q.q.q.q.q.q.q.q.q.q.q.q.q.q.q.q.q.q.q.q.q.q.q.q.q.q.q.q.q.q.q.q.q.",
"q.q.q.q.q.q.q.q.q.q.q.q.q.q.q.q.q.q.q.q.q.q.q.q.q.q.q.q.q.q.q.q.q.q.q.q.q.q.q.q.q.q.q.q.q.q.q.q.q.q.",
"q.q.q.q.q.q.q.q.q.q.q.q.q.q.q.q.q.q.q.q.q.q.q.q.q.q.q.q.q.q.q.q.q.q.q.q.q.q.q.q.q.q.q.q.q.q.q.q.q.q.",
"q.q.q.q.q.q.q.q.q.q.q.q.q.q.q.q.q.q.q.q.q.q.q.q.q.q.q.q.q.q.q.q.q.q.q.q.q.q.q.q.q.q.q.q.q.q.q.q.q.q.",
"q.q.q.q.q.q.q.q.q.q.q.q.q.q.q.q.q.q.q.q.q.q.q.q.q.q.q.q.q.q.q.q.q.q.q.q.q.q.q.q.q.q.q.q.q.q.q.q.q.q.",
"q.q.q.q.q.q.q.q.q.q.q.q.q.q.q.q.q.q.q.q.q.q.q.q.q.q.q.q.q.q.q.q.q.q.q.q.q.q.q.q.q.q.q.q.q.q.q.q.q.q.",
"q.q.q.q.q.q.q.q.q.q.q.q.q.q.q.q.q.q.q.q.q.q.q.q.q.q.q.q.q.q.q.q.q.q.q.q.q.q.q.q.q.q.q.q.q.q.q.q.q.q.",
"q.q.q.q.q.q.q.q.q.q.q.q.q.q.q.q.q.q.q.q.q.q.q.q.q.q.q.q.q.q.q.q.q.q.q.q.q.q.q.q.q.q.q.q.q.q.q.q.q.q.",
"q.q.q.q.q.q.q.q.q.q.q.q.q.q.q.q.q.q.q.q.q.q.q.q.q.q.q.q.q.q.q.q.q.q.q.q.q.q.q.q.q.q.q.q.q.q.q.q.q.q.",
"q.q.q.q.q.q.q.q.q.q.q.q.q.q.q.q.q.q.q.q.q.q.q.q.q.q.q.q.q.q.q.q.q.q.q.q.q.q.q.q.q.q.q.q.q.q.q.q.q.q.",
"q.q.q.q.q.q.q.q.q.q.q.q.q.q.q.q.q.q.q.q.q.q.q.q.q.q.q.q.q.q.q.q.q.q.q.q.q.q.q.q.q.q.q.q.q.q.q.q.q.q.",
"q.q.q.q.q.q.q.q.q.q.q.q.q.q.q.q.q.q.q.q.q.q.q.q.q.q.q.q.q.q.q.q.q.q.q.q.q.q.q.q.q.q.q.q.q.q.q.q.q.q.",
"q.q.q.q.q.q.q.q.q.q.q.q.q.q.q.q.q.q.q.q.q.q.q.q.q.q.q.q.q.q.q.q.q.q.q.q.q.q.q.q.q.q.q.q.q.q.q.q.q.q.",
"q.q.q.q.q.q.q.q.q.q.q.q.q.q.q.q.q.q.q.q.q.q.q.q.q.q.q.q.q.q.q.q.q.q.q.q.q.q.q.q.q.q.q.q.q.q.q.q.q.q.",
"q.q.q.q.q.q.q.q.q.q.q.q.q.q.q.q.q.q.q.q.q.q.q.q.q.q.q.q.q.q.q.q.q.q.q.q.q.q.q.q.q.q.q.q.q.q.q.q.q.q.",
"q.q.q.q.q.q.q.q.q.q.q.q.q.q.q.q.q.q.q.q.q.q.q.q.q.q.q.q.q.q.q.q.q.q.q.q.q.q.q.q.q.q.q.q.q.q.q.q.q.q.",
"q.q.q.q.q.q.q.q.q.q.q.q.q.q.q.q.q.q.q.q.q.q.q.q.q.q.q.q.q.q.q.q.q.q.q.q.q.q.q.q.q.q.q.q.q.q.q.q.q.q.",
"q.q.q.q.q.q.q.q.q.q.q.q.q.q.q.q.q.q.q.q.q.q.q.q.q.q.q.q.q.q.q.q.q.q.q.q.q.q.q.q.q.q.q.q.q.q.q.q.q.q.",
"q.q.q.q.q.q.q.q.q.q.q.q.q.q.q.q.q.q.q.q.q.q.q.q.q.q.q.q.q.q.q.q.q.q.q.q.q.q.q.q.q.q.q.q.q.q.q.q.q.q.",
"q.q.q.q.q.q.q.q.q.q.q.q.q.q.q.q.q.q.q.q.q.q.q.q.q.q.q.q.q.q.q.q.q.q.q.q.q.q.q.q.q.q.q.q.q.q.q.q.q.q.",
"q.q.q.q.q.q.q.q.q.q.q.q.q.q.q.q.q.q.q.q.q.q.q.q.q.q.q.q.q.q.q.q.q.q.q.q.q.q.q.q.q.q.q.q.q.q.q.q.q.q.",
"q.q.q.q.q.q.q.q.q.q.q.q.q.q.q.q.q.q.q.q.q.q.q.q.q.q.q.q.q.q.q.q.q.q.q.q.q.q.q.q.q.q.q.q.q.q.q.q.q.q.",
"q.q.q.q.q.q.q.q.q.q.q.q.q.q.q.q.q.q.q.q.q.q.q.q.q.q.q.q.q.q.q.q.q.q.q.q.q.q.q.q.q.q.q.q.q.q.q.q.q.q.",
"q.q.q.q.q.q.q.q.q.q.q.q.q.q.q.q.q.q.q.q.q.q.q.q.q.q.q.q.q.q.q.q.q.q.q.q.q.q.q.q.q.q.q.q.q.q.q.q.q.q.",
"q.q.q.q.q.q.q.q.q.q.q.q.q.q.$.+.$.$.#.$.$.%.#.@.#.$.#.#.$.$.$.@.$.$.+.$.q.q.q.q.q.q.q.q.q.q.q.q.q.q.",
"q.q.q.q.q.q.q.q.q.q.$.#.#.#.$.%.#.#.#.$.$.$.$.$.$.$.$.$.$.$.#.#.#.#.$.#.$.#.#.#.q.q.q.q.q.q.q.q.q.q.",
"q.q.q.q.q.q.+.@.#.%.$.$.@.@.$.*.;.>.>.,.,.<.1.2.2.2.2.2.<.<.,.>.>.-.*.$.@.@.$.$.$.$.#.#.q.q.q.q.q.q.",
"q.q.q.q.O.@.$.#.$.$.&.:.6.9.2.=.$.X.[ _ ( Q R Y I U T E ! ( ` { o.$.-.2.9.5.;.*.$.#.$.#.#.$.q.q.q.q.",
"q.q.q.+.$.#.#.-.2.6.>.| ~ L G V g r r e e r y y i u u u r e r t t h Z J P ^  .,.6.1.-.@.@.%.+.q.q.q.",
"q.q.+.#.$.3.7.+./ H h q 5 6 y h v m M N B B V V C C V B B B N N M c h t 6 6 w k K ) #.8.1.$.#.O.q.q.",
"q.O.#.1.6.' G q 1 e s n C A C C V B N N N M M M M M M M M N N N B V C Z A C b d e 3 y K ] 7.,.#.@.q.",
"q.@.0.} Z , 8 z N C Z C V N M m n b b v c c x x x x x c c c v b b m m M N V C C C B z 8 3 F ..8.#.q.",
"q.4.Y 3 r N A V B N M M n v v z l k j h h g f f f f f f g h h j k l z c v b m M V B V Z M r 9 W ,.q.",
"q.q.4 n A V B N m n c z l j g f s a p u u y y t t t t y y y u p a s d h j l z v n m N B V A x q q.q.",
"q.q.S x b N m v x l j f s p i t r w q 9 9 8 7 7 7 7 7 7 8 8 0 q q r t u p s f j z x b m N N g q.q.q.",
"q.q.q.q.D h j k g d p y r w 0 7 6 3 2 1 < > > : : : : > , , 1 2 3 6 7 9 q r u p d f k h k v q.q.q.q.",
"q.q.q.q.q.q.t e r e 0 8 8 4 1 , : ; = & % # # @ @ @ @ # $ % & * - : , 2 4 7 7 9 w r r d q.q.q.q.q.q.",
"q.q.q.q.q.q.q.q.q.q.3 , & & # $ + o   . .                 .     o + $ # % & , 4 q.q.q.q.q.q.q.q.q.q.",
"q.q.q.q.q.q.q.q.q.q.q.q.q.5 >     X = o                     O - X     < 0 q.q.q.q.q.q.q.q.q.q.q.q.q.",
"q.q.q.q.q.q.q.q.q.q.q.q.q.q.q.q.q.q.q.q.q.q.q.q.q.q.q.q.q.q.q.q.q.q.q.q.q.q.q.q.q.q.q.q.q.q.q.q.q.q.",
"q.q.q.q.q.q.q.q.q.q.q.q.q.q.q.q.q.q.q.q.q.q.q.q.q.q.q.q.q.q.q.q.q.q.q.q.q.q.q.q.q.q.q.q.q.q.q.q.q.q.",
"q.q.q.q.q.q.q.q.q.q.q.q.q.q.q.q.q.q.q.q.q.q.q.q.q.q.q.q.q.q.q.q.q.q.q.q.q.q.q.q.q.q.q.q.q.q.q.q.q.q.",
"q.q.q.q.q.q.q.q.q.q.q.q.q.q.q.q.q.q.q.q.q.q.q.q.q.q.q.q.q.q.q.q.q.q.q.q.q.q.q.q.q.q.q.q.q.q.q.q.q.q.",
"q.q.q.q.q.q.q.q.q.q.q.q.q.q.q.q.q.q.q.q.q.q.q.q.q.q.q.q.q.q.q.q.q.q.q.q.q.q.q.q.q.q.q.q.q.q.q.q.q.q."
};
