/* XPM */
static char *left_cat[] = {
/* columns rows colors chars-per-pixel */
"50 50 172 2 ",
"   c black",
".  c #100D0A",
"X  c #5B544C",
"o  c #B45820",
"O  c #B66738",
"+  c #A66850",
"@  c #A77563",
"#  c #FF8616",
"$  c #FD8920",
"%  c #FE9534",
"&  c #FF9936",
"*  c #DECCC3",
"=  c #DECDC3",
"-  c #E0CFC7",
";  c #E1D3CA",
":  c #E3D2CA",
">  c #E2D3CA",
",  c #E4D2C9",
"<  c #E4D2CB",
"1  c #E4D4CD",
"2  c #E4D5CD",
"3  c #E4D5CE",
"4  c #E7D6CF",
"5  c #E6D7D0",
"6  c #E7D8D1",
"7  c #E6D8D2",
"8  c #E7DDD6",
"9  c #E7DCD7",
"0  c #EADFD9",
"q  c #E9E2DE",
"w  c #EBE3DF",
"e  c #F6E4D4",
"r  c #F7E7D4",
"t  c #EFE5E1",
"y  c #EEE6E1",
"u  c #EFE7E3",
"i  c #EFEAE7",
"p  c #EDECEA",
"a  c #F0E9E7",
"s  c #F3EDE6",
"d  c #F0EBE8",
"f  c #F1EDE9",
"g  c #F2EDE9",
"h  c #F1EFEB",
"j  c #F3EFEA",
"k  c #F1EEEC",
"l  c #F1EEED",
"z  c #F4EFEC",
"x  c #F2F0E4",
"c  c #F3F1EB",
"v  c #F1F0EE",
"b  c #F2F0EE",
"n  c #F2F1EF",
"m  c #F5F0ED",
"M  c #F4F4EE",
"N  c #F1F0F1",
"B  c #F1F1F1",
"V  c #F3F1F0",
"C  c #F2F1F1",
"Z  c #F3F2F1",
"A  c #F3F3F1",
"S  c #F0F3F3",
"D  c gray95",
"F  c #F3F2F2",
"G  c #F3F3F2",
"H  c #F2F2F3",
"J  c #F3F2F3",
"K  c #F3F3F3",
"L  c #F4F2F0",
"P  c #F4F3F3",
"I  c #F3F4F0",
"U  c #F2F3F4",
"Y  c #F3F3F4",
"T  c #F3F4F4",
"R  c #F3F4F6",
"E  c #F3F6F7",
"W  c #F4F4F4",
"Q  c #F4F4F5",
"!  c #F4F5F5",
"~  c gray96",
"^  c #F4F5F6",
"/  c #F6F5F6",
"(  c #F4F6F6",
")  c #F5F6F6",
"_  c #F4F6F7",
"`  c #F5F6F7",
"'  c #F4F7F7",
"]  c #F5F7F7",
"[  c #F6F6F6",
"{  c #F7F6F7",
"}  c gray97",
"|  c #F9F5F1",
" . c #F8F6F5",
".. c #FBF7F4",
"X. c #F6FBF7",
"o. c #FAF8F4",
"O. c #F9F8F6",
"+. c #F9F8F7",
"@. c #F3F5F8",
"#. c #F3F6F9",
"$. c #F3F7FB",
"%. c #F5F7F8",
"&. c #F6F7F8",
"*. c #F7F7F8",
"=. c #F6F7F9",
"-. c #F2F9F8",
";. c #F2FBF8",
":. c #F3F8FA",
">. c #F6F8F8",
",. c #F6F9F8",
"<. c #F7F9F8",
"1. c #F6F8F9",
"2. c #F7F8F9",
"3. c #F6F9F9",
"4. c #F7F9F9",
"5. c #F7FAF9",
"6. c #F5F9FA",
"7. c #F6F9FA",
"8. c #F7F9FA",
"9. c #F7FAFB",
"0. c #F2F9FC",
"q. c #F3F9FC",
"w. c #F3F8FD",
"e. c #F2FAFD",
"r. c #F2FBFD",
"t. c #F2F9FE",
"y. c #F3F9FE",
"u. c #F3F9FF",
"i. c #F1FBFF",
"p. c #F2FAFE",
"a. c #F2FBFF",
"s. c #F7FBFC",
"d. c #F1FEFD",
"f. c #F2FCFF",
"g. c #F1FFFF",
"h. c #F2FEFF",
"j. c #F2FFFF",
"k. c #F5FCFF",
"l. c #F9F9F9",
"z. c #FAFAF9",
"x. c #F9FBFB",
"c. c #FAFBFA",
"v. c #FBFAFB",
"b. c #FCFBFA",
"n. c #F8FCFB",
"m. c #FDFCFB",
"M. c #F8FAFC",
"N. c #F8FBFC",
"B. c #F9FBFC",
"V. c #F8FCFD",
"C. c #F9FCFD",
"Z. c #F8FDFD",
"A. c #FAFCFC",
"S. c #FBFDFC",
"D. c #FAFDFD",
"F. c #F8FCFE",
"G. c #F8FDFE",
"H. c #F9FDFF",
"J. c #FAFDFE",
"K. c #FBFDFE",
"L. c #FAFDFF",
"P. c #FAFEFE",
"I. c #FBFEFE",
"U. c #FAFEFF",
"Y. c #FBFEFF",
"T. c #FAFFFF",
"R. c #FBFFFF",
"E. c #FCFEFF",
"W. c #FCFFFF",
"Q. c #FDFFFF",
"!. c white",
"~. c None",
/* pixels */
"~.~.~.~.~.~.~.~.~.~.~.~.~.~.~.~.~.~.~.~.~.~.~.~.~.~.~.~.~.~.~.~.~.~.~.~.~.~.~.~.~.~.~.~.~.~.~.~.~.~.",
"~.~.~.~.~.~.~.~.~.~.~.O + ~.~.~.~.~.~.~.~.~.~.~.~.~.~.~.~.~.~.~.~.~.~.~.~.~.~.~.~.~.~.~.~.~.~.~.~.~.",
"~.~.~.~.~.~.~.~.~.~.O # O ~.~.~.~.~.~.~.~.~.~.~.~.~.~.~.~.~.~.~.~.~.~.~.~.~.~.~.~.~.~.~.~.~.~.~.~.~.",
"~.~.~.~.~.~.~.~.~.O # # # O ~.~.~.~.~.~.~.~.~.~.~.~.~.~.~.~.~.~.~.~.~.~.~.~.~.~.~.~.~.~.~.~.~.~.~.~.",
"~.~.~.~.~.~.~.~.O # # r # O ~.~.~.~.~.~.~.~.~.~.~.~.~.~.~.~.~.~.~.~.~.~.~.~.~.~.~.~.~.~.~.~.~.~.~.~.",
"~.~.~.~.~.~.~.o # # # # # O ~.~.~.~.~.~.~.~.~.~.~.~.~.~.~.~.~.~.~.~.~.~.~.~.~.~.~.~.~.~.~.~.~.~.~.~.",
"~.~.~.~.~.~.O # # # # # # O O O ~.~.~.~.~.~.~.~.~.~.O + ~.~.~.~.~.~.~.~.~.~.~.~.~.~.~.~.~.~.~.~.~.~.",
"~.~.~.~.~.~.O T.i.p.w.u.# # # O O O O O ~.~.~.~.~.O # O ~.~.~.~.~.~.~.~.~.~.~.~.~.~.~.~.~.~.~.~.~.~.",
"~.~.~.~.~.~.O N.F F A @.K # # # # # # # O O ~.~.O # # O ~.~.~.~.~.~.~.~.~.~.~.~.~.~.~.~.~.~.~.~.~.~.",
"~.~.~.~.~.O P.T K K G #.n # # g.# # # # # # O O # # X.% O ~.~.~.~.~.~.~.~.~.~.~.~.~.~.~.~.~.~.~.~.~.",
"~.~.~.~.~.O W.D K K G #.j # # d.# # # g.# # # # # # # & O ~.~.~.~.~.~.~.~.~.~.~.~.~.~.~.~.~.~.~.~.~.",
"~.~.~.~.O O V.F K K K E s # -.c # # ;.I # # M q.f.x # # O ~.~.~.~.~.~.~.~.~.~.~.~.~.~.~.~.~.~.~.~.~.",
"~.~.~.~.O p %.K Y ! K G K e.a.D # # j.# # # f.F F 0.h.# O ~.~.~.~.~.~.~.~.~.~.~.~.~.~.~.~.~.~.~.~.~.",
"~.~.~.~.O b ` T D D D D K T R D # :.e.# # h.Y K K F k.e O ~.~.~.~.~.~.~.~.~.~.~.~.~.~.~.~.~.~.~.~.~.",
"~.~.~.~.O L &.z.D     D K K G R t.K J T y.Y K K K K 2.a O ~.~.~.~.~.~.~.~.~.~.~.~.~.~.~.~.~.~.~.~.~.",
"~.~.~.~.O k E.D D L   D Y D K K K K Y =.Y G K K K K M.0 O ~.~.~.~.~.~.~.~.~.~.~.~.~.~.~.~.~.~.~.~.~.",
"~.~.~.~.O 8 H.+.D D D D D D } D G F D D D D K K K K T.O ~.~.~.~.~.~.~.~.~.~.~.~.~.~.O O O ~.~.~.~.~.",
"~.~.~.~.~.O R.H D D D D D D D / Y D D     D K K K K I.O ~.~.~.~.~.~.~.~.~.~.~.~.~.O $ $ $ O ~.~.~.~.",
"~.~.~.~.~.O S.K P B.D   D . X o.D D D L   D ~ K K %.k O ~.~.~.~.~.~.~.~.~.~.~.~.O $ $ $ $ O ~.~.~.~.",
"~.~.~.~.~.O O U.D T O.      D D D D D D D D K K D W.O ~.~.~.~.~.~.~.~.~.~.~.~.O 6.S $ $ O ~.~.~.~.~.",
"~.~.~.~.~.~.O c.) D W m.v h     D } D D D H K D 4.n O ~.~.~.~.~.~.~.~.~.~.~.O K F K K O ~.~.~.~.~.~.",
"~.~.~.~.~.~.~.O !.! D K T *.<.<.{ D K Q K K F J Q.O ~.~.~.~.~.~.~.~.~.~.~.O ) K K R.O ~.~.~.~.~.~.~.",
"~.~.~.~.~.~.~.~.O b.2.D K G ! ! F K K K K J J J O O ~.~.~.~.~.~.~.~.~.~.O K K K J.O ~.~.~.~.~.~.~.~.",
"~.~.~.~.~.~.~.~.+ O w 1.K F ^ K K K K ! >.J J O $ # O O O O O ~.~.~.~.O K K K 1.O ~.~.~.~.~.~.~.~.~.",
"~.~.~.~.~.~.~.~.+ 2 ; 2 K T l J J J J J K O O q $ $ # # # # # O O O @ z K C Q O ~.~.~.~.~.~.~.~.~.~.",
"~.~.~.~.~.~.~.~.+ 2 M.D K J J J J J F J J K K s.q q # # # # # # # # q K K 7.O ~.~.~.~.~.~.~.~.~.~.~.",
"~.~.~.~.~.~.~.~.+ 2 ) K K K J J J J F J J J K J G K q # # # # q # q K K K O ~.~.~.~.~.~.~.~.~.~.~.~.",
"~.~.~.~.~.~.~.~.+ i 1.G K K K J J J J J Y J J J K K q # # q # K q K s.K Z + ~.~.~.~.~.~.~.~.~.~.~.~.",
"~.~.~.~.~.~.~.~.+ q 9.F K K K K F F J J K K K K K K q # q r.q K q T G Z Z Z + ~.~.~.~.~.~.~.~.~.~.~.",
"~.~.~.~.~.~.~.~.+ 9 s.F K K K K K K K K K K K K K K F q $.G K K K K K F x.Z + ~.~.~.~.~.~.~.~.~.~.~.",
"~.~.~.~.~.~.~.~.+ 3 V.F K K K K K K K K K K K K F ( >.U Y K K K K K K K Z Z + ~.~.~.~.~.~.~.~.~.~.~.",
"~.~.~.~.~.~.~.~.+ 7 Z.F K K K K K K K K K K K K W K K K K K K K K K K K D Z + ~.~.~.~.~.~.~.~.~.~.~.",
"~.~.~.~.~.~.~.~.+ 4 G.F K K K K K K K K K K K K K K K K K K K K K K K K K ' + ~.~.~.~.~.~.~.~.~.~.~.",
"~.~.~.~.~.~.~.~.+ : J.D K K K D T K G K K K K K K K K K K K K K K K K K K T + ~.~.~.~.~.~.~.~.~.~.~.",
"~.~.~.~.~.~.~.~.+ - J.D K K K C.T.W.8.D K K K K C.K K K K K K K K K K K K K + ~.~.~.~.~.~.~.~.~.~.~.",
"~.~.~.~.~.~.~.~.+ * J.D K D D.< + + t F.D K K K l.+ K 9.K K K K K K K K K K + ~.~.~.~.~.~.~.~.~.~.~.",
"~.~.~.~.~.~.~.~.+ = J.D K x.1 + ~.~.+ f %.K K K  .+ K 8.K K K K K K K K K K + ~.~.~.~.~.~.~.~.~.~.~.",
"~.~.~.~.~.~.~.~.+ - J.D K R.+ ~.~.~.~.+ R.D K ! V + K _ ^ 8.9.4.K K K K K K + ~.~.~.~.~.~.~.~.~.~.~.",
"~.~.~.~.~.~.~.~.+ > J.D ^ ,.+ ~.~.~.~.+ L.D K 4.+ + Q.K 5.+ + + R.! D K K K + + ~.~.~.~.~.~.~.~.~.~.",
"~.~.~.~.~.~.~.~.+ 5 G.F &.m + ~.~.~.~.+ Y.D D J.+ + + + + + ~.~.+ A.T K K K ] + ~.~.~.~.~.~.~.~.~.~.",
"~.~.~.~.~.~.~.~.+ 6 G.F 1.+ ~.~.~.~.~.+ Y.D D Y.+ ~.~.~.~.~.~.~.~.+ Y.K K K ] + ~.~.~.~.~.~.~.~.~.~.",
"~.~.~.~.~.~.~.~.+ , J.D V.+ ~.~.~.~.~.+ L.D Q n.+ ~.~.~.~.~.~.~.~.~.+ 3.K K ] + ~.~.~.~.~.~.~.~.~.~.",
"~.~.~.~.~.~.~.~.~.+ K.B R.+ ~.~.~.~.~.+ L.D 8.u + ~.~.~.~.~.~.~.~.~.+ T.G K K + ~.~.~.~.~.~.~.~.~.~.",
"~.~.~.~.~.~.~.~.~.+ Q.` v.+ ~.~.~.~.~.+ D.N W.+ + ~.~.~.~.~.~.~.~.~.+ K K K + + ~.~.~.~.~.~.~.~.~.~.",
"~.~.~.~.~.~.~.~.~.+ | ..+ ~.~.~.~.~.~.+ W.N.d + ~.~.~.~.~.~.~.~.~.~.+ [ Q K + ~.~.~.~.~.~.~.~.~.~.~.",
"~.~.~.~.~.~.~.~.~.~.+ + ~.~.~.~.~.~.~.+ g y + ~.~.~.~.~.~.~.~.~.~.~.+ + B.D + ~.~.~.~.~.~.~.~.~.~.~.",
"~.~.~.~.~.~.~.~.~.~.~.~.~.~.~.~.~.~.~.~.+ + ~.~.~.~.~.~.~.~.~.~.~.~.~.+ K K + ~.~.~.~.~.~.~.~.~.~.~.",
"~.~.~.~.~.~.~.~.~.~.~.~.~.~.~.~.~.~.~.~.~.~.~.~.~.~.~.~.~.~.~.~.~.~.~.+ + + + ~.~.~.~.~.~.~.~.~.~.~.",
"~.~.~.~.~.~.~.~.~.~.~.~.~.~.~.~.~.~.~.~.~.~.~.~.~.~.~.~.~.~.~.~.~.~.~.~.~.~.~.~.~.~.~.~.~.~.~.~.~.~.",
"~.~.~.~.~.~.~.~.~.~.~.~.~.~.~.~.~.~.~.~.~.~.~.~.~.~.~.~.~.~.~.~.~.~.~.~.~.~.~.~.~.~.~.~.~.~.~.~.~.~."
};
