/* XPM */
static char *left_cat[] = {
/* columns rows colors chars-per-pixel */
"76 76 254 2 ",
"   c black",
".  c #090500",
"X  c #261D17",
"o  c #41372A",
"O  c #5A5040",
"+  c #54514E",
"@  c #6A6156",
"#  c #7F6961",
"$  c #853817",
"%  c #9A481E",
"&  c #AC440A",
"*  c #984A2D",
"=  c #985238",
"-  c #AE5828",
";  c #A85F3E",
":  c #BA6030",
">  c #D56D15",
",  c #FD7B05",
"<  c #F87E13",
"1  c #C26322",
"2  c #D26E28",
"3  c #CF7436",
"4  c #E37B23",
"5  c #E07E2D",
"6  c #925344",
"7  c #955A42",
"8  c #9C5A40",
"9  c #925E4D",
"0  c #9C5F48",
"q  c #975F51",
"w  c #A65B4B",
"e  c #9B6451",
"r  c #9F6B5F",
"t  c #A2634B",
"y  c #A4694D",
"u  c #AE6B4D",
"i  c #B26A4A",
"p  c #B5704E",
"a  c #A46652",
"s  c #A86351",
"d  c #AB6653",
"f  c #A56953",
"g  c #A46D57",
"h  c #A96D56",
"j  c #AA6F59",
"k  c #B36F54",
"l  c #AD7356",
"z  c #A2745E",
"x  c #AC735C",
"c  c #AF765F",
"v  c #B07B5F",
"b  c #966C60",
"n  c #847A6F",
"m  c #A87063",
"M  c #AE7160",
"N  c #AB7660",
"B  c #AA7364",
"V  c #AD7365",
"C  c #AF7464",
"Z  c #AB7866",
"A  c #AB7E65",
"S  c #A2726D",
"D  c #A77968",
"F  c #AD7B6C",
"G  c #B47665",
"H  c #B37B65",
"J  c #B37D6A",
"K  c #B87B6B",
"L  c #A37975",
"P  c #B47F74",
"I  c #C07A50",
"U  c #FF8D09",
"Y  c #FE8512",
"T  c #FF871C",
"R  c #FF8B1D",
"E  c #F18427",
"W  c #F98527",
"Q  c #FF8D22",
"!  c #FD8E2A",
"~  c #FD9323",
"^  c #FF9925",
"/  c #F4902F",
"(  c #FF9329",
")  c #FE912F",
"_  c #F6982D",
"`  c #FE982D",
"'  c #E98535",
"]  c #EE9039",
"[  c #F89733",
"{  c #FE9532",
"}  c #FF9F32",
"|  c #F8953A",
" . c #FC9738",
".. c #FF9D3A",
"X. c #FFA839",
"o. c #958675",
"O. c #B1806B",
"+. c #B4836C",
"@. c #BA846D",
"#. c #AE8277",
"$. c #B58471",
"%. c #B48775",
"&. c #BF8676",
"*. c #BA8C74",
"=. c #B48E7B",
"-. c #BB8E7A",
";. c #BD917F",
":. c #CF8552",
">. c #E19246",
",. c #FD9B41",
"<. c #FFA542",
"1. c #FFAE43",
"2. c #FFA947",
"3. c #FCA04B",
"4. c #FCA756",
"5. c #FFB25E",
"6. c #C49179",
"7. c #E7A167",
"8. c #FBAB64",
"9. c #FBB26C",
"0. c #FAB87B",
"q. c #FFC37B",
"w. c #9B948C",
"e. c #BC9988",
"r. c #ACA195",
"t. c #BAB1A8",
"y. c #C09783",
"u. c #C19D87",
"i. c #C19888",
"p. c #C39C8D",
"a. c #D6A787",
"s. c #C5A490",
"d. c #C3A395",
"f. c #CAA494",
"g. c #CEA69D",
"h. c #C6A89A",
"j. c #C4AA9D",
"k. c #C8A999",
"l. c #CDAA98",
"z. c #CCAB9B",
"x. c #D0A699",
"c. c #CBB09F",
"v. c #F9BE8A",
"b. c #CAADA3",
"n. c #CCB4A6",
"m. c #D0B0A2",
"M. c #D1B5AA",
"N. c #D2BCB0",
"B. c #D6BEB6",
"V. c #E0B7A1",
"C. c #F8C596",
"Z. c #D7C1B5",
"A. c #D2C3B9",
"S. c #DAC6BC",
"D. c #DBC9BE",
"F. c #E8C7A7",
"G. c #F7CBA2",
"H. c #FAD4AB",
"J. c #EBCCB7",
"K. c #F6D5B6",
"L. c #FDDFB8",
"P. c #D3CBC4",
"I. c #DDCCC3",
"U. c #DFD0C6",
"Y. c #D9D2CA",
"T. c #DED9D3",
"R. c #E4CEC4",
"E. c #E2D2CA",
"W. c #E4D3CA",
"Q. c #E3D5CA",
"!. c #E1D4CD",
"~. c #E4D4CC",
"^. c #E4D7CE",
"/. c #F5DCC5",
"(. c #E4D5D0",
"). c #E6D9D0",
"_. c #E5DBD3",
"`. c #E9D8D0",
"'. c #E8DBD2",
"]. c #E8DDD7",
"[. c #E2DDD8",
"{. c #F7E4CD",
"}. c #E9E2DC",
"|. c #F4E6D5",
" X c #F3E8DF",
".X c #FCF1DF",
"XX c #E7E5E3",
"oX c #EDE6E1",
"OX c #ECE9E6",
"+X c #E7EAE9",
"@X c #EFECE9",
"#X c #F3ECE4",
"$X c #F3EEEA",
"%X c #FFF7E7",
"&X c #F4F1EE",
"*X c #F1F1F1",
"=X c #F2F1F1",
"-X c #F2F2F1",
";X c gray95",
":X c #F3F2F2",
">X c #F2F2F3",
",X c #F3F3F3",
"<X c #F5F4F2",
"1X c #F3F3F4",
"2X c #F3F4F5",
"3X c #F1F6F4",
"4X c #F3F4F6",
"5X c #F3F7F6",
"6X c #F4F5F5",
"7X c #F5F6F5",
"8X c #F7F6F4",
"9X c #F4F5F6",
"0X c #F5F6F7",
"qX c #F6F7F7",
"wX c #FAF7F0",
"eX c #F9F8F5",
"rX c #F8F9F7",
"tX c #F3F6F9",
"yX c #F5F7F8",
"uX c #F7F7F8",
"iX c #F4F7FA",
"pX c #F3F7FC",
"aX c #F2F9FA",
"sX c #F5F8F9",
"dX c #F7F8F9",
"fX c #F5F9FA",
"gX c #F6F9FB",
"hX c #F2F9FC",
"jX c #F3F9FF",
"kX c #F2FBFE",
"lX c #F2FAFF",
"zX c #F6FBFC",
"xX c #F1FCFF",
"cX c #F2FCFF",
"vX c #F1FFFF",
"bX c #F2FFFF",
"nX c #F5FFFF",
"mX c #F9FAFA",
"MX c #F8FAFB",
"NX c #FAFCF9",
"BX c #FFFEFA",
"VX c #F8FBFD",
"CX c #FBFBFC",
"ZX c #F8FDFD",
"AX c #FAFFFD",
"SX c #F8FDFE",
"DX c #FBFDFE",
"FX c #F9FFFF",
"GX c #FBFFFF",
"HX c #FDFDFC",
"JX c #FCFFFF",
"KX c #FEFFFF",
"LX c white",
"PX c None",
/* pixels */
"PXPXPXPXPXPXPXPXPXPXPXPXPXPXPXPXPXPXPXPXPXPXPXPXPXPXPXPXPXPXPXPXPXPXPXPXPXPXPXPXPXPXPXPXPXPXPXPXPXPXPXPXPXPXPXPXPXPXPXPXPXPXPXPXPXPXPXPXPXPXPXPXPXPXPXPX",
"PXPXPXPXPXPXPXPXPXPXPXPXPXPXPXPXPXPXPXPXPXPXPXPXPXPXPXPXPXPXPXPXPXPXPXPXPXPXPXPXPXPXPXPXPXPXPXPXPXPXPXPXPXPXPXPXPXPXPXPXPXPXPXPXPXPXPXPXPXPXPXPXPXPXPXPX",
"PXPXPXPXPXPXPXPXPXPXPXPXPXPXPX6 9 PXPXPXPXPXPXPXPXPXPXPXPXPXPXPXPXPXPXPXPXPXPXPXPXPXPXPXPXPXPXPXPXPXPXPXPXPXPXPXPXPXPXPXPXPXPXPXPXPXPXPXPXPXPXPXPXPXPXPX",
"PXPXPXPXPXPXPXPXPXPXPXPXPX0 1 ' 1 z PXPXPXPXPXPXPXPXPXPXPXPXPXPXPXPXPXPXPXPXPXPXPXPXPXPXPXPXPXPXPXPXPXPXPXPXPXPXPXPXPXPXPXPXPXPXPXPXPXPXPXPXPXPXPXPXPXPX",
"PXPXPXPXPXPXPXPXPXPXPXPX* 5 <.1.<.- PXPXPXPXPXPXPXPXPXPXPXPXPXPXPXPXPXPXPXPXPXPXPXPXPXPXPXPXPXPXPXPXPXPXPXPXPXPXPXPXPXPXPXPXPXPXPXPXPXPXPXPXPXPXPXPXPXPX",
"PXPXPXPXPXPXPXPXPXPXPX% ] } !  .2.3 b PXPXPXPXPXPXPXPXPXPXPXPXPXPXPXPXPXPXPXPXPXPXPXPXPXPXPXPXPXPXPXPXPXPXPXPXPXPXPXPXPXPXPXPXPXPXPXPXPXPXPXPXPXPXPXPXPX",
"PXPXPXPXPXPXPXPXPXPX% / ..8.0.| X.3 r PXPXPXPXPXPXPXPXPXPXPXPXPXPXPXPXPXPXPXPXPXPXPXPXPXPXPXPXPXPXPXPXPXPXPXPXPXPXPXPXPXPXPXPXPXPXPXPXPXPXPXPXPXPXPXPXPX",
"PXPXPXPXPXPXPXPXPX* ' } 4.FXnX4.X.1 -.PXPXPXPXPXPXPXPXPXPXPXPXPXPXPXPXPXPXPXPXPXPXPXPXPXPXPXPXPXPXPXPXPXPXPXPXPXPXPXPXPXPXPXPXPXPXPXPXPXPXPXPXPXPXPXPXPX",
"PXPXPXPXPXPXPXPXe 2 2.R 4.bX{.{ } 3 r PXPXPXPXPXPXPXPXPXPXPXPXPXPXPXPXPXPXPXPXPXPXPXPXPXPXPXPXPXPXPXPXPXPXPXPXPXPXPXPXPXPXPXPXPXPXPXPXPXPXPXPXPXPXPXPXPX",
"PXPXPXPXPXPXPXPX& ^ ~ | ,.0.4.[ ^ 2 # PXPXPXPXPXPXPXPXPXPXPXPXPXPXPXPXPXPXPXPXPXPXPXPXPXPXPXPXPXPXPXPXPXPXPXPXPXPXPXPXPXPXPXPXPXPXPXPXPXPXPXPXPXPXPXPXPX",
"PXPXPXPXPXPXPX* 8.H.K.{.$X{.|.#XL.7.1 w u F PXPXPXPXPXPXPXPXPXPXPXPXPXPX8 - 0 PXPXPXPXPXPXPXPXPXPXPXPXPXPXPXPXPXPXPXPXPXPXPXPXPXPXPXPXPXPXPXPXPXPXPXPXPX",
"PXPXPXPXPXPXh 6.FXbXbXbXpXjXkXkXbXC.R Q 7.B.p.g B PXPXPXPXPXPXPXPXPXL - ' X.> 7 PXPXPXPXPXPXPXPXPXPXPXPXPXPXPXPXPXPXPXPXPXPXPXPXPXPXPXPXPXPXPXPXPXPXPXPX",
"PXPXPXPXPXPXx 5XnX,X,X,X>X>X1XjX5X8.) Q H.FXLXC.> - ; m PXPXPXPXPX#.%  .^ ( 2.- PXPXPXPXPXPXPXPXPXPXPXPXPXPXPXPXPXPXPXPXPXPXPXPXPXPXPXPXPXPXPXPXPXPXPXPX",
"PXPXPXPXPXPXd.LX,X,X,X,X>X>X:XjX$X3.( [ #XbX*X4.} ( C.A.O.a PXPXPX% ,...8.8.<.5 r PXPXPXPXPXPXPXPXPXPXPXPXPXPXPXPXPXPXPXPXPXPXPXPXPXPXPXPXPXPXPXPXPXPXPX",
"PXPXPXPXPXj ].FX:X:X:X6X:X1X:XkX#X3.Y 9.bXbXH.R ) ..<XLX.X4 : t % E } 8.nX.X..4 f PXPXPXPXPXPXPXPXPXPXPXPXPXPXPXPXPXPXPXPXPXPXPXPXPXPXPXPXPXPXPXPXPXPXPX",
"PXPXPXPXPX%.LX6X:X:X1X:X1X:X1XkX X3.T H.bXkX8.Q R C.bXbXG.( } >.F.5., 9.nX|. .W u PXPXPXPXPXPXPXPXPXPXPXPXPXPXPXPXPXPXPXPXPXPXPXPXPXPXPXPXPXPXPXPXPXPXPX",
"PXPXPXPXPXg.LX,X,X,X,X,X,X,X,XkX#X{ ,.,XvX/.! { ,.#XbX#X,.{ ! L.nX@Xv.,.9.4.{ { i PXPXPXPXPXPXPXPXPXPXPXPXPXPXPXPXPXPXPXPXPXPXPXPXPXPXPXPXPXPXPXPXPXPXPX",
"PXPXPXPXM Z.LX,X,X,X,X,X,X,X,XkX X! C.vXbXG.! R v.bXbXK.( Q 8.kXpXkXvX|.3.T ,.| u PXPXPXPXPXPXPXPXPXPXPXPXPXPXPXPXPXPXPXPXPXPXPXPXPXPXPXr C PXPXPXPXPXPX",
"PXPXPXPXZ oXnX:X,X,X,X,X,X,X,XtX#XG.>XpXkXv.Y | #XkXkXC.R ! {.bX,X,X,XxXbX9.R | u PXPXPXPXPXPXPXPXPXPXPXPXPXPXPXPXPXPXPXPXPXPXPXPXPXh : 2 5 - PXPXPXPXPX",
"PXPXPXPX-.5XuX:X,X,X,X,X,X,X,X,X>XbXuX4XkX,., /.bXkX&X,., C.bX>X,X,X,X,XxXxX9.< k PXPXPXPXPXPXPXPXPXPXPXPXPXPXPXPXPXPXPXPXPXPXPXPX- 1 ] X.X.4 i PXPXPXPX",
"PXPXPXPX*.VX6X:X,X,X,XdX,X,X,X,X1X>X,X5XpX0.C.bX>XkX|.T 9.hXhX&X,X,X,X,X,XbXwX' 8 PXPXPXPXPXPXPXPXPXPXPXPXPXPXPXPXPXPXPXPXPXPXP i > _ 2.,.1.X.- PXPXPXPX",
"PXPXPXPX;.FX6X1X,XVXLXLXLX>X,X,X:X,X,X,X,XkXbX>X,XkX|.0.,XxX,X,X,X,X,X,X,X,XLXa.8 PXPXPXPXPXPXPXPXPXPXPXPXPXPXPXPXPXPXPXPXPX+.-.J.5.` 3.,.<.[ : PXPXPXPX",
"PXPXPXPX;.FXuX>X6XBXn O t.LX<X,X1X:X,X,X>X6X>X1X>X,X>XkXtX,X,X,X,X,X,X,X,X,XLXb.H PXPXPXPXPXPXPXPXPXPXPXPXPXPXPXPXPXPXPXPXO.p.oXLXK.! ! ,.2.5 i PXPXPXPX",
"PXPXPXPX;.LX6X6XLXw.      P.LX,X:X1X,X,X6X:X1X1X>X5X>X>X,X,X,X,X,X,X,X,X,X,XLXz.PXPXPXPXPXPXPXPXPXPXPXPXPXPXPXPXPXPXPXPX0 z.&XLXjXpX0.Y ..| 3 C PXPXPXPX",
"PXPXPXPX-.6XdX,XLX@       t.LX,X6X,X,X,X,X,X,X,X,X,X,X,X,X,X,X,X,X,X,X,X,X:XLX-.PXPXPXPXPXPXPXPXPXPXPXPXPXPXPXPXPXPXPX= k.rXCX6X*XkXOX4.U 4 k PXPXPXPXPX",
"PXPXPXPXN oXFX,XCXY.X . + wXCX,X,X,X,X,X,X,X,X,X,XFXLXLX,X,X,X,X,X,X,X,X,XjX&XA PXPXPXPXPXPXPXPXPXPXPXPXPXPXPXPXPXPXe h.LX6X,X:X,X5XbX{.[ 1 S PXPXPXPXPX",
"PXPXPXPXc D.FX>X:XFX$XT.LXjX>X@XLXLXLX6X,X,X,X,XLXwXt.}.LX,X,X,X,X,X,X,X,XLXI.h PXPXPXPXPXPXPXPXPXPXPXPXPXPXPXPXPX0 z.LX6X,X,X,X,X,X5XCXa.h PXPXPXPXPXPX",
"PXPXPXPXPXh.LX,X:X,XLXLXdXuXLXCXr.n Y.LX6X,X,XCXOXo   X Y.LX,X,X,X,X,X,X,XLXd.PXPXPXPXPXPXPXPXPXPXPXPXPXPXPXPXPXa p.LXuX,X,X,X,X,X,XLX^.F PXPXPXPXPXPXPX",
"PXPXPXPXPXO.FXuX:X:X,X,XFXY.t.LXt.    O wXVX,XLXr.      + LX,X,X,X,X,X,XdXdXK PXPXPXPXPXPXPXPXPXPXPXPXPXPXPXPXs ;.FXtX,X,X,X,X,X,XLXE.8 PXPXPXPXPXPXPXPX",
"PXPXPXPXPXh D.LX,X6X,X,XCXOX@ w.P.X + t.rXLX,XFXP.      w.LX,X,X,X,X,X,XLXS.a PXPXPXPXPXPXPXPXPXPXPXPXPXPXPXPXO.LXdX,X,X,X,X,X,XLXQ.0 PXPXPXPXPXPXPXPXPX",
"PXPXPXPXPXPXZ LX6X,X,X,X*XBX}.n o.r.n LXXXt.*XtXLXt.@ w.BXtX,X,X,X,X,X5XLX$.PXPXPXPXPXPXPXPXPXPXPXPXPXPXPXPXa FXFX,X,X,X,X,X,XLX~.8 PXPXPXPXPXPXPXPXPXPX",
"PXPXPXPXPXPXf A.LX,X,X,X,X*XLXBXLXLXr.# b r.aX3X,XLXLXLXuX*X,X,X,X,X,XLXY.J PXPXPXPXPXPXPXPXPXPXPXPXPXPXPX0  XLX*X,X,X,X,X,XLX^.7 PXPXPXPXPXPXPXPXPXPXPX",
"PXPXPXPXPXPXPX7 $XLX$X,X,X,X,X,X,X>XLXT.[.LX,X,X,X,X,X,X,X,X,X,X,X,XdXLXg b PXPXPXPXPXPXPXPXPXPXPXPXPXPX= D.LX,X,X,X,X,X,XLXI.0 PXPXPXPXPXPXPXPXPXPXPXPX",
"PXPXPXPXPXPXPXPXg FXnX,X,X,X,X,X,X,X,XFXdX,X,X,X,X,X,X,X,X,X,X,X,X>XLXu.& 3 ; h v PXPXPXPXPXPXPXPXPXPXd d.LX>X,X,X,X,X,XLXI.= PXPXPXPXPXPXPXPXPXPXPXPXPX",
"PXPXPXPXPXPXPXPXPXO.LXLX,X,X,X,X,X,X,X,X,X,X:X6X,X,X,X,X,X,X5X,X>XLXM.D 9.} ( F.I.p = g PXPXPXPXPXPXPXx LX6X,X,X,X,X,XLX_.8 PXPXPXPXPXPXPXPXPXPXPXPXPXPX",
"PXPXPXPXPXPXPXPXPX* y oXLX5X,X:X,X,X,X,X,X,X1X1X,X,X,X,X,X,X*XdXLXz.h kX{.! R C.LXH., :.%.g PXPXPXPX0 }.LX,X,X,X,X,XLXXX7 PXPXPXPXPXPXPXPXPXPXPXPXPXPXPX",
"PXPXPXPXPXPXPXPXPX&.g +.z.7X7X:X,X,X,X,X,X,X,X>X,X>X>X5X,X5XLXLXe.G @XLX X[ R 8.bXK.Y q.LXm.& 7 PXG c.FX:X6X,X,X,XFXrXg PXPXPXPXPXPXPXPXPXPXPXPXPXPXPXPX",
"PXPXPXPXPXPXPXPXPXPXS.$Xe.}.FX:X,X,X,XFXFXuX6X6X>X6XCXFXLXLXS.v *.6XFXtX5X8.R ,.&X&X` ,.jX%X{ :.q t LXdX,X,X,X,X6XLXA PXPXPXPXPXPXPXPXPXPXPXPXPXPXPXPXPX",
"PXPXPXPXPXPXPXPXPXPXp.LXLX,X,X,X>X1X6XS.I.@X,XFXFXCXoXI.k.*.*.B.LXFX,X,XbXH.R { {.kX,.{ :XdX{ L.+Xv m.LX6X,X,X,XLXz.y PXPXPXPXPXPXPXPXPXPXPXPXPXPXPXPXPX",
"PXPXPXPXPXPXPXPXPXPX;.LX>X,X,X,X1X5XFXz.@.*.*.*.-.-.%.*.u.S.LXLX>X&X1X>XkX|.! ( /.bX9.Q $XkX,.G.LXrXl f.LX6X,XLX^.8 PXPXPXPXPXPXPXPXPXPXPXPXPXPXPXPXPXPX",
"PXPXPXPXPXPXPXPXPXPX$.LX5X,X,X,X1X:X,XLXdX}.!.D.D.R.XXLXLXFX5X,X>X,X,X,XpX>X4.R /.bX0.{ 5X>X,./.kXFX6Xl M.LXuXBXg PXPXPXPXPXPXPXPXPXPXPXPXPXPXPXPXPXPXPX",
"PXPXPXPXPXPXPXPXPXPX$.NX6X,X,X,X1X:X,X,X5XVXFXFXFXnXdX6X,X,X,X,X>X6X,X,X>XbXv.Y K.bXG.9.bX>XK.$X6X,XLX$Xy U.LXs.M PXPXPXPXPXPXPXPXPXPXPXPXPXPXPXPXPXPXPX",
"PXPXPXPXPXPXPXPXPXPX+.&XjX<X,X,X:X,X,X,X,X,X:X:X,X,X,X,X,X,X,X,X,X,X,X,X,XkXK.Y K.bX#X XuX>XkXtX,X,X,XLXD.+.).f PXPXPXPXPXPXPXPXPXPXPXPXPXPXPXPXPXPXPXPX",
"PXPXPXPXPXPXPXPXPXPXH OXVX:X,X,X6X,X,X,X,X6X:X1X,X,X,X,X,X,X,X,X,X,X,X,X,XkX{.,.|.kXtXpX:X1X>X,X,X,X1X>XLXk.$ PXPXPXPXPXPXPXPXPXPXPXPXPXPXPXPXPXPXPXPXPX",
"PXPXPXPXPXPXPXPXPXPXH }.FX,X,X,X,X,X,X,X,X,X,X,X,X,X,X,X,X,X,X,X,X,X,X,X,X>X$X XtX>X,X,X,X,X,X,X,X,X,X,XjX<Xt PXPXPXPXPXPXPXPXPXPXPXPXPXPXPXPXPXPXPXPXPX",
"PXPXPXPXPXPXPXPXPXPXJ ].FX,X,X,X,X,X,X,X,X,X,X,X,X,X,X,X,X,X,X,X,X,X,X,X1X:XtXkX>X>X,X,X,X,X,X,X,X,X,X,X,XLXn.PXPXPXPXPXPXPXPXPXPXPXPXPXPXPXPXPXPXPXPXPX",
"PXPXPXPXPXPXPXPXPXPX@.E.FX,X,X,X,X,X,X,X,X,X,X,X,X,X,X,X,X,X,X,X,X,X,X,X:X,X,X,X>X,X,X,X,X,X,X,X,X,X,X,X,XdX&XM PXPXPXPXPXPXPXPXPXPXPXPXPXPXPXPXPXPXPXPX",
"PXPXPXPXPXPXPXPXPXPXG E.FX,X,X,X,X,X,X,X,X,X,X,X,X,X,X,X,X,X,X,X,X,X,X,XFXuX,X,X5X,X,X,X,X,X,X,X,X,X,X,X,X,XLXy.PXPXPXPXPXPXPXPXPXPXPXPXPXPXPXPXPXPXPXPX",
"PXPXPXPXPXPXPXPXPXPXw ].FX,X,X,X,X,X,X,X,X,X,X,X,X,X,X,X,X,X,X,X:X:X:X6X).OX6X,X,X,X,X,X,X,X,X,X,X,X,X,X,X,XLXS.x PXPXPXPXPXPXPXPXPXPXPXPXPXPXPXPXPXPXPX",
"PXPXPXPXPXPXPXPXPXPXw `.FX,X,X,X,X,X,X,X,X,X,X,X,X,X,X,X,X,X,X,X6X6X6X6XJ ^.FX,X,X,X,X,X,X,X,X,X,X,X,X,X,X,XaX6XJ PXPXPXPXPXPXPXPXPXPXPXPXPXPXPXPXPXPXPX",
"PXPXPXPXPXPXPXPXPXPXs W.LX,X,X,X,X,X,X,X,X,X,X,X,X,X,X,X,X,X,X,X:X:XjXoX@.}.jX<X,X,X,X,X,X,X,X,X,X,X,X,X,X,X,XLXp.PXPXPXPXPXPXPXPXPXPXPXPXPXPXPXPXPXPXPX",
"PXPXPXPXPXPXPXPXPXPXd U.FX,X,X,X,X,X,X,X,X,X,X,X,X,X,X,X,X,X,X,X:X6XnX^.@.,XuX,X,X,X,X,X,X,X,X,X,X,X,X,X,X,X,XLXM.O.PXPXPXPXPXPXPXPXPXPXPXPXPXPXPXPXPXPX",
"PXPXPXPXPXPXPXPXPXPXs I.LX,X,X,X,X,X,X,X,X,XjXdX,X,X,X,X,X,X,X,X:X:XLXI.-.FX,X,X,X,X,X,X,X,X,X,X,X,X,X,X,X,X,XFXT.H PXPXPXPXPXPXPXPXPXPXPXPXPXPXPXPXPXPX",
"PXPXPXPXPXPXPXPXPXPXd D.FX,X,X,X,X,X,X,XLXLX$XrXLX6X*X,X,X,X,X,X6X:XFXN.-.LX,X,X,X,X,X,X,X,X,X,X,X,X,X,X,X,X,XuX6Xc PXPXPXPXPXPXPXPXPXPXPXPXPXPXPXPXPXPX",
"PXPXPXPXPXPXPXPXPXPXd S.LX,X,X,X,X,X,XLX].K x C x.LXdX,X,X,X,X,X,X,XLXk.y.LX,X,X,X,X,X,X,X,X,X,X,X,X,X,X,X,X,X,XLX-.PXPXPXPXPXPXPXPXPXPXPXPXPXPXPXPXPXPX",
"PXPXPXPXPXPXPXPXPXPXd S.FX,X,X,X,X,XVX].y PXPXPXw u.LX5X,X,X,X,X,X6XLXs.z.LX,X,X,X,X,X,X,X,X,X,X,X,X,X,X,X,X,X,XLXk.PXPXPXPXPXPXPXPXPXPXPXPXPXPXPXPXPXPX",
"PXPXPXPXPXPXPXPXPXPXd D.LX,X,X,X1X1XLX$.PXPXPXPXPXa S.FX,X,X,X,X,X>XLX-.M.LX,X,X,X,X,X,X,X,X,X,X,X,X,X,X,X,X,X,XLXh.PXPXPXPXPXPXPXPXPXPXPXPXPXPXPXPXPXPX",
"PXPXPXPXPXPXPXPXPXPXd I.FX,X,X,X>X6XuXA PXPXPXPXPXPXp.LX,X,X,X,X,XuXdX*.U.FX,X,X,X,X,X,X,X,X,X,X,X,X,X,X,X,X,X,XLXn.6.PXPXPXPXPXPXPXPXPXPXPXPXPXPXPXPXPX",
"PXPXPXPXPXPXPXPXPXPXs U.LX,X,X,X,XnX[.$.PXPXPXPXPXPXf.LX,X,X,X,X,XCXoX-.@XdX,X6XFXLXLXLXLXFX,X,X,X,X,X,X,X,X,X,XLXS.H PXPXPXPXPXPXPXPXPXPXPXPXPXPXPXPXPX",
"PXPXPXPXPXPXPXPXPXPXw ~.FX,X,X,X,XLXD.f PXPXPXPXPXPXf.LX>X,X,X,X,XFXD.;.LXLXLXNX_.M.g.m.j.}.LX6X,X,X,X,X,X,X,X,XFXE.j PXPXPXPXPXPXPXPXPXPXPXPXPXPXPXPXPX",
"PXPXPXPXPXPXPXPXPXPXw `.FX,X,X,X,XLXM.Z PXPXPXPXPXPXi.LX1X:X6X,X,XLXm.O.^.M.p.$.C J PXPXPXs n.LX5X,X,X,X,X,X,X,XLX).h PXPXPXPXPXPXPXPXPXPXPXPXPXPXPXPXPX",
"PXPXPXPXPXPXPXPXPXPXw `.FX,X,X,X,XLXf.PXPXPXPXPXPXPXi.LX>X6X,X,X,XLXf.= $.a PXPXPXPXPXPXPXPX= n.LX,X,X,X,X,X,X,XFX_.h PXPXPXPXPXPXPXPXPXPXPXPXPXPXPXPXPX",
"PXPXPXPXPXPXPXPXPXPXw _.FX,X,X,X5XLXi.PXPXPXPXPXPXPXp.FX1X:X>X<X1XLX6.PXPXPXPXPXPXPXPXPXPXPXPX0 ].CX,X,X,X,X,X,XFX).f PXPXPXPXPXPXPXPXPXPXPXPXPXPXPXPXPX",
"PXPXPXPXPXPXPXPXPXPX0 R.LX,X,X,X6XCXJ PXPXPXPXPXPXPXf.LX>X,X6X:XjX}.H PXPXPXPXPXPXPXPXPXPXPXPXPXi.LX,X,X,X,X,X,XLXW.g PXPXPXPXPXPXPXPXPXPXPXPXPXPXPXPXPX",
"PXPXPXPXPXPXPXPXPXPXj Z.LX,X5X,XFX_.x PXPXPXPXPXPXPXf.LX>X,X,X,XLXn.N PXPXPXPXPXPXPXPXPXPXPXPXPXN 6XdX,X,X,X,X,XLXS.x PXPXPXPXPXPXPXPXPXPXPXPXPXPXPXPXPX",
"PXPXPXPXPXPXPXPXPXPXPXb.LX,X>X,XLXz.O.PXPXPXPXPXPXPXz.LX5X,X,X,XLX%.PXPXPXPXPXPXPXPXPXPXPXPXPXPXG I.FX,X,X,X,X,XLXN.H PXPXPXPXPXPXPXPXPXPXPXPXPXPXPXPXPX",
"PXPXPXPXPXPXPXPXPXPXPXi.LX:X:XdXLXx PXPXPXPXPXPXPXPXm.LX:X1X,XFX_.x PXPXPXPXPXPXPXPXPXPXPXPXPXPXPXp.LX,X,X,X,X,XLXj.6.PXPXPXPXPXPXPXPXPXPXPXPXPXPXPXPXPX",
"PXPXPXPXPXPXPXPXPXPXPXN FXFXFXLXe.Z PXPXPXPXPXPXPXPXm.LX1X:X>XLXF PXPXPXPXPXPXPXPXPXPXPXPXPXPXPXPX%.LX,X,X,X,X,XLXp.PXPXPXPXPXPXPXPXPXPXPXPXPXPXPXPXPXPX",
"PXPXPXPXPXPXPXPXPXPXPXH -.BX|.e.t PXPXPXPXPXPXPXPXPXp.LXuXdXLXn.a PXPXPXPXPXPXPXPXPXPXPXPXPXPXPXPXH @XVX,X,X,X,XLXe.PXPXPXPXPXPXPXPXPXPXPXPXPXPXPXPXPXPX",
"PXPXPXPXPXPXPXPXPXPXPXPXC y N PXPXPXPXPXPXPXPXPXPXPXa I.LXFXk.0 PXPXPXPXPXPXPXPXPXPXPXPXPXPXPXPXPXC B.LX,X,X1X6XFX+.PXPXPXPXPXPXPXPXPXPXPXPXPXPXPXPXPXPX",
"PXPXPXPXPXPXPXPXPXPXPXPXPXPXPXPXPXPXPXPXPXPXPXPXPXPXPXa +.H h PXPXPXPXPXPXPXPXPXPXPXPXPXPXPXPXPXPXPX=.LX>X,X:XFX].N PXPXPXPXPXPXPXPXPXPXPXPXPXPXPXPXPXPX",
"PXPXPXPXPXPXPXPXPXPXPXPXPXPXPXPXPXPXPXPXPXPXPXPXPXPXPXPXPXPXPXPXPXPXPXPXPXPXPXPXPXPXPXPXPXPXPXPXPXPXt oXFX,X,XLXf.PXPXPXPXPXPXPXPXPXPXPXPXPXPXPXPXPXPXPX",
"PXPXPXPXPXPXPXPXPXPXPXPXPXPXPXPXPXPXPXPXPXPXPXPXPXPXPXPXPXPXPXPXPXPXPXPXPXPXPXPXPXPXPXPXPXPXPXPXPXPXPX$.LXFXLXeXa PXPXPXPXPXPXPXPXPXPXPXPXPXPXPXPXPXPXPX",
"PXPXPXPXPXPXPXPXPXPXPXPXPXPXPXPXPXPXPXPXPXPXPXPXPXPXPXPXPXPXPXPXPXPXPXPXPXPXPXPXPXPXPXPXPXPXPXPXPXPXPXh i.NX$Xz PXPXPXPXPXPXPXPXPXPXPXPXPXPXPXPXPXPXPXPX",
"PXPXPXPXPXPXPXPXPXPXPXPXPXPXPXPXPXPXPXPXPXPXPXPXPXPXPXPXPXPXPXPXPXPXPXPXPXPXPXPXPXPXPXPXPXPXPXPXPXPXPXPXe l y PXPXPXPXPXPXPXPXPXPXPXPXPXPXPXPXPXPXPXPXPX",
"PXPXPXPXPXPXPXPXPXPXPXPXPXPXPXPXPXPXPXPXPXPXPXPXPXPXPXPXPXPXPXPXPXPXPXPXPXPXPXPXPXPXPXPXPXPXPXPXPXPXPXPXPXPXPXPXPXPXPXPXPXPXPXPXPXPXPXPXPXPXPXPXPXPXPXPX"
};
