/* XPM */
static char *_08986546c8941cd9d2e09cf5154e983Rnpbd14bdeYhQIyu[] = {
/* columns rows colors chars-per-pixel */
"76 76 145 2 ",
"   c #FFFFFF",
".  c #251A1D",
"X  c #2A1C1C",
"o  c #271C25",
"O  c #2D1E24",
"+  c #311F22",
"@  c #342223",
"#  c #3C2521",
"$  c #482817",
"%  c #4C2B1E",
"&  c #542E1C",
"*  c #5E291B",
"=  c #59301C",
"-  c #602B1B",
";  c #633314",
":  c #65341A",
">  c #693619",
",  c #6D3819",
"<  c #743A16",
"1  c #793C14",
"2  c #422720",
"3  c #7D4947",
"4  c #B72A0A",
"5  c #BA2D0A",
"6  c #BD330B",
"7  c #BD3B08",
"8  c #C1350B",
"9  c #C33B0A",
"0  c #C93E09",
"q  c #8B430F",
"w  c #874214",
"e  c #8C4413",
"r  c #934711",
"t  c #964811",
"y  c #994910",
"u  c #A44B06",
"i  c #A94D07",
"p  c #BC4306",
"a  c #B44C01",
"s  c #BA4D02",
"d  c #AD510D",
"f  c #B65200",
"g  c #B95300",
"h  c #B05109",
"j  c #B9560B",
"k  c #944D2B",
"l  c #9E5232",
"z  c #CF4607",
"x  c #CE4B06",
"c  c #C64008",
"v  c #CA4208",
"b  c #D34C06",
"n  c #C15700",
"m  c #C55901",
"M  c #CC5D04",
"N  c #C45B08",
"B  c #D45305",
"V  c #DB5505",
"C  c #D25E00",
"Z  c #DE5A03",
"A  c #E25C03",
"S  c #C36107",
"D  c #C56408",
"F  c #D46003",
"G  c #DD6401",
"H  c #D7670F",
"J  c #D96B17",
"K  c #D96C19",
"L  c #E26602",
"P  c #E46700",
"I  c #E66700",
"U  c #E06604",
"Y  c #E36500",
"T  c #EB6601",
"R  c #E76800",
"E  c #E76802",
"W  c #E76901",
"Q  c #E86800",
"!  c #E96800",
"~  c #EA6900",
"^  c #EA6901",
"/  c #EB6A01",
"(  c #EB6A01",
")  c #E86802",
"_  c #ED6A00",
"`  c #ED6B00",
"'  c #EC6A00",
"]  c #EE6B00",
"[  c #EF6B00",
"{  c #EF6C00",
"}  c #EE6B00",
"|  c #F06C00",
" . c #F16C00",
".. c #F06D00",
"X. c #F16D00",
"o. c #F26D00",
"O. c #F36D00",
"+. c #F06E00",
"@. c #F16E00",
"#. c #F16F00",
"$. c #F36E00",
"%. c #F36F00",
"&. c #F46D00",
"*. c #F56D00",
"=. c #F56E00",
"-. c #F46E00",
";. c #F66E00",
":. c #F26D00",
">. c #F86F00",
",. c #F96F00",
"<. c #EF7406",
"1. c #F47100",
"2. c #F47000",
"3. c #F97000",
"4. c #FA7000",
"5. c #FB7000",
"6. c #FC7100",
"7. c #FF7400",
"8. c #F87100",
"9. c #F07A09",
"0. c #A2594D",
"q. c #A55D57",
"w. c #A35D59",
"e. c #E77957",
"r. c #E57E7A",
"t. c #DF8716",
"y. c #F1810E",
"u. c #E38D19",
"i. c #F28610",
"p. c #F49117",
"a. c #F49519",
"s. c #F59A1C",
"d. c #F09D20",
"f. c #F7A624",
"g. c #F7A925",
"h. c #FAAC26",
"j. c #F9AF28",
"k. c #FBB127",
"l. c #FFB428",
"z. c #FC8462",
"x. c #EE827A",
"c. c #FF8E88",
"v. c #FF9388",
"b. c #FF918B",
"n. c #FF968B",
/* pixels */
"                                                                                                                                                        ",
"                                                                                                                                                        ",
"                                                                                                                                                        ",
"                                                                                                                                                        ",
"                                                                                                                                                        ",
"                                                                                                                                                        ",
"                                                                                                                                                        ",
"                                                                                                                          } } o.M f g g                 ",
"                                                                                                                          } } o.M s g g                 ",
"                                                                                                                          } } o.M f g g                 ",
"                                                                                                                          } } } ^ I ^ F f g g           ",
"                                                                                                                          } } } | | | G f g g           ",
"                                                                                                                          } } } ] ] | G a f g           ",
"                                                                                                                                ] ] ] ^ F G C g g g     ",
"                                                                                                                                ] ] ] ] | ;.] g g g     ",
"                                                                                                                                ] ] ] { { { ^ g f g     ",
"                                                                                                                                  ] ] ] ] | ] g g g     ",
"                        g g g                           g g g g                                                                         ] { ] g g g     ",
"                        g g g                           g g g f                                                                         ] { ^ g g g     ",
"                        g g g                           g g g g                                                                         ] { ^ g f g     ",
"                  g g s 6 6 6 s g g               g g g p 6 6 p g g g                                                                   ] ] ] g g g     ",
"                g g g s 6 6 6 g g g               g g g 7 6 8 p g g g                                                                   ] | ] g f g     ",
"                g g g s 6 6 6 a f f               f f f 7 6 6 p g g g                                                                   ] | ^ g g g     ",
"                g g g n A A A G G G ) o.} } } o.] U G U c 6 6 p g g g                                                                   ] ] ] g g g     ",
"                g g f m o.o.2.} | | { ] ] ] ] ] | | | ;.v 6 6 p g g g                                                                   ] { ] g g g     ",
"                  f f n o.} } } { ] ] ] ] ] ] ] ] ] ] | c 5 6 7 f g f                                                                   ] { ] g f g     ",
"                G M M F } } } } ] ] ] ] ] ] ] ] ] ] ] { V x x B F M M                                                                 ] ] { ^ g g g     ",
"          ] ] ] | ;.| | } } } } ] ] ] ] ] ] ] ] ] ] ] ] } o.2.o.<.| I f g g                                                     ] ] ] ] ] { ^ g f g     ",
"          ;.{ ] | ;.*.o.} } } } ] ] ] ] ] ] ] ] ] ;.*.*.o.} } } ] | E g g n                                                     ] ] ] ] | | ] g g g     ",
"          U | | U C F F } } } } ] ] ] ] ] ] ] ] / F C H ) } } } ] | L u i i                                                     ] ] ] ] E E I g g g     ",
"    # # @ N ;.3.t @ @ : *.} } } ] ] ] ] ] ] ] ;.G 2 # @ N *.} } ] ;.N # # # # # # # 2 # #                                       ] ] | G f g g           ",
"    # # # N ;.3.r O @ : *.} } o.{ { ] ] ] ] ] | G # @ @ N *.} } ] ;.M @ # # # # # # # # #                                       ] ] | G f g g           ",
"    2 # @ N ;.3.r @ @ : ;.] ] { o.o.} } } } } o.U 2 @ @ N *.] ] ] ;.N # # # # # # # # # 2                                       ] ] ] G f g g           ",
"          G | ] G M M F { | ^ , = & j *.} } } } } M M M I | ] ] ] { E M M M u u i 1                                       ] ] ] ] ] | G f g g           ",
"          ;.] ] o.*.;.| ] { T % @ O d *.} } } } } *.;.;.| ] ] ] ] ] { ;.;.| m g g                                         ] ] ] ] ] 2.G f g g           ",
"          | ] ] } } ] | 3.6.*.$ . o h 7.4.1.} } } } ] ] ] ] ] ] ] ] { 3.6.;.M n m                                         ] ] ] <.2.2.G f g g           ",
"    # # @ H ;.] } } o.F e e e q.w.w.k e w d *.} } } } } ] ] ] ] ] | G e e e 1 < 1 & @ @ 1 ,.] ] ] ] ] ] ] ] ] ] } } } } ] ] ] | V b b x                 ",
"    # # @ N ;.] } } >.N O O @ x.v.n.3 . o < 4.} } } } } ] ] ] ] ] ;.N o @ + @ @ @ # # @ < ,.] ] ] ] ] ] ] ] ] ] } } } } ] ] { | x 5 6 5                 ",
"    # # @ N *.} } } *.N O @ @ r.c.v.3 X O < 4.} } } } } ] ] ] ] ] ;.N @ @ @ @ @ @ @ @ O < 4.] ] ] ] ] ] ] ] ] ] } } } } } o.| 1.b 6 6 6                 ",
"    # # @ N *.} } } o.F : > < e.z.z.l ; : y *.} } } } } ] ] ] ] { | F > > , - * * : , : t *.] ] ] ] ] ] ] ] ] ] } } } } } A A Y z 6 8 6                 ",
"          | | { ] ] ] | ;.;.;.] ] _ | *.;.| | ] ] ] ] ] ] ] ] ] ] ] | ;.;.;.0 8 8 A ,.>.| ] ] ] ] ] ] ] ] ] ] ] } } ] { ] 9 6 6                         ",
"          | ] ] ] ] ] ] | ] ] ] ] ] ] ] | ] ] ] ] ] ] ] ] ] ] ] ] ] ] { | | 9 5 5 V o. .] ] ] ] ] ] ] ] ] ] ] ] } } { | ] 9 6 6                         ",
"          ] ] ] ] ] ] ] ] ] ] ] ] ] ] ] ] ] ] ] ] ] ] ] ] ] ] ] ] ] ] ^ } ) 9 8 6 V o.} ] ] } } ] ] ] ] ] ] ] ] } ] ^ { ] 9 6 6                         ",
"                ] ] ] ] ] ] ] ] ] ] ] ] ] ] ] ] ] ] ] ] ] ] ] ] ] | Y 8 8 9 Y T ) } } } ] ] } } ] ] ] ] ] ] ] ] o.E g g g                               ",
"                  ] ] ] ] ] ] ] _ | ] | ] T | | ] ] ] ] ] ] ] ] ] | Y 6 6 6 ) |  .} } } } } } } ] ] ] ] ] ] ] ] ] I f g g                               ",
"                ] ] ] ] ] ] ] ] ] _ _ _ _ _ ] ] ] ] ] ] ] ] ] ] { | A 6 5 6 ) { } }  .} } } } } ] ] ] ] ] ] ] ] | L g g g                               ",
"                        ] ] _ ] ] _ i.s.a.i._ ] ] ] ] ] ] ] ] ] ] { ) Z Z A ] ] } } } } } } } } ] ] ] ] ] ] ] ] | I f g g                               ",
"                        ] ] | _ | T p.j.j.p._ ] ] ] ] ] ] ] ] ] ] ] | | | | ] ] } } } } } } } } ] ] ] ] ] ] ] ] | L g g g                               ",
"                        ] ] ] ] | T p.h.f.p.T T T  . .} ] ] ] ] ] ] ] ] ] ] ] ] ] ] ] ] ] ] ] ] ] ] ] ] ] ] ] ] | I g g g                               ",
"                        ] ] } 9.i.9.s.f.g.d.9.i.i. .} } ] ] ] ] ] ] ] ] ] ] ] ] ] ] ] ] ] ] ] ] ] ] ] ] ] ] ] ] ] I g g g                               ",
"                        ] _ } f.h.g.g.f.f.g.h.h.g.} T  .] ] ] ] ] ] ] ] ] ] ] ] ] ] ] ] ] ] ] ] ] ] ] ] ] ] ] ] | L g g g                               ",
"                        | | | f.g.f.g.f.f.f.g.f.d.} } T ] ] ] ] ] ] ] ] ] ] ] ] ] ] ] ] ] ] ] ] ] ] ] ] ] ] ] ] | I a f f                               ",
"                        I I ^ f.h.f.f.g.f.f.g.g.f.<.<.<.| T ] ] ] ] ] ] ] ] ] ] ] ] ] ] ] ] ] ] ] ] ] ] ] ] ] ] ] I n n n                               ",
"                        g s g d.f.f.f.f.f.g.f.f.g.g.g.g.9.T ] ] ] ] ] ] ] ] ] ] ] ] ] ] ] ] ] ] ] ] ] ] ] ] ] ] ] ] ] ] ] n f g                         ",
"                        g f g d.h.f.f.f.g.f.f.f.f.g.g.g.9.*.| ] ] ] ] ] ] ] ] ] ] ] ] ] ] ] ] ] ] ] ] ] ] ] ] ] ] ] ] ] ] n f g                         ",
"                        g f g d.h.g.h.f.g.f.g.f.f.f.f.g.9.T | _ ] ] ] ] ] ] ] ] ] ] ] ] ] ] ] ] ] ] ] ] ] ] ] ] ] ] ] ] ] n g g                         ",
"                              S D S u.h.f.f.f.f.g.g.g.g.9._ ] ] ] ] ] ] ] ] ] ] ] ] ] ] ] ] ] ] ] ] { { ] ] ] ] ] ] ] ] ] n f g                         ",
"                              g a a u.g.f.f.f.f.f.g.g.g.9._ ] ] ] ] ] ] ] ] ] ] ] ] ] ] ] ] { { ] ] { | ] ] ] { ] ] ] ] ] n f g                         ",
"                              f f a u.l.h.k.h.k.h.h.j.j.9.T ] ] ] ] | | | ;.| | | ;.| | | | ;.| | | | | | | { { ] ] ] ] ] n g g                         ",
"                              C F C H K J J J J J J K K } | ] ] ] ] ^ C C C C C C C C C C C C C C F C C C C L | ] ] ] ] ] n f g                         ",
"                              | | 1.z 4 5 5 5 6 5 5 5 4 A | ] ] ] | L f f f f f f f f f f f f f f f f f f a M | ] ] ] ] ] n f g                         ",
"                              | { | x 5 6 6 6 6 8 6 8 5 Y | | ] ] ] L g g g g g g g f g g f g g g g g f g f F | ] ] | ] { n f g                         ",
"                              { ] | B v v 0 7 7 7 v v 0 Z L L ^ | | L g g g g g g g g g g g g g g g g s s p C | | ] L L I g g g                         ",
"                                    { { | G g g g { | ;.m f f g                                       6 8 6 b | | L f g f                               ",
"                                    ] ] | G f g g ] | | m g g g                                       6 6 6 b 2.| I g g g                               ",
"                                    ] ] | G f g g ] | | m a g                                         8 8 6 b { ] L g g g                               ",
"                                            f f n ] | |                                                     6 9 9 9 g g g                               ",
"                                            g g g ] ] ]                                                       6 6 7 g g g                               ",
"                                            g g g ] ] ]                                                       6 6 p g g g                               ",
"                                                                                                                                                        ",
"                                                                                                                                                        ",
"                                                                                                                                                        ",
"                                                                                                                                                        ",
"                                                                                                                                                        ",
"                                                                                                                                                        ",
"                                                                                                                                                        "
};
