/* XPM */
static char *_62c8df8668c4ef2fe581715f57e21adUlujnUAq9kZUHQdC[] = {
/* columns rows colors chars-per-pixel */
"76 76 253 2 ",
"   c None",
".  c #251A1D",
"X  c #2A1C1C",
"o  c #271C25",
"O  c #2F1F23",
"+  c #2A1D25",
"@  c #2B1E24",
"#  c #2C1E24",
"$  c #2E1F24",
"%  c #311F22",
"&  c #312023",
"*  c #332123",
"=  c #342123",
"-  c #352223",
";  c #372222",
":  c #372422",
">  c #372326",
",  c #392322",
"<  c #3A2421",
"1  c #392422",
"2  c #3B2422",
"3  c #3D2521",
"4  c #3A2426",
"5  c #4A2A1B",
"6  c #542E1C",
"7  c #5E291B",
"8  c #59301C",
"9  c #602B1B",
"0  c #633314",
"q  c #67321A",
"w  c #64341A",
"e  c #66351A",
"r  c #693618",
"t  c #683619",
"y  c #6B3819",
"u  c #6F391A",
"i  c #743913",
"p  c #733A17",
"a  c #793B13",
"s  c #7B3C12",
"d  c #783C16",
"f  c #422720",
"g  c #7D4947",
"h  c #B72A0A",
"j  c #B82B09",
"k  c #BA2D09",
"l  c #B92F0D",
"z  c #BA310B",
"x  c #BC310B",
"c  c #BC330B",
"v  c #BE330B",
"b  c #BD350B",
"n  c #BE350B",
"m  c #BD360A",
"M  c #BB310C",
"N  c #BB320C",
"B  c #BC310C",
"V  c #BC330C",
"C  c #BE330C",
"Z  c #BE340C",
"A  c #BD3B09",
"S  c #BD380A",
"D  c #BC3C08",
"F  c #BE3D08",
"G  c #BC3E08",
"H  c #C0330B",
"J  c #C1360B",
"K  c #C1390A",
"L  c #C3390A",
"P  c #C33B0A",
"I  c #C43B09",
"U  c #C13F08",
"Y  c #C53D0A",
"T  c #C93E09",
"R  c #8B430F",
"E  c #874214",
"W  c #8A4313",
"Q  c #8C4413",
"!  c #8D4514",
"~  c #934711",
"^  c #964811",
"/  c #994910",
"(  c #A34B07",
")  c #A84D07",
"_  c #B94006",
"`  c #BC4306",
"'  c #BC4405",
"]  c #B24A00",
"[  c #B74903",
"{  c #B14C00",
"}  c #B64E01",
"|  c #BA4B03",
" . c #B94F01",
".. c #BA4D03",
"X. c #BA4E02",
"o. c #AD510D",
"O. c #B25000",
"+. c #B55100",
"@. c #B65100",
"#. c #B55200",
"$. c #B75200",
"%. c #B65300",
"&. c #B95101",
"*. c #B85300",
"=. c #B95300",
"-. c #BA5300",
";. c #B95400",
":. c #BB5501",
">. c #BC5400",
",. c #BE5500",
"<. c #BD5600",
"1. c #BF5600",
"2. c #B05109",
"3. c #B9560B",
"4. c #99502F",
"5. c #CF4607",
"6. c #CE4B06",
"7. c #C64008",
"8. c #C94109",
"9. c #C94208",
"0. c #CB4208",
"q. c #CC4508",
"w. c #D24A07",
"e. c #D24C07",
"r. c #D54D06",
"t. c #C25501",
"y. c #C15700",
"u. c #C55700",
"i. c #C25800",
"p. c #C55800",
"a. c #C65900",
"s. c #C65A00",
"d. c #C75B07",
"f. c #CA5A00",
"g. c #CD5C00",
"h. c #CE5C00",
"j. c #CF5E00",
"k. c #C95C07",
"l. c #CC5D07",
"z. c #CD5E07",
"x. c #C35A08",
"c. c #C65B08",
"v. c #C65C08",
"b. c #D45305",
"n. c #DB5505",
"m. c #D35A02",
"M. c #D05D00",
"N. c #D05E00",
"B. c #D25E00",
"V. c #D55F00",
"C. c #D05F06",
"Z. c #DE5A03",
"A. c #DB5C02",
"S. c #DE5904",
"D. c #E15C03",
"F. c #E45F03",
"G. c #E15A04",
"H. c #C46207",
"J. c #D56000",
"K. c #D76100",
"L. c #D36005",
"P. c #D16006",
"I. c #D26006",
"U. c #D56106",
"Y. c #DB6300",
"T. c #DD6300",
"R. c #DE6300",
"E. c #DD6500",
"W. c #DF6400",
"Q. c #DF6600",
"!. c #D96304",
"~. c #DC6404",
"^. c #DE6504",
"/. c #D7670F",
"(. c #D96B17",
"). c #D96C19",
"_. c #E56102",
"`. c #E16500",
"'. c #E26400",
"]. c #E26600",
"[. c #E16603",
"{. c #E46600",
"}. c #E66700",
"|. c #E06604",
" X c #E86302",
".X c #EC6300",
"XX c #EA6701",
"oX c #E96502",
"OX c #ED6700",
"+X c #E76800",
"@X c #E76802",
"#X c #E86800",
"$X c #EA6900",
"%X c #EB6A01",
"&X c #E86802",
"*X c #ED6900",
"=X c #EE6800",
"-X c #ED6A00",
";X c #EE6B00",
":X c #EF6B00",
">X c #EF6C00",
",X c #EE6D01",
"<X c #E96B06",
"1X c #F06B00",
"2X c #F06C00",
"3X c #F26D00",
"4X c #F16E00",
"5X c #F36E00",
"6X c #F46D00",
"7X c #F56E00",
"8X c #F66E00",
"9X c #F86F00",
"0X c #EF7406",
"qX c #F27000",
"wX c #F47000",
"eX c #F97100",
"rX c #FA7000",
"tX c #FC7100",
"yX c #FF7400",
"uX c #F07A09",
"iX c #F17C0A",
"pX c #A35C54",
"aX c #E97E6E",
"sX c #DF8716",
"dX c #F1800D",
"fX c #F1800F",
"gX c #F1830F",
"hX c #E38D19",
"jX c #F28610",
"kX c #F49117",
"lX c #F49519",
"zX c #F59A1C",
"xX c #F09D20",
"cX c #F5A020",
"vX c #F6A120",
"bX c #F6A221",
"nX c #F6A322",
"mX c #F6A422",
"MX c #F7A724",
"NX c #F7A925",
"BX c #F7AA25",
"VX c #F9A925",
"CX c #F9AA25",
"ZX c #F8AB26",
"AX c #FAAB26",
"SX c #F8AD27",
"DX c #FBAC26",
"FX c #FBAF26",
"GX c #F9AF28",
"HX c #FFB428",
"JX c #FB8361",
"KX c #FC8563",
"LX c #FF928A",
/* pixels */
"                                                                                                                                                        ",
"                                                                                                                                                        ",
"                                                                                                                                                        ",
"                                                                                                                                                        ",
"                                                                                                                                                        ",
"                                                                                                                                                        ",
"                                                                                                                                                        ",
"                                                                                                                          :X1X2Xg.*.*.>.                ",
"                                                                                                                          :X:X;Xh.+.*.*.                ",
"                                                                                                                          :X;X;Xh.} *.>.                ",
"                                                                                                                          ;X;X2X%X[.}.Y.*.*.*.          ",
"                                                                                                                          ;X;X;X2X2X2XE.*.*.*.          ",
"                                                                                                                          ;X;X;X;X;X;XY.O.} +.          ",
"                                                                                                                                ;X;X;X%XJ.Y.V.>.*.*.    ",
"                                                                                                                                :X%X:X2X2X7X:X*.*.*.    ",
"                                                                                                                                :X:X:X;X;X;X:X>.*.*.    ",
"                                                                                                                                  ;X;X;X;X;X%X;.*.*.    ",
"                        *.*.*.                          >.*.*.>.                                                                        ;X2X%X>.*.*.    ",
"                        >.*.>.                          *.*.>.*.                                                                        ;X2X%X>.*.>.    ",
"                        *.*. .                          *. .*.*.                                                                        ;X;X%X;.*.*.    ",
"                  *.;...n n S  .;.*.              *.*.;.G n n ` ;.*.*.                                                                  ;X2X%X>.*.*.    ",
"                >.*.;...n v n  .;.*.              *.*.;.S V n ` ;.;.*.                                                                  ;X;XoX>.*.*.    ",
"                *.*.*.| z v v } +.+.              +.+.%.F n H ` *.*.*.                                                                  ;X;X%X>.*.>.    ",
"                *.*.*.t.G.G.G.E.[.E.%X;X:X:X1X2X:XE.[.E.7.n V ` ;.>.*.                                                                  ;X2X%X>.*.*.    ",
"                *.*.*.a.wX2XqX2X1X:X;X;X;X;X;X;X;X;X2X7X8.V V ` ;.*.*.                                                                  ;X;X%X;.*.*.    ",
"                  +.O.i.;X;X;X;X:X:X;X;X;X;X;X;X;X;X;X;XT M l _ +.*.+.                                                                  ;X2X%X>.*.*.    ",
"                E.h.h.J.;X;X;X;X;X;X;X;X;X;X;X%X;X;X;X;Xn.e.e.b.N.N.f.                                                                ;X;X2X%X>.*.*.    ",
"          :X:X:X2X2X2X2X;X;X;X;X;X;X;X;X;X;X;X:X;X;X;X;X2XqX2X2X2X7X}.*.*.*.                                                    ;X;X;X%X;X;X%X;.*.>.    ",
"          7X2X:X2X7X7X2X:X:X%X;X;X;X;X;X;X;X:X:X2X7X7X7X:X:X:X%X;X2X}.;.t.t.                                                    %X:X:X:X2X2X:X>.*.*.    ",
"          |.2X2X[.C.C.!.:X:X:X:X;X;X;X;X;X;X:X:X%XU.P.P.}.:X:X:X;X2XE.( ) )                                                     :X:X:X%X+XoX[.>.*.*.    ",
"    3 3 * x.7XrX^ * ; e 2X1X:X:X;X;X;X;X;X;X;X7X~.f 2 : x.7X:X:X;X7Xk.2 3 3 2 3 3 3 3 3 3                                       :X:X2XT.+.;.>.          ",
"    3 3 , v.7XrX~ $ * w 7X1X:X:X2X;X;X;X;X;X;X7X~.f : ; x.7X:X:X;X7Xk.* 2 2 3 3 3 3 3 3 3                                       :X:X2XT.*.;.*.          ",
"    3 3 = v.7XrX^ % * e 2X:X:X:X2X;X:X:X:X:X2X2X~.f 1 = x.wX;X;X;X7Xk.; 2 3 3 3 3 2 3 3 3                                       ;X;X2XE.*.*.>.          ",
"          ~.2X;X~.k.z.U.2X;X%Xu 8 6 3.7X:X:X:X;X%XP.z.z.+X;X;X;X;X;X%Xz.z.z.) ( ) s                                       ;X;X;X;X;X2XE.*.*.*.          ",
"          7X:X:X2X7X7X7X;X2X%X5 * + o.rX:X%X:X%X:X7X2XwX2X:X;X;X;X;X;XwX9X2Xa.*.>.                                        ;X;X;X;X;X1XT.*.*.*.          ",
"          7X:X:X;X;X;X2XrXtX7X5 X . o.yXrX7X:X:X:X:X:X:X:X:X;X;X;X;X2XrXrXrXg.>.u.                                        ;X;X;X2X2X7XE.*.*.*.          ",
"    3 2 ; k.wX:X;X;X2X~.W Q Q pXpXpX4.R E o.7X:X:X%X;X;X;X;X;X;X;X2X!.W Q W a i d 6 ; * d wX;X;X:X:X;X;X;X;X;X;X;X;X;X;X;X;X;X2XS.w.r.6.                ",
"    3 3 : v.7X1X;X;X7Xc.@ O 4 aXLXLXg . o p 9X:X:X:X;X;X;X;X;X;X;X7Xc.$ * * = ; = 2 3 * d rX;X;X:X:X;X;X;X;X;X;X;X;X;X;X;X;X;X2X6.l V V                 ",
"    3 3 : v.7X:X:X:X7Xx.O % 4 aXLXLXg X + p wX;X;X;X;X;X;X;X;X;X;X7Xd.O = = : : : = ; + p 9X;X;X:X;X;X;X;X;X;X;X;X;X;X;X;X2XqXwXe.V n n                 ",
"    3 2 * v.7X%X:X:X7XC.e t u aXJXKX4.0 e / 7X;X;X;X;X;X;X;X;X;X:X7XP.y y y 7 7 7 q t e ^ 7X;X;X%X;X;X;X;X;X;X;X;X;X;X;X;XD.D._.q.V n n                 ",
"          2X:X:X;X;X;X2X7X7X7X:X:X:X2X7X7X2X;X;X;X;X;X;X;X;X;X;X:X:X;X2X7X7XT J H G.rX7X2X;X;X;X;X;X;X;X;X;X;X;X;X;X;X;X;XY M M                         ",
"          2X:X:X;X;X;X;X2X;X;X;X:X:X:X:X;X;X;X;X;X;X;X;X;X;X;X;X:X:X;X;X:X:XK v z n.7X;X;X;X;X;X;X;X;X;X;X;X;X;X;X;X;X;X;XY V n                         ",
"          :X:X:X;X;X;X;X:X:X:X;X:X:X:X:X;X;X;X;X;X;X;X;X;X;X;X;X;X;X;X%X%X%XY J n S.2X;X;X;X;X;X;X;X;X;X;X;X;X;X;X;X:X:X%XY c n                         ",
"                ;X;X;X;X:X:X%X;X%X:X%X:X;X;X;X;X;X;X;X;X;X;X;X;X;X2X_.K K K _.%X%X:X;X;X;X;X;X;X;X;X;X;X;X;X;X;X2X+X;.>.>.                              ",
"                  ;X;X;X;X;X%X:X;X;X:X:X;X:X:X:X;X;X;X;X;X;X;X;X;X2X_.V v n oX2X:X:X;X;X;X;X;X;X;X;X;X;X%X;X;X;X1X}.*.*.;.                              ",
"                ;X;X;X;X;X;X;X:X;X;XoX%X:X:X:X:X;X;X;X;X;X;X;X;X;X2X_.z z z _.:X:X:X;X;X;X;X;X;X;X;X;X;X:X:X;X;X1X}.*.*.;.                              ",
"                        ;X;X%X:X;X:XgXlXlXjXoX:X;X;X;X;X;X;X;X;X;X;X%XZ.Z.Z.:X:X%X:X%X;X;X;X;X;X;X;X;X;X%X:X:X:X2X}.*.*.*.                              ",
"                        ;X;X:X:X:XOXlXHXFXlXoX:X;X;X;X;X;X;X;X;X;X;X:X2X2XqX:X:X:X:X;X;X;X;X;X;X;X;X;X;X:X:X:X:X1X[.*.*.*.                              ",
"                        :X:X:X%XOX.XkXBXBXkX XOXOX:X:X:X;X;X;X;X;X;X;X;X;X;X;X;X;X;X;X;X;X;X;X;X;X;X;X;X;X;X;X;X;X}.*.*.>.                              ",
"                        :X:X;XiXfXjXzXBXBXzXiXjXjX:X:X:X;X;X;X;X;X;X;X;X;X;X;X;X;X;X;X;X;X;X;X;X;X;X;X;X;X;X;X;X2X[.*.*.*.                              ",
"                        ;X;X;XMXDXBXBXMXMXBXVXSXMX;X:X%X;X;X;X%X;X;X;X;X;X;X;X;X;X;X;X;X;X;X;X;X;X;X;X;X;X;X;X;X2X[.*.*.*.                              ",
"                        2X2X;XcXBXMXMXMXMXMXMXBXcX:XOXOX;X;X;X:X;X;X;X;X;X;X;X;X;X;X;X;X;X;X;X;X;X;X;X;X;X;X;X;X2X}.+.*.*.                              ",
"                        +X}.%XxXBXmXBXMXMXMXmXVXcX0X0X0X;X:X:X:X;X;X;X;X;X;X;X;X;X;X;X;X;X;X;X;X;X;X;X;X;X;X;X;X2X+X1.>.t.                              ",
"                        ;.*.>.xXVXVXMXMXMXMXMXMXMXMXMXBXuX:X%X:X;X;X;X;X;X;X;X;X;X;X;X;X;X;X;X;X;X;X;X;X;X;X;X;X;X;X;X%X:Xt.+.;.                        ",
"                        ;.%.;.xXDXmXMXMXMXMXMXMXMXMXMXBXuXOX:X:X;X;X;X;X;X;X;X;X;X;X;X;X;X;X:X:X;X;X;X;X;X;X;X;X;X;X:X:X:Xi.*.;.                        ",
"                        *.;.>.xXVXVXMXMXMXMXMXMXMXMXMXBXuXOX:X:X;X;X;X;X;X;X;X;X;X;X;X;X;X%X:X:X;X;X;X;X;X;X;X;X;X;X:X:X:Xt.*.*.                        ",
"                              H.H.H.hXVXMXMXMXMXMXMXMXBXuXOX;X;X;X;X:X:X:X;X;X;X:X:X:X:X:X:X:X:X;X;X;X;X:X:X:X:X;X;X;X;X;Xi.+.;.                        ",
"                              +. .) hXMXMXMXMXMXMXMXMXBXuX:X;X;X;X;X:X:X:X%X;X;X:X:X:X%X:X%X:X:X;X;X;X;X%X:X:X:X;X;X;X;X;Xi.+.*.                        ",
"                              +.+.} hXHXFXFXFXFXDXFXDXDXiX:X;X;X;X;X;X2X7X2X2X2X1X7X7X2X2X2X7X2X2X7X2X7X2X2X2X:X;X;X;X;X:Xi.*.*.                        ",
"                              J.J.V./.).(.(.(.(.(.(.(.(.<X:X;X;X;X;X%XN.N.N.N.J.V.N.N.V.N.N.N.V.N.N.N.N.N.J.E.2X;X;X;X;X:Xt.*.*.                        ",
"                              2X2XwXw.h k k k k k k k h D.2X1X;X:X1X[.+.+.+.+.+.+.+.+.+.} *.+.+.+.*.+.+.+.} h.7X:X:X:X:X:Xt.+.;.                        ",
"                              2X2X2X5.l V V H V n n V M F.2X2X;X:X1X}.*.;.*.>.*.>.*.*.*.*.*.*.*.;.*.*.*.*.*.N.2X:X:X1X1X;Xi.+.;.                        ",
"                              :X;X2Xb.8.0.8.G G F 8.8.9.A.[.E.%X;X2X}.*.>.*.*.*.*.*.>.*.*.*.*.>.*.*.*... .[ m.7X:X%X[.[.[.>.;.;.                        ",
"                                    2X2X2XE.%.%.t.2X2XqXf.+.+.>.                                      J n M r.2X1X[.+.*.*.                              ",
"                                    :X:X2XT.+.*.>.:X:X2Xa.*.*.*.                                      n n M r.qX2X}.+.*.*.                              ",
"                                    :X:X2XE.*.*.>.:X2X2Xa.+.*.                                        n n M r.;X:X[.;.*.*.                              ",
"                                            *.*.>.:X:X;X                                                    J Y L 7.>.*.*.                              ",
"                                            *.*.>.:X:X:X                                                      n H S *.*.>.                              ",
"                                            *.*.>.:X:X:X                                                      n n G *.*.;.                              ",
"                                                                                                                                                        ",
"                                                                                                                                                        ",
"                                                                                                                                                        ",
"                                                                                                                                                        ",
"                                                                                                                                                        ",
"                                                                                                                                                        ",
"                                                                                                                                                        "
};
