/* XPM */
static char *test[] = {
/* columns rows colors chars-per-pixel */
"76 76 101 2 ",
"   c #251A1D",
".  c #2A1C1C",
"X  c #271C25",
"o  c #2D1E24",
"O  c #311F22",
"+  c #342223",
"@  c #3C2521",
"#  c #482817",
"$  c #4C2B1E",
"%  c #542E1C",
"&  c #5E291B",
"*  c #59301C",
"=  c #602B1B",
"-  c #633314",
";  c #65341A",
":  c #693619",
">  c #6D3819",
",  c #743A16",
"<  c #793C14",
"1  c #422720",
"2  c #7D4947",
"3  c #B72A0A",
"4  c #BA2D0A",
"5  c #BD330B",
"6  c #BD3B08",
"7  c #C1350B",
"8  c #C33B0A",
"9  c #C93E09",
"0  c #8B430F",
"q  c #874214",
"w  c #8C4413",
"e  c #934711",
"r  c #964811",
"t  c #994910",
"y  c #A44B06",
"u  c #A94D07",
"i  c #BC4306",
"p  c #B44C01",
"a  c #BA4D02",
"s  c #AD510D",
"d  c #B65200",
"f  c #B95300",
"g  c #B05109",
"h  c #B9560B",
"j  c #944D2B",
"k  c #9E5232",
"l  c #CF4607",
"z  c #CE4B06",
"x  c #C64008",
"c  c #CA4208",
"v  c #D34C06",
"b  c #C15700",
"n  c #C55901",
"m  c #CC5D04",
"M  c #C45B08",
"N  c #D45205",
"B  c #DB5505",
"V  c #D25E00",
"C  c #DE5A03",
"Z  c #E25C03",
"A  c #C36107",
"S  c #C56408",
"D  c #D46003",
"F  c #DD6401",
"G  c #D7670F",
"H  c #D96B17",
"J  c #D96C18",
"K  c #E36600",
"L  c #EB6601",
"P  c #E76801",
"I  c #EE6B00",
"U  c #F26D00",
"Y  c #F86F00",
"T  c #EF7406",
"R  c #F47000",
"E  c #FB7100",
"W  c #F07A09",
"Q  c #A2594D",
"!  c #A55D57",
"~  c #A35D59",
"^  c #E77957",
"/  c #E57E7A",
"(  c #DF8716",
")  c #F1810E",
"_  c #E38D19",
"`  c #F28610",
"'  c #F39116",
"]  c #F49519",
"[  c #F59A1C",
"{  c #F09D20",
"}  c #F7A624",
"|  c #F7A925",
" . c #FAAC26",
".. c #F9AF28",
"X. c #FBB127",
"o. c #FFB428",
"O. c #FC8462",
"+. c #EE827A",
"@. c #FF8E88",
"#. c #FF938A",
"$. c None",
/* pixels */
"$.$.$.$.$.$.$.$.$.$.$.$.$.$.$.$.$.$.$.$.$.$.$.$.$.$.$.$.$.$.$.$.$.$.$.$.$.$.$.$.$.$.$.$.$.$.$.$.$.$.$.$.$.$.$.$.$.$.$.$.$.$.$.$.$.$.$.$.$.$.$.$.$.$.$.$.",
"$.$.$.$.$.$.$.$.$.$.$.$.$.$.$.$.$.$.$.$.$.$.$.$.$.$.$.$.$.$.$.$.$.$.$.$.$.$.$.$.$.$.$.$.$.$.$.$.$.$.$.$.$.$.$.$.$.$.$.$.$.$.$.$.$.$.$.$.$.$.$.$.$.$.$.$.",
"$.$.$.$.$.$.$.$.$.$.$.$.$.$.$.$.$.$.$.$.$.$.$.$.$.$.$.$.$.$.$.$.$.$.$.$.$.$.$.$.$.$.$.$.$.$.$.$.$.$.$.$.$.$.$.$.$.$.$.$.$.$.$.$.$.$.$.$.$.$.$.$.$.$.$.$.",
"$.$.$.$.$.$.$.$.$.$.$.$.$.$.$.$.$.$.$.$.$.$.$.$.$.$.$.$.$.$.$.$.$.$.$.$.$.$.$.$.$.$.$.$.$.$.$.$.$.$.$.$.$.$.$.$.$.$.$.$.$.$.$.$.$.$.$.$.$.$.$.$.$.$.$.$.",
"$.$.$.$.$.$.$.$.$.$.$.$.$.$.$.$.$.$.$.$.$.$.$.$.$.$.$.$.$.$.$.$.$.$.$.$.$.$.$.$.$.$.$.$.$.$.$.$.$.$.$.$.$.$.$.$.$.$.$.$.$.$.$.$.$.$.$.$.$.$.$.$.$.$.$.$.",
"$.$.$.$.$.$.$.$.$.$.$.$.$.$.$.$.$.$.$.$.$.$.$.$.$.$.$.$.$.$.$.$.$.$.$.$.$.$.$.$.$.$.$.$.$.$.$.$.$.$.$.$.$.$.$.$.$.$.$.$.$.$.$.$.$.$.$.$.$.$.$.$.$.$.$.$.",
"$.$.$.$.$.$.$.$.$.$.$.$.$.$.$.$.$.$.$.$.$.$.$.$.$.$.$.$.$.$.$.$.$.$.$.$.$.$.$.$.$.$.$.$.$.$.$.$.$.$.$.$.$.$.$.$.$.$.$.$.$.$.$.$.$.$.$.$.$.$.$.$.$.$.$.$.",
"$.$.$.$.$.$.$.$.f f d m U I I $.$.$.$.$.$.$.$.$.$.$.$.$.$.$.$.$.$.$.$.$.$.$.$.$.$.$.$.$.$.$.$.$.$.$.$.$.$.$.$.$.$.$.$.$.$.$.$.$.$.$.$.$.$.$.$.$.$.$.$.$.",
"$.$.$.$.$.$.$.$.f f d m U I I $.$.$.$.$.$.$.$.$.$.$.$.$.$.$.$.$.$.$.$.$.$.$.$.$.$.$.$.$.$.$.$.$.$.$.$.$.$.$.$.$.$.$.$.$.$.$.$.$.$.$.$.$.$.$.$.$.$.$.$.$.",
"$.$.$.$.$.$.$.$.f f d m U I I $.$.$.$.$.$.$.$.$.$.$.$.$.$.$.$.$.$.$.$.$.$.$.$.$.$.$.$.$.$.$.$.$.$.$.$.$.$.$.$.$.$.$.$.$.$.$.$.$.$.$.$.$.$.$.$.$.$.$.$.$.",
"$.$.$.$.$.f f d D L P L I I I $.$.$.$.$.$.$.$.$.$.$.$.$.$.$.$.$.$.$.$.$.$.$.$.$.$.$.$.$.$.$.$.$.$.$.$.$.$.$.$.$.$.$.$.$.$.$.$.$.$.$.$.$.$.$.$.$.$.$.$.$.",
"$.$.$.$.$.f f d F U I I I I I $.$.$.$.$.$.$.$.$.$.$.$.$.$.$.$.$.$.$.$.$.$.$.$.$.$.$.$.$.$.$.$.$.$.$.$.$.$.$.$.$.$.$.$.$.$.$.$.$.$.$.$.$.$.$.$.$.$.$.$.$.",
"$.$.$.$.$.f d p F U I I I I I $.$.$.$.$.$.$.$.$.$.$.$.$.$.$.$.$.$.$.$.$.$.$.$.$.$.$.$.$.$.$.$.$.$.$.$.$.$.$.$.$.$.$.$.$.$.$.$.$.$.$.$.$.$.$.$.$.$.$.$.$.",
"$.$.f f f D F V P U I I $.$.$.$.$.$.$.$.$.$.$.$.$.$.$.$.$.$.$.$.$.$.$.$.$.$.$.$.$.$.$.$.$.$.$.$.$.$.$.$.$.$.$.$.$.$.$.$.$.$.$.$.$.$.$.$.$.$.$.$.$.$.$.$.",
"$.$.f d f U U U I I I I $.$.$.$.$.$.$.$.$.$.$.$.$.$.$.$.$.$.$.$.$.$.$.$.$.$.$.$.$.$.$.$.$.$.$.$.$.$.$.$.$.$.$.$.$.$.$.$.$.$.$.$.$.$.$.$.$.$.$.$.$.$.$.$.",
"$.$.f f f L I I I I I I $.$.$.$.$.$.$.$.$.$.$.$.$.$.$.$.$.$.$.$.$.$.$.$.$.$.$.$.$.$.$.$.$.$.$.$.$.$.$.$.$.$.$.$.$.$.$.$.$.$.$.$.$.$.$.$.$.$.$.$.$.$.$.$.",
"$.$.f d f L T I I I I $.$.$.$.$.$.$.$.$.$.$.$.$.$.$.$.$.$.$.$.$.$.$.$.$.$.$.$.$.$.$.$.$.$.$.$.$.$.$.$.$.$.$.$.$.$.$.$.$.$.$.$.$.$.$.$.$.$.$.$.$.$.$.$.$.",
"$.$.f f f I I I $.$.$.$.$.$.$.$.$.$.$.$.$.$.$.$.$.$.$.$.$.$.$.$.$.$.$.$.$.$.$.$.$.$.$.$.f f f f $.$.$.$.$.$.$.$.$.$.$.$.$.f f f $.$.$.$.$.$.$.$.$.$.$.$.",
"$.$.f d f L U I $.$.$.$.$.$.$.$.$.$.$.$.$.$.$.$.$.$.$.$.$.$.$.$.$.$.$.$.$.$.$.$.$.$.$.$.f f f f $.$.$.$.$.$.$.$.$.$.$.$.$.f f f $.$.$.$.$.$.$.$.$.$.$.$.",
"$.$.f f f L I I $.$.$.$.$.$.$.$.$.$.$.$.$.$.$.$.$.$.$.$.$.$.$.$.$.$.$.$.$.$.$.$.$.$.$.$.f f f f $.$.$.$.$.$.$.$.$.$.$.$.$.f f f $.$.$.$.$.$.$.$.$.$.$.$.",
"$.$.f d f I I I $.$.$.$.$.$.$.$.$.$.$.$.$.$.$.$.$.$.$.$.$.$.$.$.$.$.$.$.$.$.$.$.$.f f f i 5 5 i f f f $.$.$.$.$.$.$.f f a 6 5 5 a f f $.$.$.$.$.$.$.$.$.",
"$.$.f f f I R I $.$.$.$.$.$.$.$.$.$.$.$.$.$.$.$.$.$.$.$.$.$.$.$.$.$.$.$.$.$.$.$.$.f f f i 7 5 6 f f f $.$.$.$.$.$.$.f f f 5 5 5 a f f f $.$.$.$.$.$.$.$.",
"$.$.f f f P I I $.$.$.$.$.$.$.$.$.$.$.$.$.$.$.$.$.$.$.$.$.$.$.$.$.$.$.$.$.$.$.$.$.f f f i 5 5 6 d d d $.$.$.$.$.$.$.p d p 5 5 5 a f f f $.$.$.$.$.$.$.$.",
"$.$.f f b P I I $.$.$.$.$.$.$.$.$.$.$.$.$.$.$.$.$.$.$.$.$.$.$.$.$.$.$.$.$.$.$.$.$.f d f i 5 5 x K F F I U I I I I L F K F C Z Z b d f f $.$.$.$.$.$.$.$.",
"$.$.f f f I I I $.$.$.$.$.$.$.$.$.$.$.$.$.$.$.$.$.$.$.$.$.$.$.$.$.$.$.$.$.$.$.$.$.f f f i 5 5 c U U U U I I I I I I U U U R I R n f f f $.$.$.$.$.$.$.$.",
"$.$.f d f L U I $.$.$.$.$.$.$.$.$.$.$.$.$.$.$.$.$.$.$.$.$.$.$.$.$.$.$.$.$.$.$.$.$.d d d 6 5 4 x I I I I I I I I I I I I I I I I b p d $.$.$.$.$.$.$.$.$.",
"$.$.f f f I I I I $.$.$.$.$.$.$.$.$.$.$.$.$.$.$.$.$.$.$.$.$.$.$.$.$.$.$.$.$.$.$.$.m V m N v z B I I I I I I I I I I I I I I I I V V m D $.$.$.$.$.$.$.$.",
"$.$.f d f L T I I I I I $.$.$.$.$.$.$.$.$.$.$.$.$.$.$.$.$.$.$.$.$.$.$.$.$.$.f f f P U U T I U I I I I I I I I I I I I I I I I I U U U U I I I $.$.$.$.$.",
"$.$.f d f I R I I I I I $.$.$.$.$.$.$.$.$.$.$.$.$.$.$.$.$.$.$.$.$.$.$.$.$.$.b f f K U I I I L T U U U U I I I I I I I I I I I I U Y U U I I Y $.$.$.$.$.",
"$.$.f f f K P P I I I I $.$.$.$.$.$.$.$.$.$.$.$.$.$.$.$.$.$.$.$.$.$.$.$.$.$.u s y K U I I I U P D D D P U I I I I I I I I I I U V G m K I U F $.$.$.$.$.",
"$.$.$.$.$.f f d F U I I $.$.$.$.$.$.$.$.$.$.$.$.$.$.$.$.$.$.$.@ @ @ @ @ @ @ @ @ @ M Y I I I Y M + @ 1 F U I I I I I I I I I I R ; + + e E Y M + @ 1 $.$.",
"$.$.$.$.$.f f d F U I I $.$.$.$.$.$.$.$.$.$.$.$.$.$.$.$.$.$.$.@ @ @ @ @ @ @ @ @ + M Y I I I Y M + + 1 F U I I I I I I U I I U U ; + o e E Y M @ @ @ $.$.",
"$.$.$.$.$.f f d F U I I $.$.$.$.$.$.$.$.$.$.$.$.$.$.$.$.$.$.$.@ 1 @ @ @ @ @ @ @ + m U I I I U M O @ 1 G U I I I I I U U I I I U ; + O e Y Y M + @ @ $.$.",
"$.$.$.$.$.f f d F I I I I I I $.$.$.$.$.$.$.$.$.$.$.$.$.$.$.$.$.$.$.< u y u m D m P I I I I T P m m m I I I I I Y h % % > L U U D m m K U T F $.$.$.$.$.",
"$.$.$.$.$.f f d F U I I I I I $.$.$.$.$.$.$.$.$.$.$.$.$.$.$.$.$.$.$.$.f f n U R Y I I I I I I U U U U U I I I U Y s o O $ I I I U U U U L I Y $.$.$.$.$.",
"$.$.$.$.$.f f d F R R U I I I $.$.$.$.$.$.$.$.$.$.$.$.$.$.$.$.$.$.$.$.n b n E E E I I I I I I I U I I U I I Y Y E g X . # U E E U I I I U I U $.$.$.$.$.",
"$.$.$.$.$.$.$.$.z v v C I I I I I I I I I I I I I I I I I I E < + + % < , < w w w D Y I I I U I I I I I U U s q w j ~ ~ Q w w w D U U I U U m + @ @ $.$.",
"$.$.$.$.$.$.$.$.5 5 4 z U I I I I I I I I I I I I I I I I I R < + @ + + + + O O o M Y I I I I I I I I I L Y , X   2 #.#.+.+ o o M Y I I I R M + @ @ $.$.",
"$.$.$.$.$.$.$.$.7 5 5 z R U U I I I I I U I I I I I I I I I E , o + + @ + @ + + + M U I I I I I I I I I U Y , o . 2 #.@./ @ + o M Y I I I U M @ @ @ $.$.",
"$.$.$.$.$.$.$.$.5 5 5 c Z Z K I I I I I I I I I I I I I I I U t ; : ; & & = : : : D U I I I I I I I I I I U t ; - k O.O.^ > : ; m U I I I Y M + @ @ $.$.",
"$.$.$.$.$.$.$.$.$.$.$.$.5 5 8 I I I I I I I I I I I I I I I I U U R Z 7 7 9 U U U U I I I I I I I I I I I I U U U U I I I U Y U U I I I I I U $.$.$.$.$.",
"$.$.$.$.$.$.$.$.$.$.$.$.5 5 8 U I U I I I I I I I I I I I I I I U U B 4 5 8 U U U I I I I I I I I I I I I I U I U I I I I I U U I I I I I I U $.$.$.$.$.",
"$.$.$.$.$.$.$.$.$.$.$.$.5 5 8 I L I U I I I I I I I I I I I I I I U B 7 7 9 P I P I I I I I I I I I I I I I I I I I I I I I I I I I I I I I I $.$.$.$.$.",
"$.$.$.$.$.$.$.$.$.$.$.$.$.$.$.f f f P I I I I I I I I I I I I I I I I L L K 8 5 7 Z U I I I I I I I I I I I U I I I I I I I I I I I I I $.$.$.$.$.$.$.$.",
"$.$.$.$.$.$.$.$.$.$.$.$.$.$.$.d f d K U I I I I I I I I I I I I I I I I U L 5 5 5 K I I I I I I I I I I I I I I I U I I I I I I I I I $.$.$.$.$.$.$.$.$.",
"$.$.$.$.$.$.$.$.$.$.$.$.$.$.$.f f d P I I I I I I U I I I I I I I I I I U K 5 5 5 Z U I I I I I I I I I I I I L L L I I I I I I I I I I $.$.$.$.$.$.$.$.",
"$.$.$.$.$.$.$.$.$.$.$.$.$.$.$.f f d K I I I U I I I I I I I I I I I I I I P Z C Z L I I I I I I I I I I I I ` ] ] ` I I I I I I $.$.$.$.$.$.$.$.$.$.$.$.",
"$.$.$.$.$.$.$.$.$.$.$.$.$.$.$.f f f K R I I I I I I I I I I I I I I I I I I U U U I I I I I I I I I I I U L ] ....] L I I I I I $.$.$.$.$.$.$.$.$.$.$.$.",
"$.$.$.$.$.$.$.$.$.$.$.$.$.$.$.f f f K U I I I I I I I I I I I I I I I I I I I I I I I I I I I I I I I L L L ' | | ] L L I I I I $.$.$.$.$.$.$.$.$.$.$.$.",
"$.$.$.$.$.$.$.$.$.$.$.$.$.$.$.f f f K I I I I I I I I I I I I I I I I I I I I U I I I I I I I I I I U ) ` W [ | | [ W ` W U I I $.$.$.$.$.$.$.$.$.$.$.$.",
"$.$.$.$.$.$.$.$.$.$.$.$.$.$.$.f f d P I I I I I I I I I I I I I I I I I I I I I I I I I I I I I I U I }  . .| } | | | | } I I I $.$.$.$.$.$.$.$.$.$.$.$.",
"$.$.$.$.$.$.$.$.$.$.$.$.$.$.$.d d d K U I I I I I I I I I I I I I I I I I I I I I I I I U I I I I L L } | } } | } | | | { I U U $.$.$.$.$.$.$.$.$.$.$.$.",
"$.$.$.$.$.$.$.$.$.$.$.$.$.$.$.b b b P I I I I I I I I I I I I I I I I I I I I I I I I I I I L I T T T } } } | | } } } } { K P P $.$.$.$.$.$.$.$.$.$.$.$.",
"$.$.$.$.$.$.$.$.$.$.$.$.f d b I I I I I I I I I I I I I U I I I I I I I I I I I I I I I I U I W } } } | } } | | } } } | { M f f $.$.$.$.$.$.$.$.$.$.$.$.",
"$.$.$.$.$.$.$.$.$.$.$.$.f f b I I I I I I I I I I I I I I I I I I I I I I I I I I I I I I I L W | } | } } } } } } | }  .{ f f f $.$.$.$.$.$.$.$.$.$.$.$.",
"$.$.$.$.$.$.$.$.$.$.$.$.f d b I I I I I I I I I I I I I I I I I I I I I I I I I I I I I I I I W | } } } | } | } } |  ...{ f a f $.$.$.$.$.$.$.$.$.$.$.$.",
"$.$.$.$.$.$.$.$.$.$.$.$.f d b I I I I I I I I I I I I I I I I I I I I I I I I U I I I I I I I W  .} } } } } } } | _ A S A $.$.$.$.$.$.$.$.$.$.$.$.$.$.$.",
"$.$.$.$.$.$.$.$.$.$.$.$.f d b I I I I I I I I I I I I I I I I I I I I I I I I I I I I I I I U W } } } } } } } }  ._ p p f $.$.$.$.$.$.$.$.$.$.$.$.$.$.$.",
"$.$.$.$.$.$.$.$.$.$.$.$.f d b I I I I I I U U U U U U U U U U U U U U U U U U U U I I I I I I W X.X. .X.X.X.....o._ p d d $.$.$.$.$.$.$.$.$.$.$.$.$.$.$.",
"$.$.$.$.$.$.$.$.$.$.$.$.f f b I I I I I U F V V V V V V V V V V V V V V V V V V D P I I I I I P H H H H H H H H J G V V D $.$.$.$.$.$.$.$.$.$.$.$.$.$.$.",
"$.$.$.$.$.$.$.$.$.$.$.$.f d b I I I I I U V p d d d d d d d d d d d d d d d d d d K I I I I T C 3 4 4 4 5 4 4 4 3 l R U U $.$.$.$.$.$.$.$.$.$.$.$.$.$.$.",
"$.$.$.$.$.$.$.$.$.$.$.$.f d b R I I I I U V d f f f f d f f d f f d f f f f f d d K U I I U U Z 5 5 5 5 5 5 5 5 4 l U I I $.$.$.$.$.$.$.$.$.$.$.$.$.$.$.",
"$.$.$.$.$.$.$.$.$.$.$.$.f f f K K K I I U V p a a f f d f f f f f f f f f f f d f K U U L F K C c c c 6 6 6 x c x N U I I $.$.$.$.$.$.$.$.$.$.$.$.$.$.$.",
"$.$.$.$.$.$.$.$.$.$.$.$.$.$.$.d d d K U U v 5 5 5 $.$.$.$.$.$.$.$.$.$.$.$.$.$.$.$.$.$.$.f d d n U U U f f d F U U U $.$.$.$.$.$.$.$.$.$.$.$.$.$.$.$.$.$.",
"$.$.$.$.$.$.$.$.$.$.$.$.$.$.$.f f f P U R v 5 5 5 $.$.$.$.$.$.$.$.$.$.$.$.$.$.$.$.$.$.$.d f f n U I I f f d F U I I $.$.$.$.$.$.$.$.$.$.$.$.$.$.$.$.$.$.",
"$.$.$.$.$.$.$.$.$.$.$.$.$.$.$.f f d K I R v 5 5 5 $.$.$.$.$.$.$.$.$.$.$.$.$.$.$.$.$.$.$.$.f d n U I I b f d F U I I $.$.$.$.$.$.$.$.$.$.$.$.$.$.$.$.$.$.",
"$.$.$.$.$.$.$.$.$.$.$.$.$.$.$.f f f 6 8 8 7 $.$.$.$.$.$.$.$.$.$.$.$.$.$.$.$.$.$.$.$.$.$.$.$.$.$.U I I f f d $.$.$.$.$.$.$.$.$.$.$.$.$.$.$.$.$.$.$.$.$.$.",
"$.$.$.$.$.$.$.$.$.$.$.$.$.$.$.f f f 6 5 5 $.$.$.$.$.$.$.$.$.$.$.$.$.$.$.$.$.$.$.$.$.$.$.$.$.$.$.I I L f d f $.$.$.$.$.$.$.$.$.$.$.$.$.$.$.$.$.$.$.$.$.$.",
"$.$.$.$.$.$.$.$.$.$.$.$.$.$.$.f f f 6 5 5 $.$.$.$.$.$.$.$.$.$.$.$.$.$.$.$.$.$.$.$.$.$.$.$.$.$.$.I U I f f f $.$.$.$.$.$.$.$.$.$.$.$.$.$.$.$.$.$.$.$.$.$.",
"$.$.$.$.$.$.$.$.$.$.$.$.$.$.$.$.$.$.$.$.$.$.$.$.$.$.$.$.$.$.$.$.$.$.$.$.$.$.$.$.$.$.$.$.$.$.$.$.$.$.$.$.$.$.$.$.$.$.$.$.$.$.$.$.$.$.$.$.$.$.$.$.$.$.$.$.",
"$.$.$.$.$.$.$.$.$.$.$.$.$.$.$.$.$.$.$.$.$.$.$.$.$.$.$.$.$.$.$.$.$.$.$.$.$.$.$.$.$.$.$.$.$.$.$.$.$.$.$.$.$.$.$.$.$.$.$.$.$.$.$.$.$.$.$.$.$.$.$.$.$.$.$.$.",
"$.$.$.$.$.$.$.$.$.$.$.$.$.$.$.$.$.$.$.$.$.$.$.$.$.$.$.$.$.$.$.$.$.$.$.$.$.$.$.$.$.$.$.$.$.$.$.$.$.$.$.$.$.$.$.$.$.$.$.$.$.$.$.$.$.$.$.$.$.$.$.$.$.$.$.$.",
"$.$.$.$.$.$.$.$.$.$.$.$.$.$.$.$.$.$.$.$.$.$.$.$.$.$.$.$.$.$.$.$.$.$.$.$.$.$.$.$.$.$.$.$.$.$.$.$.$.$.$.$.$.$.$.$.$.$.$.$.$.$.$.$.$.$.$.$.$.$.$.$.$.$.$.$.",
"$.$.$.$.$.$.$.$.$.$.$.$.$.$.$.$.$.$.$.$.$.$.$.$.$.$.$.$.$.$.$.$.$.$.$.$.$.$.$.$.$.$.$.$.$.$.$.$.$.$.$.$.$.$.$.$.$.$.$.$.$.$.$.$.$.$.$.$.$.$.$.$.$.$.$.$.",
"$.$.$.$.$.$.$.$.$.$.$.$.$.$.$.$.$.$.$.$.$.$.$.$.$.$.$.$.$.$.$.$.$.$.$.$.$.$.$.$.$.$.$.$.$.$.$.$.$.$.$.$.$.$.$.$.$.$.$.$.$.$.$.$.$.$.$.$.$.$.$.$.$.$.$.$.",
"$.$.$.$.$.$.$.$.$.$.$.$.$.$.$.$.$.$.$.$.$.$.$.$.$.$.$.$.$.$.$.$.$.$.$.$.$.$.$.$.$.$.$.$.$.$.$.$.$.$.$.$.$.$.$.$.$.$.$.$.$.$.$.$.$.$.$.$.$.$.$.$.$.$.$.$."
};
