/* XPM */
static char *right_cat[] = {
/* columns rows colors chars-per-pixel */
"50 50 172 2 ",
"   c black",
".  c #100D0A",
"X  c #5B544C",
"o  c #B45820",
"O  c #B66738",
"+  c #A66850",
"@  c #A77563",
"#  c #FF8616",
"$  c #FD8920",
"%  c #FE9534",
"&  c #FF9936",
"*  c #DECCC3",
"=  c #DECDC3",
"-  c #E0CFC7",
";  c #E1D3CA",
":  c #E3D2CA",
">  c #E2D3CA",
",  c #E4D2C9",
"<  c #E4D2CB",
"1  c #E4D4CD",
"2  c #E4D5CD",
"3  c #E4D5CE",
"4  c #E7D6CF",
"5  c #E6D7D0",
"6  c #E7D8D1",
"7  c #E6D8D2",
"8  c #E7DDD6",
"9  c #E7DCD7",
"0  c #EADFD9",
"q  c #E9E2DE",
"w  c #EBE3DF",
"e  c #F6E4D4",
"r  c #F7E7D4",
"t  c #EFE5E1",
"y  c #EEE6E1",
"u  c #EFE7E3",
"i  c #EFEAE7",
"p  c #EDECEA",
"a  c #F0E9E7",
"s  c #F3EDE6",
"d  c #F0EBE8",
"f  c #F1EDE9",
"g  c #F2EDE9",
"h  c #F1EFEB",
"j  c #F3EFEA",
"k  c #F1EEEC",
"l  c #F1EEED",
"z  c #F4EFEC",
"x  c #F2F0E4",
"c  c #F3F1EB",
"v  c #F1F0EE",
"b  c #F2F0EE",
"n  c #F2F1EF",
"m  c #F5F0ED",
"M  c #F4F4EE",
"N  c #F1F0F1",
"B  c #F1F1F1",
"V  c #F3F1F0",
"C  c #F2F1F1",
"Z  c #F3F2F1",
"A  c #F3F3F1",
"S  c #F0F3F3",
"D  c gray95",
"F  c #F3F2F2",
"G  c #F3F3F2",
"H  c #F2F2F3",
"J  c #F3F2F3",
"K  c #F3F3F3",
"L  c #F4F2F0",
"P  c #F4F3F3",
"I  c #F3F4F0",
"U  c #F2F3F4",
"Y  c #F3F3F4",
"T  c #F3F4F4",
"R  c #F3F4F6",
"E  c #F3F6F7",
"W  c #F4F4F4",
"Q  c #F4F4F5",
"!  c #F4F5F5",
"~  c gray96",
"^  c #F4F5F6",
"/  c #F6F5F6",
"(  c #F4F6F6",
")  c #F5F6F6",
"_  c #F4F6F7",
"`  c #F5F6F7",
"'  c #F4F7F7",
"]  c #F5F7F7",
"[  c #F6F6F6",
"{  c #F7F6F7",
"}  c gray97",
"|  c #F9F5F1",
" . c #F8F6F5",
".. c #FBF7F4",
"X. c #F6FBF7",
"o. c #FAF8F4",
"O. c #F9F8F6",
"+. c #F9F8F7",
"@. c #F3F5F8",
"#. c #F3F6F9",
"$. c #F3F7FB",
"%. c #F5F7F8",
"&. c #F6F7F8",
"*. c #F7F7F8",
"=. c #F6F7F9",
"-. c #F2F9F8",
";. c #F2FBF8",
":. c #F3F8FA",
">. c #F6F8F8",
",. c #F6F9F8",
"<. c #F7F9F8",
"1. c #F6F8F9",
"2. c #F7F8F9",
"3. c #F6F9F9",
"4. c #F7F9F9",
"5. c #F7FAF9",
"6. c #F5F9FA",
"7. c #F6F9FA",
"8. c #F7F9FA",
"9. c #F7FAFB",
"0. c #F2F9FC",
"q. c #F3F9FC",
"w. c #F3F8FD",
"e. c #F2FAFD",
"r. c #F2FBFD",
"t. c #F2F9FE",
"y. c #F3F9FE",
"u. c #F3F9FF",
"i. c #F1FBFF",
"p. c #F2FAFE",
"a. c #F2FBFF",
"s. c #F7FBFC",
"d. c #F1FEFD",
"f. c #F2FCFF",
"g. c #F1FFFF",
"h. c #F2FEFF",
"j. c #F2FFFF",
"k. c #F5FCFF",
"l. c #F9F9F9",
"z. c #FAFAF9",
"x. c #F9FBFB",
"c. c #FAFBFA",
"v. c #FBFAFB",
"b. c #FCFBFA",
"n. c #F8FCFB",
"m. c #FDFCFB",
"M. c #F8FAFC",
"N. c #F8FBFC",
"B. c #F9FBFC",
"V. c #F8FCFD",
"C. c #F9FCFD",
"Z. c #F8FDFD",
"A. c #FAFCFC",
"S. c #FBFDFC",
"D. c #FAFDFD",
"F. c #F8FCFE",
"G. c #F8FDFE",
"H. c #F9FDFF",
"J. c #FAFDFE",
"K. c #FBFDFE",
"L. c #FAFDFF",
"P. c #FAFEFE",
"I. c #FBFEFE",
"U. c #FAFEFF",
"Y. c #FBFEFF",
"T. c #FAFFFF",
"R. c #FBFFFF",
"E. c #FCFEFF",
"W. c #FCFFFF",
"Q. c #FDFFFF",
"!. c white",
"~. c None",
/* pixels */
"~.~.~.~.~.~.~.~.~.~.~.~.~.~.~.~.~.~.~.~.~.~.~.~.~.~.~.~.~.~.~.~.~.~.~.~.~.~.~.~.~.~.~.~.~.~.~.~.~.~.",
"~.~.~.~.~.~.~.~.~.~.~.~.~.~.~.~.~.~.~.~.~.~.~.~.~.~.~.~.~.~.~.~.~.~.~.~.~.+ O ~.~.~.~.~.~.~.~.~.~.~.",
"~.~.~.~.~.~.~.~.~.~.~.~.~.~.~.~.~.~.~.~.~.~.~.~.~.~.~.~.~.~.~.~.~.~.~.~.~.O # O ~.~.~.~.~.~.~.~.~.~.",
"~.~.~.~.~.~.~.~.~.~.~.~.~.~.~.~.~.~.~.~.~.~.~.~.~.~.~.~.~.~.~.~.~.~.~.~.O # # # O ~.~.~.~.~.~.~.~.~.",
"~.~.~.~.~.~.~.~.~.~.~.~.~.~.~.~.~.~.~.~.~.~.~.~.~.~.~.~.~.~.~.~.~.~.~.~.O # r # # O ~.~.~.~.~.~.~.~.",
"~.~.~.~.~.~.~.~.~.~.~.~.~.~.~.~.~.~.~.~.~.~.~.~.~.~.~.~.~.~.~.~.~.~.~.~.O # # # # # o ~.~.~.~.~.~.~.",
"~.~.~.~.~.~.~.~.~.~.~.~.~.~.~.~.~.~.~.~.~.~.+ O ~.~.~.~.~.~.~.~.~.~.O O O # # # # # # O ~.~.~.~.~.~.",
"~.~.~.~.~.~.~.~.~.~.~.~.~.~.~.~.~.~.~.~.~.~.O # O ~.~.~.~.~.O O O O O # # # u.w.p.i.T.O ~.~.~.~.~.~.",
"~.~.~.~.~.~.~.~.~.~.~.~.~.~.~.~.~.~.~.~.~.~.O # # O ~.~.O O # # # # # # # K @.A F F N.O ~.~.~.~.~.~.",
"~.~.~.~.~.~.~.~.~.~.~.~.~.~.~.~.~.~.~.~.~.O % X.# # O O # # # # # # g.# # n #.G K K T P.O ~.~.~.~.~.",
"~.~.~.~.~.~.~.~.~.~.~.~.~.~.~.~.~.~.~.~.~.O & # # # # # # # g.# # # d.# # j #.G K K D W.O ~.~.~.~.~.",
"~.~.~.~.~.~.~.~.~.~.~.~.~.~.~.~.~.~.~.~.~.O # # x f.q.M # # I ;.# # c -.# s E K K K F V.O O ~.~.~.~.",
"~.~.~.~.~.~.~.~.~.~.~.~.~.~.~.~.~.~.~.~.~.O # h.0.F F f.# # # j.# # D a.e.K G K ! Y K %.p O ~.~.~.~.",
"~.~.~.~.~.~.~.~.~.~.~.~.~.~.~.~.~.~.~.~.~.O e k.F K K Y h.# # e.:.# D R T K D D D D T ` b O ~.~.~.~.",
"~.~.~.~.~.~.~.~.~.~.~.~.~.~.~.~.~.~.~.~.~.O a 2.K K K K Y y.T J K t.R G K K D     D z.&.L O ~.~.~.~.",
"~.~.~.~.~.~.~.~.~.~.~.~.~.~.~.~.~.~.~.~.~.O 0 M.K K K K G Y =.Y K K K K D Y D   L D D E.k O ~.~.~.~.",
"~.~.~.~.~.O O O ~.~.~.~.~.~.~.~.~.~.~.~.~.~.O T.K K K K D D D D F G D } D D D D D D +.H.8 O ~.~.~.~.",
"~.~.~.~.O $ $ $ O ~.~.~.~.~.~.~.~.~.~.~.~.~.O I.K K K K D     D D Y / D D D D D D D H R.O ~.~.~.~.~.",
"~.~.~.~.O $ $ $ $ O ~.~.~.~.~.~.~.~.~.~.~.~.O k %.K K ~ D   L D D D o.X . D   D B.P K S.O ~.~.~.~.~.",
"~.~.~.~.~.O $ $ S 6.O ~.~.~.~.~.~.~.~.~.~.~.~.O W.D K K D D D D D D D D       O.T D U.O O ~.~.~.~.~.",
"~.~.~.~.~.~.O K K F K O ~.~.~.~.~.~.~.~.~.~.~.O n 4.D K H D D D } D     h v m.W D ) c.O ~.~.~.~.~.~.",
"~.~.~.~.~.~.~.O R.K K ) O ~.~.~.~.~.~.~.~.~.~.~.O Q.J F K K Q K D { <.<.*.T K D ! !.O ~.~.~.~.~.~.~.",
"~.~.~.~.~.~.~.~.O J.K K K O ~.~.~.~.~.~.~.~.~.~.O O J J J K K K K F ! ! G K D 2.b.O ~.~.~.~.~.~.~.~.",
"~.~.~.~.~.~.~.~.~.O 1.K K K O ~.~.~.~.O O O O O # $ O J J >.! K K K K ^ F K 1.w O + ~.~.~.~.~.~.~.~.",
"~.~.~.~.~.~.~.~.~.~.O Q C K z @ O O O # # # # # $ $ q O O K J J J J J l T K 2 ; 2 + ~.~.~.~.~.~.~.~.",
"~.~.~.~.~.~.~.~.~.~.~.O 7.K K q # # # # # # # # q q s.K K J J F J J J J J K D M.2 + ~.~.~.~.~.~.~.~.",
"~.~.~.~.~.~.~.~.~.~.~.~.O K K K q # q # # # # q K G J K J J J F J J J J K K K ) 2 + ~.~.~.~.~.~.~.~.",
"~.~.~.~.~.~.~.~.~.~.~.~.+ Z K s.K q K # q # # q K K J J J Y J J J J J K K K G 1.i + ~.~.~.~.~.~.~.~.",
"~.~.~.~.~.~.~.~.~.~.~.+ Z Z Z G T q K q r.q # q K K K K K K J J F F K K K K F 9.q + ~.~.~.~.~.~.~.~.",
"~.~.~.~.~.~.~.~.~.~.~.+ Z x.F K K K K K G $.q F K K K K K K K K K K K K K K F s.9 + ~.~.~.~.~.~.~.~.",
"~.~.~.~.~.~.~.~.~.~.~.+ Z Z K K K K K K K Y U >.( F K K K K K K K K K K K K F V.3 + ~.~.~.~.~.~.~.~.",
"~.~.~.~.~.~.~.~.~.~.~.+ Z D K K K K K K K K K K K W K K K K K K K K K K K K F Z.7 + ~.~.~.~.~.~.~.~.",
"~.~.~.~.~.~.~.~.~.~.~.+ ' K K K K K K K K K K K K K K K K K K K K K K K K K F G.4 + ~.~.~.~.~.~.~.~.",
"~.~.~.~.~.~.~.~.~.~.~.+ T K K K K K K K K K K K K K K K K K K G K T D K K K D J.: + ~.~.~.~.~.~.~.~.",
"~.~.~.~.~.~.~.~.~.~.~.+ K K K K K K K K K K K K K C.K K K K D 8.W.T.C.K K K D J.- + ~.~.~.~.~.~.~.~.",
"~.~.~.~.~.~.~.~.~.~.~.+ K K K K K K K K K K 9.K + l.K K K D F.t + + < D.D K D J.* + ~.~.~.~.~.~.~.~.",
"~.~.~.~.~.~.~.~.~.~.~.+ K K K K K K K K K K 8.K +  .K K K %.f + ~.~.+ 1 x.K D J.= + ~.~.~.~.~.~.~.~.",
"~.~.~.~.~.~.~.~.~.~.~.+ K K K K K K 4.9.8.^ _ K + V ! K D R.+ ~.~.~.~.+ R.K D J.- + ~.~.~.~.~.~.~.~.",
"~.~.~.~.~.~.~.~.~.~.+ + K K K D ! R.+ + + 5.K Q.+ + 4.K D L.+ ~.~.~.~.+ ,.^ D J.> + ~.~.~.~.~.~.~.~.",
"~.~.~.~.~.~.~.~.~.~.+ ] K K K T A.+ ~.~.+ + + + + + J.D D Y.+ ~.~.~.~.+ m &.F G.5 + ~.~.~.~.~.~.~.~.",
"~.~.~.~.~.~.~.~.~.~.+ ] K K K Y.+ ~.~.~.~.~.~.~.~.+ Y.D D Y.+ ~.~.~.~.~.+ 1.F G.6 + ~.~.~.~.~.~.~.~.",
"~.~.~.~.~.~.~.~.~.~.+ ] K K 3.+ ~.~.~.~.~.~.~.~.~.+ n.Q D L.+ ~.~.~.~.~.+ V.D J., + ~.~.~.~.~.~.~.~.",
"~.~.~.~.~.~.~.~.~.~.+ K K G T.+ ~.~.~.~.~.~.~.~.~.+ u 8.D L.+ ~.~.~.~.~.+ R.B K.+ ~.~.~.~.~.~.~.~.~.",
"~.~.~.~.~.~.~.~.~.~.+ + K K K + ~.~.~.~.~.~.~.~.~.+ + W.N D.+ ~.~.~.~.~.+ v.` Q.+ ~.~.~.~.~.~.~.~.~.",
"~.~.~.~.~.~.~.~.~.~.~.+ K Q [ + ~.~.~.~.~.~.~.~.~.~.+ d N.W.+ ~.~.~.~.~.~.+ ..| + ~.~.~.~.~.~.~.~.~.",
"~.~.~.~.~.~.~.~.~.~.~.+ D B.+ + ~.~.~.~.~.~.~.~.~.~.~.+ y g + ~.~.~.~.~.~.~.+ + ~.~.~.~.~.~.~.~.~.~.",
"~.~.~.~.~.~.~.~.~.~.~.+ K K + ~.~.~.~.~.~.~.~.~.~.~.~.~.+ + ~.~.~.~.~.~.~.~.~.~.~.~.~.~.~.~.~.~.~.~.",
"~.~.~.~.~.~.~.~.~.~.~.+ + + + ~.~.~.~.~.~.~.~.~.~.~.~.~.~.~.~.~.~.~.~.~.~.~.~.~.~.~.~.~.~.~.~.~.~.~.",
"~.~.~.~.~.~.~.~.~.~.~.~.~.~.~.~.~.~.~.~.~.~.~.~.~.~.~.~.~.~.~.~.~.~.~.~.~.~.~.~.~.~.~.~.~.~.~.~.~.~.",
"~.~.~.~.~.~.~.~.~.~.~.~.~.~.~.~.~.~.~.~.~.~.~.~.~.~.~.~.~.~.~.~.~.~.~.~.~.~.~.~.~.~.~.~.~.~.~.~.~.~."
};
