/* XPM */
static char *right_cat[] = {
/* columns rows colors chars-per-pixel */
"76 76 256 2 ",
"   c black",
".  c #090500",
"X  c #261D17",
"o  c #41372A",
"O  c #5A5040",
"+  c #54514E",
"@  c #6A6156",
"#  c #7F6961",
"$  c #853817",
"%  c #9A481E",
"&  c #AC440A",
"*  c #984A2D",
"=  c #985238",
"-  c #AE5828",
";  c #A85F3E",
":  c #BA6030",
">  c #D56D15",
",  c #FD7B05",
"<  c #F87E13",
"1  c #C26322",
"2  c #D26E28",
"3  c #CF7436",
"4  c #E37B23",
"5  c #E07E2D",
"6  c #925344",
"7  c #955A42",
"8  c #9C5A40",
"9  c #925E4D",
"0  c #9C5F48",
"q  c #975F51",
"w  c #A65B4B",
"e  c #9B6451",
"r  c #9F6B5F",
"t  c #A2634B",
"y  c #A4694D",
"u  c #AE6B4D",
"i  c #B26A4A",
"p  c #B5704E",
"a  c #A46652",
"s  c #A86351",
"d  c #AB6653",
"f  c #A56953",
"g  c #A46D57",
"h  c #A96D56",
"j  c #AA6F59",
"k  c #B36F54",
"l  c #AD7356",
"z  c #A2745E",
"x  c #AC735C",
"c  c #AF765F",
"v  c #B07B5F",
"b  c #966C60",
"n  c #847A6F",
"m  c #A87063",
"M  c #AE7160",
"N  c #AB7660",
"B  c #AA7364",
"V  c #AD7365",
"C  c #AF7464",
"Z  c #AB7866",
"A  c #AB7E65",
"S  c #A2726D",
"D  c #A77968",
"F  c #AD7B6C",
"G  c #B47665",
"H  c #B37B65",
"J  c #B37D6A",
"K  c #B87B6B",
"L  c #A37975",
"P  c #B47F74",
"I  c #C07A50",
"U  c #FF8D09",
"Y  c #FE8512",
"T  c #FF871C",
"R  c #FF8B1D",
"E  c #FF951C",
"W  c #F18427",
"Q  c #F98527",
"!  c #FF8D22",
"~  c #FD8E2A",
"^  c #FD9323",
"/  c #FF9925",
"(  c #F4902F",
")  c #FF9329",
"_  c #FE912F",
"`  c #F6982D",
"'  c #FE982D",
"]  c #E98535",
"[  c #EE9039",
"{  c #F89733",
"}  c #FE9532",
"|  c #FF9F32",
" . c #F8953A",
".. c #FC9738",
"X. c #FF9D3A",
"o. c #FFA839",
"O. c #958675",
"+. c #B1806B",
"@. c #B4836C",
"#. c #BA846D",
"$. c #AE8277",
"%. c #B58471",
"&. c #B48775",
"*. c #BF8676",
"=. c #BA8C74",
"-. c #B48E7B",
";. c #BB8E7A",
":. c #BD917F",
">. c #CF8552",
",. c #E19246",
"<. c #FD9B41",
"1. c #FFA542",
"2. c #FFAE43",
"3. c #FFA947",
"4. c #FCA04B",
"5. c #FCA756",
"6. c #FFB25E",
"7. c #C49179",
"8. c #E7A167",
"9. c #FBAB64",
"0. c #FBB26C",
"q. c #FAB87B",
"w. c #FFC37B",
"e. c #9B948C",
"r. c #BC9988",
"t. c #ACA195",
"y. c #BAB1A8",
"u. c #C09783",
"i. c #C19D87",
"p. c #C19888",
"a. c #C39C8D",
"s. c #D6A787",
"d. c #C5A490",
"f. c #C3A395",
"g. c #CAA494",
"h. c #CEA69D",
"j. c #C6A89A",
"k. c #C4AA9D",
"l. c #C8A999",
"z. c #CDAA98",
"x. c #CCAB9B",
"c. c #D0A699",
"v. c #CBB09F",
"b. c #F9BE8A",
"n. c #CAADA3",
"m. c #CCB4A6",
"M. c #D0B0A2",
"N. c #D1B5AA",
"B. c #D2BCB0",
"V. c #D6BEB6",
"C. c #E0B7A1",
"Z. c #F8C596",
"A. c #D7C1B5",
"S. c #D2C3B9",
"D. c #DAC6BC",
"F. c #DBC9BE",
"G. c #E8C7A7",
"H. c #F7CBA2",
"J. c #FAD4AB",
"K. c #EBCCB7",
"L. c #F6D5B6",
"P. c #FDDFB8",
"I. c #D3CBC4",
"U. c #DDCCC3",
"Y. c #DFD0C6",
"T. c #D9D2CA",
"R. c #DED9D3",
"E. c #E4CEC4",
"W. c #E2D2CA",
"Q. c #E4D3CA",
"!. c #E3D5CA",
"~. c #E1D4CD",
"^. c #E4D4CC",
"/. c #E4D7CE",
"(. c #F5DCC5",
"). c #E4D5D0",
"_. c #E6D9D0",
"`. c #E5DBD3",
"'. c #E9D8D0",
"]. c #E8DBD2",
"[. c #E8DDD7",
"{. c #E2DDD8",
"}. c #F7E4CD",
"|. c #E9E2DC",
" X c #F4E6D5",
".X c #F3E8DF",
"XX c #FCF1DF",
"oX c #E7E5E3",
"OX c #EDE6E1",
"+X c #ECE9E6",
"@X c #E7EAE9",
"#X c #EFECE9",
"$X c #F3ECE4",
"%X c #F3EEEA",
"&X c #FFF7E7",
"*X c #F4F1EE",
"=X c #F1F1F1",
"-X c #F2F1F1",
";X c #F2F2F1",
":X c gray95",
">X c #F3F2F2",
",X c #F2F2F3",
"<X c #F3F3F3",
"1X c #F5F4F2",
"2X c #F3F3F4",
"3X c #F3F4F5",
"4X c #F1F6F4",
"5X c #F3F4F6",
"6X c #F3F7F6",
"7X c #F4F5F5",
"8X c #F5F6F5",
"9X c #F7F6F4",
"0X c #F6F7F5",
"qX c #F4F5F6",
"wX c #F5F6F7",
"eX c #F6F7F7",
"rX c #FAF7F0",
"tX c #F9F8F5",
"yX c #F8F9F7",
"uX c #F3F6F9",
"iX c #F5F7F8",
"pX c #F7F7F8",
"aX c #F4F7FA",
"sX c #F3F7FC",
"dX c #F2F9FA",
"fX c #F5F8F9",
"gX c #F7F8F9",
"hX c #F5F9FA",
"jX c #F6F9FB",
"kX c #F2F9FC",
"lX c #F3F9FF",
"zX c #F2FBFE",
"xX c #F2FAFF",
"cX c #F6FBFC",
"vX c #F1FCFF",
"bX c #F2FCFF",
"nX c #F1FFFF",
"mX c #F2FFFF",
"MX c #F5FFFF",
"NX c #F9FAFA",
"BX c #F8FAFB",
"VX c #FAFCF9",
"CX c #FFFEFA",
"ZX c #F8FBFD",
"AX c #FBFBFC",
"SX c #F8FDFD",
"DX c #FAFFFD",
"FX c #F8FDFE",
"GX c #FBFDFE",
"HX c #F9FFFF",
"JX c #FBFFFF",
"KX c #FDFDFC",
"LX c #FCFFFF",
"PX c #FEFFFF",
"IX c white",
"UX c None",
/* pixels */
"UXUXUXUXUXUXUXUXUXUXUXUXUXUXUXUXUXUXUXUXUXUXUXUXUXUXUXUXUXUXUXUXUXUXUXUXUXUXUXUXUXUXUXUXUXUXUXUXUXUXUXUXUXUXUXUXUXUXUXUXUXUXUXUXUXUXUXUXUXUXUXUXUXUXUXUX",
"UXUXUXUXUXUXUXUXUXUXUXUXUXUXUXUXUXUXUXUXUXUXUXUXUXUXUXUXUXUXUXUXUXUXUXUXUXUXUXUXUXUXUXUXUXUXUXUXUXUXUXUXUXUXUXUXUXUXUXUXUXUXUXUXUXUXUXUXUXUXUXUXUXUXUXUX",
"UXUXUXUXUXUXUXUXUXUXUXUXUXUXUXUXUXUXUXUXUXUXUXUXUXUXUXUXUXUXUXUXUXUXUXUXUXUXUXUXUXUXUXUXUXUXUXUXUXUXUXUXUXUXUXUXUXUXUX9 6 UXUXUXUXUXUXUXUXUXUXUXUXUXUXUX",
"UXUXUXUXUXUXUXUXUXUXUXUXUXUXUXUXUXUXUXUXUXUXUXUXUXUXUXUXUXUXUXUXUXUXUXUXUXUXUXUXUXUXUXUXUXUXUXUXUXUXUXUXUXUXUXUXUXUXz 1 ] 1 0 UXUXUXUXUXUXUXUXUXUXUXUXUX",
"UXUXUXUXUXUXUXUXUXUXUXUXUXUXUXUXUXUXUXUXUXUXUXUXUXUXUXUXUXUXUXUXUXUXUXUXUXUXUXUXUXUXUXUXUXUXUXUXUXUXUXUXUXUXUXUXUXUX- 1.2.1.5 * UXUXUXUXUXUXUXUXUXUXUXUX",
"UXUXUXUXUXUXUXUXUXUXUXUXUXUXUXUXUXUXUXUXUXUXUXUXUXUXUXUXUXUXUXUXUXUXUXUXUXUXUXUXUXUXUXUXUXUXUXUXUXUXUXUXUXUXUXUXUXb 3 3.X.~ | [ % UXUXUXUXUXUXUXUXUXUXUX",
"UXUXUXUXUXUXUXUXUXUXUXUXUXUXUXUXUXUXUXUXUXUXUXUXUXUXUXUXUXUXUXUXUXUXUXUXUXUXUXUXUXUXUXUXUXUXUXUXUXUXUXUXUXUXUXUXUXr 3 1. .q.9.X.( % UXUXUXUXUXUXUXUXUXUX",
"UXUXUXUXUXUXUXUXUXUXUXUXUXUXUXUXUXUXUXUXUXUXUXUXUXUXUXUXUXUXUXUXUXUXUXUXUXUXUXUXUXUXUXUXUXUXUXUXUXUXUXUXUXUXUXUXUX;.1 | 5.MXDX5.| 5 * UXUXUXUXUXUXUXUXUX",
"UXUXUXUXUXUXUXUXUXUXUXUXUXUXUXUXUXUXUXUXUXUXUXUXUXUXUXUXUXUXUXUXUXUXUXUXUXUXUXUXUXUXUXUXUXUXUXUXUXUXUXUXUXUXUXUXUXb 3 | _ }.MX5.! 3.2 e UXUXUXUXUXUXUXUX",
"UXUXUXUXUXUXUXUXUXUXUXUXUXUXUXUXUXUXUXUXUXUXUXUXUXUXUXUXUXUXUXUXUXUXUXUXUXUXUXUXUXUXUXUXUXUXUXUXUXUXUXUXUXUXUXUXUX# 2 ' { 5.q.4. .^ / & UXUXUXUXUXUXUXUX",
"UXUXUXUXUXUXUXUXUXUXUXUXUXUXUXUXUXUXUXUXUXUXUXUXUXUXUXUXUXUXUXUXUXUXUXUXUX0 - 8 UXUXUXUXUXUXUXUXUXUXUXUXUXUXF u ; 1 8.P..X.X(.#X}.L.J.9.* UXUXUXUXUXUXUX",
"UXUXUXUXUXUXUXUXUXUXUXUXUXUXUXUXUXUXUXUXUXUXUXUXUXUXUXUXUXUXUXUXUXUXUXUX7 > o.] - L UXUXUXUXUXUXUXUXUXB g a.V.8.! E Z.nXnXlXlXlXlXnXnXDX7.h UXUXUXUXUXUX",
"UXUXUXUXUXUXUXUXUXUXUXUXUXUXUXUXUXUXUXUXUXUXUXUXUXUXUXUXUXUXUXUXUXUXUXUX- 3.) ' } % $.UXUXUXUXUXm ; - > b.DXDXJ.! _ 9.6XuX3X-X7X<X<X-XDXiXx UXUXUXUXUXUX",
"UXUXUXUXUXUXUXUXUXUXUXUXUXUXUXUXUXUXUXUXUXUXUXUXUXUXUXUXUXUXUXUXUXUXUXr 5 1.9.9.X.<.% UXUXUXf +.S.Z.) | 5.-XnX$X..) 4.%XlX-X7X-X<X<X<X-XIXf.UXUXUXUXUXUX",
"UXUXUXUXUXUXUXUXUXUXUXUXUXUXUXUXUXUXUXUXUXUXUXUXUXUXUXUXUXUXUXUXUXUXUXf 4 X.XXMX9.| W % t : 4 XXIX1XX._ R J.nXnX0.Y 4.$XlX7X-X7X<X<X-X2XDX[.j UXUXUXUXUX",
"UXUXUXUXUXUXUXUXUXUXUXUXUXUXUXUXUXUXUXUXUXUXUXUXUXUXUXUXUXUXUXUXUXUXUXu Q .. XMX0., 6.G.,.| E H.nXnXZ.R ! 9.lXnXJ.R 4..XlX-X7X-X<X<X3X2X3XIX&.UXUXUXUXUX",
"UXUXUXUXUXUXUXUXUXUXUXUXUXUXUXUXUXUXUXUXUXUXUXUXUXUXUXUXUXUXUXUXUXUXUXi  .} 5.0.<.b.%XDXP.~ _ 4.%XnX$X<._ _ (.nX-X<.} $XlX3X<X<X-X7X-X7X-XIXh.UXUXUXUXUX",
"UXUXUXUXUXUXC r UXUXUXUXUXUXUXUXUXUXUXUXUXUXUXUXUXUXUXUXUXUXUXUXUXUXUXu  .<.! <..XnXlXsXnX9.! ^ L.nXnXb.R ~ H.nXnXZ.~ .XlX-X<X<X7X-X7X-X-XIXA.x UXUXUXUX",
"UXUXUXUXUX- 5 2 : l UXUXUXUXUXUXUXUXUXUXUXUXUXUXUXUXUXUXUXUXUXUXUXUXUXu  .R 0.nXnX-X>X>XnX}.) R b.nXlX$X..Y b.lXlX<XH.$XuX<X<X<X-X7X-X7X3XMXOXZ UXUXUXUX",
"UXUXUXUXi 4 o.o.[ 1 - UXUXUXUXUXUXUXUXUXUXUXUXUXUXUXUXUXUXUXUXUXUXUXUXk < 0.lXnX-X3X>X>X5XnXZ., <.*XlXnX(., <.nX3XuXnX5X-X<X<X<X7X-X7X>X<XfX<X;.UXUXUXUX",
"UXUXUXUX- | 2.4.3.{ > p %.UXUXUXUXUXUXUXUXUXUXUXUXUXUXUXUXUXUXUXUXUXUX8 ] rXnX-X3X<X<X<X-XlXdX0.!  XlX3XnXZ.q.lX3X<X3X<X1X<X<X<XfX7X>X>X2XiXAX=.UXUXUXUX",
"UXUXUXUX: { 3.<.<.' 9.K.;.@.UXUXUXUXUXUXUXUXUXUXUXUXUXUXUXUXUXUXUXUXUX8 s.IX-X1X<X<X<X<X1X-XnX-Xq. XlX-X7XnXlX>X<X<X<X<X3X-X2XIXIXIXZX-X-X7XDX;.UXUXUXUX",
"UXUXUXUXp 5 1.<.~ _ L.IXOXa.+.UXUXUXUXUXUXUXUXUXUXUXUXUXUXUXUXUXUXUXUXK n.IX<X<X<X<X<X<X<X<X-XlXlX3X-X2X-X7X3X-X<X<X<X<X-X7XIXy.O n CXiX2XiXIXr.UXUXUXUX",
"UXUXUXUXV 3  .X.Y q.dXjXIX-Xx.0 UXUXUXUXUXUXUXUXUXUXUXUXUXUXUXUXUXUXUXUXx.IX<X<X<X<X<X<X<X<X<X<X3X2X2X2X7X-X2X2X<X<X<X<X3XIXI.      e.IX5X7XDX:.UXUXUXUX",
"UXUXUXUXUXk 4 U 5.$XnX-X7XAXtXl.= UXUXUXUXUXUXUXUXUXUXUXUXUXUXUXUXUXUXUX;.IX2X2X-X7X-X7X-X7X<X<X3X-X3X-X<X<X<X<X<X<X-X7X-XIXy.      @ ZX>XiX7X;.UXUXUXUX",
"UXUXUXUXUXS 1 { }.nX5X-X7X-X7XIXx.e UXUXUXUXUXUXUXUXUXUXUXUXUXUXUXUXUXUXA *XMX-X7X-X7X-X7X-X-X-XIXIXIX-X<X<X<X<X<X<X7X-X7XAXrX+ . X T.DX5XDXOXN UXUXUXUX",
"UXUXUXUXUXUXf s.DXfX5X>X7X-X-XfXIXx.0 UXUXUXUXUXUXUXUXUXUXUXUXUXUXUXUXUXh Y.IX-X-X7X-X7X-X7X-XIXOXy.rXIX-X3X7X-X7XIXIXIX-X-XZXIXR.#XIX3X>XIXF.c UXUXUXUX",
"UXUXUXUXUXUXUX+.W.IX>X>X-X3X7X-XiXIXa.a UXUXUXUXUXUXUXUXUXUXUXUXUXUXUXUXUXf.IX2X7X-X7X-X7X-XIXT.X   o +XAX<X-X7XIXT.n t.AXIX7XfXIXIX-X-X-XIXj.UXUXUXUXUX",
"UXUXUXUXUXUXUXUX8 W.IX-X3X-X7X-X-XjXIX:.s UXUXUXUXUXUXUXUXUXUXUXUXUXUXUXUXK AXuX7X3X-X7X-X7XIX+       t.IX-XDXrXO     y.IXy.T.DX<X<X<X<XuXIX+.UXUXUXUXUX",
"UXUXUXUXUXUXUXUXUX0 !.IX-X7X-X7X3X-XAXIX+.UXUXUXUXUXUXUXUXUXUXUXUXUXUXUXUXa D.IX-X-X7X-X7X-XIXe.      I.IX<XIXAXy.+ X I.e.@ OXfX<X<X<X-XIXF.h UXUXUXUXUX",
"UXUXUXUXUXUXUXUXUXUX8 /.IX-X3X-X<X<X-XDXDXf UXUXUXUXUXUXUXUXUXUXUXUXUXUXUXUX%.IX3X2X-X7X-X7X7XIXe.@ y.IX7X3Xy.oXDXO.t.O.# |.IX-X<X<X3X3XIXZ UXUXUXUXUXUX",
"UXUXUXUXUXUXUXUXUXUXUX7 /.IX-X3X<X<X<X-XIX.X0 UXUXUXUXUXUXUXUXUXUXUXUXUXUXUXJ T.IX-X7X-X7X-X-XiXIXIXIX-X-XAXt.# # t.IXIXIXIX-X2X<X3X-XIXS.f UXUXUXUXUXUX",
"UXUXUXUXUXUXUXUXUXUXUXUX0 U.IX>X<X<X<X<X-XIXF.= UXUXUXUXUXUXUXUXUXUXUXUXUXUXr g IXfX-X1X2X-X<X<X<X<X<X<X-X7XIX{.R.DX<X-X3X<X<X<X>X-XIX%X7 UXUXUXUXUXUXUX",
"UXUXUXUXUXUXUXUXUXUXUXUXUX= U.IX-X<X<X<X3X2XIXf.d UXUXUXUXUXUXUXUXUXUXx j ; : & i.IXiX>X<X3X<X<X<X<X<X<X7X-X-XZXIX-X<X<X<X<X<X<X-XMXIXg UXUXUXUXUXUXUXUX",
"UXUXUXUXUXUXUXUXUXUXUXUXUXUX8 ].IX-X<X<X-X>XfXIXx UXUXUXUXUXUXUXj = I U.G.) | 0.D N.IX>X-X7X<X<X<X<X<X<X-X7X>X>X2X<X<X<X<X3X<X-XIXIX+.UXUXUXUXUXUXUXUXUX",
"UXUXUXUXUXUXUXUXUXUXUXUXUXUXUX7 OXIX-X7X-X7X-XIX|.0 UXUXUXUXg $.>., J.IXZ.R ~ }.lXh x.IXjX-X<X<X<X<X<X<X7X-X7X>X-X3X<X<X<X-X3XIXOXy * UXUXUXUXUXUXUXUXUX",
"UXUXUXUXUXUXUXUXUXUXUXUXUXUXUXUXg tXDX-X7X-X7X7XIXv.C UX7 & M.IXw.Y L.nX9.R ...XIX#Xc r.DXIX7X>X<X<X2X-X5X>X5X5X<X<X<X<X<X3X6XM.@.f *.UXUXUXUXUXUXUXUXUX",
"UXUXUXUXUXUXUXUXUXUXUXUXUXUXUXUXUXA IXiX-X3X-X-XjXIXt e >.} &XMX<.' -X*X<.R 9.3XuXIXfX;.H F.IXIXDXAXiX7X7X7XiXDXDX<X-X<X<XAX|.u.%XD.UXUXUXUXUXUXUXUXUXUX",
"UXUXUXUXUXUXUXUXUXUXUXUXUXUXUXUXUXy m.IX2X-X-X7XIXM.v @XP.} dX=X{ <.lX}._ T J.nX-X-XMXIXA.=.=.l.Y.OXfXDXDX7X#XU.D.iX7X<X3X<X<XIXIXa.UXUXUXUXUXUXUXUXUXUX",
"UXUXUXUXUXUXUXUXUXUXUXUXUXUXUXUXUXUX8 Y.IX-XiXIXg.l 7XIXH.<.lX*X! 0.nX(.) _ }.nX3X-X-X<XIXAXD.i.=.%.;.;.=.=.=.#.m.ZX7X3X-X-X2X3XCXr.UXUXUXUXUXUXUXUXUXUX",
"UXUXUXUXUXUXUXUXUXUXUXUXUXUXUXUXUXUXUXg ZXAXIXN.l 7XIXnX(.<.-X3X_ q.nX(.R 5.3XsX2X-X3X<X>X7XIXIXDXOXY.F.F.~.|.AXIX-X-X7X-X7X-X7XIX@.UXUXUXUXUXUXUXUXUXUX",
"UXUXUXUXUXUXUXUXUXUXUXUXUXUXUXUXUXUXUXM d.IXU.y %XIX-XuX%XL.-XnX0.H.nX(.Y b.nX2X-X3X<X<X-X7X-X3X3XjXMXIXDXDXfX7X-X-X<X<X7X-X1XfXAX%.UXUXUXUXUXUXUXUXUXUX",
"UXUXUXUXUXUXUXUXUXUXUXUXUXUXUXUXUXUXUXUXf /.@.F.IX-X7X>XuXlX3XuX X*XnXL., L.nX<X<X<X<X<X7X-X7X-X3X-X7X-X2X2X-X7X<X<X<X<X2X-X2XfX*X@.UXUXUXUXUXUXUXUXUXUX",
"UXUXUXUXUXUXUXUXUXUXUXUXUXUXUXUXUXUXUXUXUX$ l.IX2X7X-X-X2X3X<X-XlX3XlX X<. XlX<X<X<X<X<X-X7X-X7X-X7X-X7X-X2X7X-X<X<X<X<X2X2X2XDX+XH UXUXUXUXUXUXUXUXUXUX",
"UXUXUXUXUXUXUXUXUXUXUXUXUXUXUXUXUXUXUXUXUXt 1XZX-X7X-X7X-X7X-X7X<X<X<XuX.X%XuX<X<X<X7X-X7X-X7X-X7X-X7X-X-X7X-X7X-X7X-X7X-X7X-XDX|.H UXUXUXUXUXUXUXUXUXUX",
"UXUXUXUXUXUXUXUXUXUXUXUXUXUXUXUXUXUXUXUXUXm.IX-X7X-X7X-X7X-X7X-X<X<X<X<XlXuX-X-X<X<X-X7X-X7X-X7X-X7X-X7X7X-X7X-X7X-X7X-X3X-X5XMX[.J UXUXUXUXUXUXUXUXUXUX",
"UXUXUXUXUXUXUXUXUXUXUXUXUXUXUXUXUXUXUXUXM *XjX3X-X7X-X7X-X7X-X7X<X<X<X<X<X<X<X3X<X-X7X-X7X-X7X-X7X-X7X-X-X7X-X7X-X7X-X7X5X-X>XDXW.#.UXUXUXUXUXUXUXUXUXUX",
"UXUXUXUXUXUXUXUXUXUXUXUXUXUXUXUXUXUXUXUXr.IX<X<X7X-X7X-X7X-X7X-X<X<X<X<X<X-X6XDX-X7X-X7X-X7X-X7X-X7X-X7X7X-X7X-X7X-X7X>X>X2X2XDXW.G UXUXUXUXUXUXUXUXUXUX",
"UXUXUXUXUXUXUXUXUXUXUXUXUXUXUXUXUXUXUXx D.DX-X7X-X7X-X7X-X7X-X7X<X<X<X<X-XuX+X_.7X7X7X-X7X-X7X-X7X-X7X-X<X<X<X<X<X<X<X<X<X<X<XDX[.w UXUXUXUXUXUXUXUXUXUX",
"UXUXUXUXUXUXUXUXUXUXUXUXUXUXUXUXUXUXUXJ 7XfX7X-X7X-X7X-X7X-X7X-X<X<X<X3X3XDX~.+.7X7X-X7X-X7X-X7X-X7X-X7X<X<X<X<X<X<X<X<X<X<X2XDX].w UXUXUXUXUXUXUXUXUXUX",
"UXUXUXUXUXUXUXUXUXUXUXUXUXUXUXUXUXUXUXa.IX7X-X7X-X7X-X7X-X7X-X7X<X<X2X-X<XDX|.#.OXZX7X-X7X-X7X-X7X-X7X-X<X<X3X-X<X<X<X<X<X3X2XDX^.s UXUXUXUXUXUXUXUXUXUX",
"UXUXUXUXUXUXUXUXUXUXUXUXUXUXUXUXUXUX+.N.IX-X7X-X7X-X7X-X7X-X7X-X<X<X2X-X2XiX-X#.).DX-X7X-X7X-X7X-X7X-X7X<X<X<X3X<X<X<X<X<X-X2XIXY.d UXUXUXUXUXUXUXUXUXUX",
"UXUXUXUXUXUXUXUXUXUXUXUXUXUXUXUXUXUXH R.DX<X<X<X-X7X-X7X-X7X-X7X<X<X<X<X<X3XDX;.U.DX2X2X7X-X7X-X7X-X1X3XfXjX3X-X<X<X<X<X<X<X<XDXU.s UXUXUXUXUXUXUXUXUXUX",
"UXUXUXUXUXUXUXUXUXUXUXUXUXUXUXUXUXUXG <XfX<X<X<X7X-X7X-X7X-X7X-X<X<X<X<X<X<XIX;.B.IX3X-X-X7X-X7X7X-X7XIX6X%XIXDX-X<X<X<X<X<X2XIXF.d UXUXUXUXUXUXUXUXUXUX",
"UXUXUXUXUXUXUXUXUXUXUXUXUXUXUXUXUXUX;.IX5X>X<X<X-X7X-X7X-X7X-X7X<X<X<X<X<X<XIXu.v.IX<X<X7X-X7X-X-XfXIXh.G c K [.IX-X<X<X<X3X-XDXD.d UXUXUXUXUXUXUXUXUXUX",
"UXUXUXUXUXUXUXUXUXUXUXUXUXUXUXUXUXUXl.IX7X>X<X<X7X-X7X-X7X-X7X-X<X<X<X<X<X-XIXx.d.IX<X<X-X7X-X7X3XIXi.w UXUXUXy [.DX<X<X<X-X2XIXD.d UXUXUXUXUXUXUXUXUXUX",
"UXUXUXUXUXUXUXUXUXUXUXUXUXUXUXUXUXUXj.IX-X3X<X<X-X7X-X7X<X<X<X3X<X<X-X3X<X<XIXN.;.IX5X5X>X>X7X-XIXD.a UXUXUXUXUX%.IX5X5X>X5X>XIXF.d UXUXUXUXUXUXUXUXUXUX",
"UXUXUXUXUXUXUXUXUXUXUXUXUXUXUXUXUX7.m.IX<X<X<X<X7X-X7X-X<X<X<X-X<X<X2X3X<X<XDXY.=.iX5X>X5X>X-X7XIXa.UXUXUXUXUXUXA iXiX-X>X>X2XDXU.s UXUXUXUXUXUXUXUXUXUX",
"UXUXUXUXUXUXUXUXUXUXUXUXUXUXUXUXUXH D.IX<X<X<X<X-X7X-X7X-X-XDXIXIXIXIXDXiX-XfX#X=.OXAX>X>X5X>X-XIXg.UXUXUXUXUXUX@.{.DX2X3X-X-XIXE.s UXUXUXUXUXUXUXUXUXUX",
"UXUXUXUXUXUXUXUXUXUXUXUXUXUXUXUXUXj W.DX<X<X<X<X7X-X3X-XiXIX|.k.M.h.N._.AXIXIXIXr.F.DX>X>X1X>X7XIXg.UXUXUXUXUXUXf F.DX2X<X2X2XDX/.w UXUXUXUXUXUXUXUXUXUX",
"UXUXUXUXUXUXUXUXUXUXUXUXUXUXUXUXUXh _.DX<X<X<X<X-X7X-X7XIXm.s UXUXUXJ C %.a.N./.J n.IX5X<X<X-X2XDXp.UXUXUXUXUXUXZ N.IX<X<X<X<XDX].w UXUXUXUXUXUXUXUXUXUX",
"UXUXUXUXUXUXUXUXUXUXUXUXUXUXUXUXUXh _.IX<X<X<X<X7X-X2XIXv.= UXUXUXUXUXUXUXUXf %.= g.IX-X<X<X3X2XIXp.UXUXUXUXUXUXUXg.IX<X<X<X2XDX].w UXUXUXUXUXUXUXUXUXUX",
"UXUXUXUXUXUXUXUXUXUXUXUXUXUXUXUXUXf _.DX<X<X<X<X2X1XZX|.0 UXUXUXUXUXUXUXUXUXUXUXUX7.DX3X<X<X2X2XIXa.UXUXUXUXUXUXUXp.IX-X-X2X2XDX].w UXUXUXUXUXUXUXUXUXUX",
"UXUXUXUXUXUXUXUXUXUXUXUXUXUXUXUXUXg ~.IX<X<X<X3X-X>XIXp.UXUXUXUXUXUXUXUXUXUXUXUXUXG |.DX<X<X2X2XDXg.UXUXUXUXUXUXUXJ AXfX3X2X2XDXE.0 UXUXUXUXUXUXUXUXUXUX",
"UXUXUXUXUXUXUXUXUXUXUXUXUXUXUXUXUXx D.IX<X<X<X<X<XfX7Xc UXUXUXUXUXUXUXUXUXUXUXUXUXN m.IX-X7X2X2XIXg.UXUXUXUXUXUXUXx _.DX2X2X7XIXA.j UXUXUXUXUXUXUXUXUXUX",
"UXUXUXUXUXUXUXUXUXUXUXUXUXUXUXUXUXH B.IX<X<X<X<X3XIXU.M UXUXUXUXUXUXUXUXUXUXUXUXUXUX&.IX2X7X-X7XIXl.UXUXUXUXUXUXUX+.x.IX-X-X-XIXn.UXUXUXUXUXUXUXUXUXUXUX",
"UXUXUXUXUXUXUXUXUXUXUXUXUXUXUXUXUX7.k.IX<X<X2X1X-XIXa.UXUXUXUXUXUXUXUXUXUXUXUXUXUXUXx ].DX-X-X2XIXM.UXUXUXUXUXUXUXUXx IXjX-X3XIXp.UXUXUXUXUXUXUXUXUXUXUX",
"UXUXUXUXUXUXUXUXUXUXUXUXUXUXUXUXUXUXa.IX<X3X-X>X3XIX&.UXUXUXUXUXUXUXUXUXUXUXUXUXUXUXUXF IX7X>X2XIXM.UXUXUXUXUXUXUXUXZ r.IXDXDXDXN UXUXUXUXUXUXUXUXUXUXUX",
"UXUXUXUXUXUXUXUXUXUXUXUXUXUXUXUXUXUXu.IX3X-X5X>XDX#XH UXUXUXUXUXUXUXUXUXUXUXUXUXUXUXUXa m.IXfXdXIXa.UXUXUXUXUXUXUXUXUXt :..XCX;.H UXUXUXUXUXUXUXUXUXUXUX",
"UXUXUXUXUXUXUXUXUXUXUXUXUXUXUXUXUXUX+.DX7X7X>X>XIXV.C UXUXUXUXUXUXUXUXUXUXUXUXUXUXUXUXUX0 l.IXIXU.a UXUXUXUXUXUXUXUXUXUXUXN y C UXUXUXUXUXUXUXUXUXUXUXUX",
"UXUXUXUXUXUXUXUXUXUXUXUXUXUXUXUXUXUXN [.DX-X3X5XIX-.UXUXUXUXUXUXUXUXUXUXUXUXUXUXUXUXUXUXUXh H @.a UXUXUXUXUXUXUXUXUXUXUXUXUXUXUXUXUXUXUXUXUXUXUXUXUXUXUX",
"UXUXUXUXUXUXUXUXUXUXUXUXUXUXUXUXUXUXUXg.IX2X-XDXOXt UXUXUXUXUXUXUXUXUXUXUXUXUXUXUXUXUXUXUXUXUXUXUXUXUXUXUXUXUXUXUXUXUXUXUXUXUXUXUXUXUXUXUXUXUXUXUXUXUXUX",
"UXUXUXUXUXUXUXUXUXUXUXUXUXUXUXUXUXUXUXa 7XIXDXIX%.UXUXUXUXUXUXUXUXUXUXUXUXUXUXUXUXUXUXUXUXUXUXUXUXUXUXUXUXUXUXUXUXUXUXUXUXUXUXUXUXUXUXUXUXUXUXUXUXUXUXUX",
"UXUXUXUXUXUXUXUXUXUXUXUXUXUXUXUXUXUXUXUXz %XAXp.h UXUXUXUXUXUXUXUXUXUXUXUXUXUXUXUXUXUXUXUXUXUXUXUXUXUXUXUXUXUXUXUXUXUXUXUXUXUXUXUXUXUXUXUXUXUXUXUXUXUXUX",
"UXUXUXUXUXUXUXUXUXUXUXUXUXUXUXUXUXUXUXUXUXy l e UXUXUXUXUXUXUXUXUXUXUXUXUXUXUXUXUXUXUXUXUXUXUXUXUXUXUXUXUXUXUXUXUXUXUXUXUXUXUXUXUXUXUXUXUXUXUXUXUXUXUXUX",
"UXUXUXUXUXUXUXUXUXUXUXUXUXUXUXUXUXUXUXUXUXUXUXUXUXUXUXUXUXUXUXUXUXUXUXUXUXUXUXUXUXUXUXUXUXUXUXUXUXUXUXUXUXUXUXUXUXUXUXUXUXUXUXUXUXUXUXUXUXUXUXUXUXUXUXUX"
};
