/* XPM */
static char *grass[] = {
/* columns rows colors chars-per-pixel */
"76 76 46 1 ",
"  c #DEC271",
". c #DFC57B",
"X c #E9CD6E",
"o c #EDD16E",
"O c #F4D967",
"+ c #E4C675",
"@ c #E6C976",
"# c #E9CD75",
"$ c #E4C67A",
"% c #E6CA7C",
"& c #E9CC7D",
"* c #ECD174",
"= c #EDD27C",
"- c #F0D570",
"; c #F6DB70",
": c #F1D67B",
"> c #F3D97D",
", c #E6CB82",
"< c #EACD83",
"1 c #E7CB89",
"2 c #EACE89",
"3 c #ECD285",
"4 c #EED38B",
"5 c #F1D685",
"6 c #F3D984",
"7 c #F0D68C",
"8 c #F2D98D",
"9 c #F8DD8E",
"0 c #EACF95",
"q c #EED592",
"w c #EFD894",
"e c #EED59A",
"r c #EFD89A",
"t c #F1D692",
"y c #F2D994",
"u c #F8DF96",
"i c #F1D799",
"p c #F4DB9B",
"a c #F8DE9E",
"s c #F7E097",
"d c #F7E09A",
"f c #EED5A2",
"g c #F4DCA2",
"h c #F5DEA8",
"j c #F6E0A2",
"k c #F8E1A1",
/* pixels */
"<%%%%%%,$<1+&4it7484qut444<<,<&<4=,2<3<<7433744y7t58q8466447y74q7444uippyppp",
"@,&%<%%<%&<$&$<37754qtatt747<3q34t44t33e7484488438t7877ttathgtqqpt84<84qytyy",
"<2,%%%@%&%&&43<<777777ppuiy88t4434474thq44777t47t4444ypiyw4tgwppfyt42r7wq7i7",
"&#%%&%%%&2,37t7774758y4ppiygt7t877yt8tt475447748747tiiy373$+X3<rppgpwit4q477",
"&<<,%<4i4tq774ttty7aw4q334twrr8yappppadgp97777tw8ypp4,@&<,=. 4<24qprqt>ytttt",
"<<73,44i4<iyp7tyy443$%3<$%,&02#*,qhpyqqppppyypyppy7%@%<2<<3$&$333=<qpy4hp78p",
"754q777t7t2pt74<3&,2,<<333@&&@$%@,<&,@,4tyyqypy4%+<,34<224<,,,13&q4&35gti99p",
"7t7tytppgp57<<<<,343,<<%3&,,<<,%<@@,%%&3<74774ypt442$&%43@3y&3<444t3q454tt7t",
"tyyppgwt02<7%&<2%,&%&<2<%,:=1,<&&<77<4w53q444t33tagw2<<&443374457t34ti448477",
"apiit3%<&<<,&<5#%<,,<<@21$&333<34<743yt423448y34<4yuutttwy4<<7w4qtt848<4q57w",
"4q6433347<=42%<*<4333445=<2q7543377,333wt74tt47w6:256pgt409qqyr89ippywt77yyt",
"<457347:t5347<72y7t43t<37774<7744774,43>7467747t77447yytqeysdrppp46tywypghii",
"t84434q4t44747tqtwp47t4tt7t734847t777t657744788777777<57pyy44yyw44844744yt7t",
"y47478777t43784744w5747tit478444557q74qt78448466547tt24777743ww777w7tq47777t",
"pappp44y3q42y7tt34747747y47twtqqt9tt8744yyy74t4t8t68tt777t7t387w74544t7t4ppr",
"4q4t4wtgit8t7477q944774777piypaapy7iypiappw7wqt8tt845>i7ty4t787487t438q7t44t",
"&$$$@&,4wypp44w74t8844tytypppw43,&<%<&,27tpuptt777tt86784pw8t84877tt5twt8:qt",
"<%@<2#X@,<3wa96w88t48yypppaq<&%@%%&&$%%<4,237i97t727tw487448ttt4tt2yttyr38t7",
"$%#<,,=&,<%$239pyyyppppppw&@$,<&<,@&,,<<&,$@<q7up7t5>448ttyyprp8ygtgyyytttty",
"$3<&@&,,<443<3w8iy947<<<%<%$2&%<<&2,&##<,<q<q34tuattttttwyp43<,*<pypgp4pypia",
"%%t2%<<78334wy347772=o%,<,&1=#22$,1$33=<2:6457t74iyppdat44&$$&%,,$24ppwpipaq",
"<,5573737448w478774<<3,<3%2<&<1qO=%<7527777<3877774wy43,%%&&&<<<2@<,%2q7py4%",
"4753772778w==6777477<q444442p34w7:<7t5777777487773333%=,=3,,&&,2<@<q,&#24,,q",
"27t74t7yt474877t,7775ti74w71<34t47y77tt7tyytypttyp43<,3313$,&&,$<%473552w4qi",
"t707yt77t77if7tt377t76823t744tiq47787aw8t7347244tpjy9434224744q4444444437484",
"t717ttytt7t747777337t78436t8qwq77tyut42=*$$<<+,&@%3tigp867744py47yt846687554",
"ppttaipatpipyt7pt777t4t7t4tt44ytupt<$<<<$%,<&&$%t<$%&tppypt87t4444447t4t8447",
"yypyytt69pipp9yppipgyyttytyy9pkp7,,%&<$%&<%<$&$$<<&&@+2ipppppyyt88tq84737y78",
"77334<<:<447tpatyppayigpiaww6q==,3$<%$%=<@%&&%&<$<&&%%&%78pppypyppppyyyqppgu",
"&,%%1+%<@$$$44778tt9yypywq3&q<+&3#$$%%<%@33%=%%&4<$&=3<+&4ttypipppyiuyypttt4",
"%##,%&$&q%$&,,,<47t4344<%+30,<2<%&&$&<3%#=&%%&&&4433443444778ttyt8ttt77777tt",
",&&%X*&%&&<2,%@&2<&,3q4<4=2q&q4%%=<$<<&&,%&$4w333444434t54q<34t746747et49ttt",
"@,%<q%%%@@,,,%434<344<<3,<3$<<<&<%$%3<244<<,44434444774t8i=344t7t7w47673442<",
"&%%<2@%37<47<47<344674374354<33<74444444347p7<tttp7748843466784t34338>45:q,2",
"<<<<@&3474<7q7734888y477747447777444474<7it7ti47474353774t467q8t33444ry32e<3",
"=4747474<7tt3ttt7444t774747777t7444777t<7t44777typqq98t74ett767487t84wt42443",
"9w44447tttyyyywgpty755t777774778377777yt7757ypiyqqt4qpaaqey7t67747tq7t467qtt",
"q2477tqyaapu8pytyyygpyt754t74t7t3487tt787tppt8*&,,&,,%,4pipy84776t8864q5547t",
"wpy8qpap4q33$<3$&%:7tpypq457t7qtt47tt7<7pgt4,+#@@&,2%$+<328sp1parppt8ttpt8it",
"ypayeiy4$$**,<<%<<3<&<tphpyi774<t444t8tgy<%&&$,<4<&%%<%4%+4weppyprp9ypyrppyu",
"7iwi95&&3&%1=,,,<2%&<3,3tyagtrq4y44ppu4<%<&%$3%<2&%,,<3%$3q<7pytipeyrppytp96",
"$<%%#&&,,4<2**q<&3&=3t43<qtyiihpuyr443%@&&@33,<$+<<3<<q4444=8t4wt54ptq68t7q4",
"<%%%,<,<%<4%$&7434744t48q2774tq4<334<$<&4<<33443<<;50,55qq4225qt4t8ytt57t74t",
"33333343744444747y44yq3q43779tq=3y6fyy447q43777tt77tt:5tt74y775pupgppkjww44t",
"23tw444yt32itp747t4tt44t7437qyhy6rq3q7ugpt84744t774y76:7y8tyyyysut2337qppy77",
"w7674t8tt4p44477748q7747wwyp4t4,%&%<,o=44ugrq4q777q4t48yq4ppyat&$,@%$$+%<ta7",
"wwtpwyppppjptyt875tt7py4tpy74,,*$q333,2,%,3pgpy,q7>8ypwpeqp85<$<3<%4<&<<$@<a",
"pipywppyupqwysgp7t7477tpt7&&1*&**2$<,&<<33*,8pitw49jpwppyr4%$%&&<<<3%33<%$@<",
"pppyyy4,33$%<<iaagp7tgp7%,,===3<$+$%@%3&<4233typywipttt4$$<3<<,$&%$43&&<%&3<",
"y4w4%<&+.<&,%+,%2pepaiq<<4,<,<,%,2&<3377<348453q9tpy77<&,3<<&<&%&@343<,44444",
",@,%@%%%$,4<,33%,3,t7&<3<44,2<<<q4<444474<8477747474,<<,3<<<&<333<<3yp<44t45",
"@&%&<%%,&4i<<q4373847,<47427q34844734w438t74747448447255433<47444344r4347t74",
"<4%<3<,<44444t47887tt8847778448844874t4477777777t78wy7tyyt74<44784886484t77t",
"4422<544t374:4t84487774t7t7777t348774444t77t7754qyyppgppdytt7887744444874t77",
"7q37777tt8t7yp48442yyyywpp77774t7777448yy77777yt7a765qt78payyt774877q7qr3475",
"tt7777774tt4e477ypqwyppyqypyyt847478338t4847tyay73&&%$@@<&4paequ7484844tt375",
"75747844778448wyppuyppyyuypuyppy8778448t448ypy43&%@$%%#X$@.34uaiqqyt7tty7777",
"484w47578888typyuy413<<&&<<37qapppt88747wypaq&@$&&&%%&&,,&&@@<4pppyppppppppp",
"844a747y74typpp7<,+@,##,$$$%%@,ypppttttuppq=5,@$<%&%&<&&3&%&<@&:7ypy97ttptpp",
"84y74u484ygpyw&$$%&&,##,&$&&$%.&<typywwwy3%%:,&3<&%&,%%&&&&44247744q4747q4>t",
"78py8upgupp243@%&&&&%&&@%%%@&<333478u4,4&%3<%%*<&<<<o=4443473577438784847757",
"ttw3tpyt44<%34$&,<%%&$&%&3<,844q8t4344&3<34&&,3<<47<=34444y4767t44q7478q6>77",
"7783wt4<<*33<%<3<<,&&&<y7<4744864t4t8yy4tt557<44<773t33844777t43q7tt84<87577",
"547p443332333,484<774<<y775448t44yp4yypdy99ypy77p7778447777tt774377784377q77",
"777778tt7t7ty97743737t434767ywwpppdqqryty8qwppytyt7476487777t54847777y77t737",
"4ywyypapaappyyypyy7478w4847yyssy43333&%<=*4t4tuapuyqt77477776>q78yyyypyy7377",
"yyy74343t4quppyihttpp674yyppsw4<@&1&#$%&#=,$<&424ppuppiptytpyyuyt4431&9ipig7",
"y43$%=%@%$&,57qpapppitytpppp4&$%&&$$,$%34<%$2=<&&4w8tyyypyu8w4<,=$,.$&+$<4yp",
"&&<&$33%$&%%#@$3<typpippyt43&&<<<#%==&,37437,<377474748877<-%@%&$<&-<,$&$#$3",
"$&%%%&3,%%&%$%&%%&544yt344333<3<7<3334,3647-7747877787447<@#3&%<343#*3%,<&&@",
"&&<&&%%%@&<<&34<7773543744474334773q4444wtq477t747773%&,<<&1<<&&&&22<&<3$&&&",
",<3,%<&%33<4473477q58q5yt74847ww477477874tq4t4374&<<%&,&%,,3<&&,$&&$%$<,%%3<",
"43<443<37544=577487qr48qw47437iy577765747384q33y<%%,<<<&$<<<<,&%&@$<,&<<<47<",
"443t444777t44777447t78q4w777777777t77743tt44443<<343<&%&&<&@,42%&<4p7<<77t5<",
"47474t4675t884778784777tt4tttt77q77777tpytt8q6=&42,3<<%2<&&<<334<444q4434477",
"84774874847774748474t77t78yt7ty8qit7577yy78347732734733<3t73<4t3743tt4t5378t"
};
