/* XPM */
static char *sand[] = {
/* columns rows colors chars-per-pixel */
"50 50 41 1 ",
"  c #DEC271",
". c #EED26E",
"X c #F4D967",
"o c #E3C675",
"O c #E5C976",
"+ c #E9CD75",
"@ c #E3C67A",
"# c #E6CA7C",
"$ c #E9CC7D",
"% c #EDD273",
"& c #EDD27C",
"* c #F6DB70",
"= c #F1D67B",
"- c #F3D97E",
"; c #E6CB82",
": c #EACD83",
"> c #E7CB8A",
", c #EACE8A",
"< c #ECD185",
"1 c #EED38B",
"2 c #F1D685",
"3 c #F3D984",
"4 c #F0D68D",
"5 c #F2D98D",
"6 c #F8DD8E",
"7 c #EACF95",
"8 c #EED492",
"9 c #EFD894",
"0 c #EDD599",
"q c #EFD899",
"w c #F1D692",
"e c #F2D994",
"r c #F8DF96",
"t c #F1D799",
"y c #F4DB9B",
"u c #F8DD9C",
"i c #F7E09A",
"p c #F4DCA2",
"a c #F8DEA0",
"s c #F5E0A3",
"d c #F8E1A1",
/* pixels */
"518<8e41<wwt444w1<<434w444w4w444w<3311e41<4444<<ew",
"4w4<2414444t,wewew1ewww4w14www44w4e4e43ww44we4w,44",
"141w5114w4444yyeyuiywwwettuyut4w1w4w54w3384ww4e455",
"8w44w43444eeweyy91<:$;;:$$>48uey4w4wwww43444q94w11",
"63w4551eeeyyyu8:$#OO#$###O:<#,<wu551w<<ew414414e5e",
"<ryeeeyyyyeyw$O#;:;:>O$;>>:$;#O;w4yy5w3=1<585eeuey",
"<eetee81;::#>#O,$#:;$:;#+$:;:w:8<8rype8eeew0ey1<>;",
"e<<2w<<&%#;:$#>&+>,#>;#<:=2,-3,24w<1yeyyuye11;O#$O",
"429811<<:;:4#>:$:,wX&O:w31<2<211424128ee42:#@$#$$:",
"2445214<844,1<1q<,932<4w=441ww1,5442<<<<#+;&$;;$#$",
"415:1e42wt4494>:<8w81444tw1eeeeeueeyy1<$$:,>,$;$$;",
"4e81151434,,68<4wtw<4454u9we4:44:11epaee4<4,:4w1<8",
"41151<41441<3ww898w4weew1,&%#@:: ;#O$:9uuy4-8414ye",
"e5qww44w11581ww11weyuw<#::$#@;:$;@#8:OO$4uyetww481",
"e5yyeyp9yweewye6ydy1:$O#:@$$;$$#$OO;:$:OO,tyuyeyee",
"yieeyyyeypypuw931&&::@:$#$#:##:#$$:$#:$O#$#15yyyyy",
"8155ee4wwye981;1;o#<#O@O#:@#&<#:##:1:#$<::@;8eeeyy",
"::<11e<<w4:Oo,8::1<#$:#$:<O+$;O##:$11;<4<:<4<445ww",
"#+:,:$:<4,:<$,8:71O#:$O::#$;#:$1w<<<1414<<w4<w1<44",
"#::<<<11::1::<O<:<;<#@::111<:::4<4<<114444w4t&<114",
"1w<<<1454:41<21<:<:1<141<w<:11y1<e1ey441w44<<33441",
"84<4544e44444411<144141<e1<4tw4ww1414<,22141e434w4",
"w841<41544141<155541<<w444,4w41w88yeeww64e480w4124",
"e9uyeew221444441w44<w5144ew15<wwyyew8e,8iyy4091e34",
"yeeeeryyee4<4w41w4e,<5584w558yyw4%##;$;;#:<yyqe41w",
"::@;#&58yeu94<4w41wew<ew1<1yae<#o$OO;;:##o,,16ut1y",
"::$<;1:#:eupyeew41:5<1144ede<##;O;:8:#$$:#1; <8qyy",
";;$::O;::::weypwt9ee11yyy8:#:;O$,O;1$@;;:<O#<8<5yq",
"+1:$:::<e<<<8weytppyre11<#o$#o<<:,O ::<:<,4<1<&4w<",
"$41<<411e1e8,44<ww,:$<8;O$$<<<,<<<<,<*27>32w81,118",
"1444e52e7<81<415e1<&w4pee84ww<24w44e44w5&2ww14ew43",
"y114e<ew<1w44<18epi5t1<84rpuww44115444w43=ww5wewe6",
"152414w442we8ey8w4;#$#:>.=,1eay11811284e51e8,yeeyw",
"e8e14ew1ye<9yy1<;$+#t:<<#::#;1ypuw;w4=8eyyqy0y43;O",
"upy4814w1wut<$:,+$%#>@:$:::1<%;59te986sy8yyy91$##;",
"<qyutu4wpu1#>:&&=<;Oo@$@#:$;<:1<wyye9qyy9e<O$;1::$",
"o##1y0yuy8::1;:::;$::$::<45:<1e14<86eee1<:##><$$:$",
":<#;<;w1$:<:11::<::w8:<81111<415421444<:<<:<;<;$;1",
"81<4<414><421,18,<4<<411e1158411<w1444111,<<1<<14<",
"e<4e54ww411144e144444w544<<41451444w15ew4ere821:11",
"4e51<541415155512e<1e1914<4w44w44418eeeeuuyyeee445",
"e<411<eyye9qy14511e4241114ee44444ww4uw34881eyueew1",
"154yu8eeeye9iey9e444115<<5e4444eeur4<$$@Oo+$;1yuy0",
"89eyquyuyeyeeueeyye4515414e4<4wyy<&####@;++@@o<5uu",
"yeeiw1;<;:$$::<58uyyy844514ewyu8$@##$$#$$$$;&$#O&1",
"yy4:;@o@++:#@O##@>eyyyeeeeeyyw<&;o#:$&@$:$#:$@#:O#",
"e$O##$$$#+$$#$$## $<4eye94ee2#+&:$<::##;@#:$<:<<,4",
"<O#;$$$#$$@@$O@;1:<<155e8;1$#:;;#&$#:$:.$4<1<1w<3w",
"<#;::O$$##$$<:>4<185e1<4<:::<:;$;:::42:=<111<e5134",
"#:<:::$:#<84<<5<143151e55e4ww324<44:442w,<w4<44w5<"
};
