/* XPM */
static char *water[] = {
/* columns rows colors chars-per-pixel */
"76 76 203 2 ",
"   c #00ACCE",
".  c #00B6CD",
"X  c #00BBCF",
"o  c #0ABCCD",
"O  c #00AED3",
"+  c #00B4D5",
"@  c #00BDD3",
"#  c #0ABDD1",
"$  c #00B6D9",
"%  c #01BBD9",
"&  c #12BED2",
"*  c #0BC0CD",
"=  c #17C2CE",
"-  c #00C4D5",
";  c #0BC4D5",
":  c #01CAD6",
">  c #0AC9D6",
",  c #01C4D9",
"<  c #0BC5DA",
"1  c #01CCD9",
"2  c #0CCBD9",
"3  c #13C3D2",
"4  c #1CC2D5",
"5  c #14C9D6",
"6  c #1AC8D7",
"7  c #12C6DC",
"8  c #13CCDB",
"9  c #1CCCDB",
"0  c #00D3D6",
"q  c #01D4DB",
"w  c #0CD5DC",
"e  c #01DBDD",
"r  c #0CDDDE",
"t  c #17D2D7",
"y  c #15D4DD",
"u  c #1CD3DE",
"i  c #14DBDE",
"p  c #1ADBDE",
"a  c #24C3D7",
"s  c #28C4D5",
"d  c #21CBD5",
"f  c #23CCDB",
"g  c #2CCBD9",
"h  c #3CC5D9",
"j  c #34CBDC",
"k  c #3CCBDB",
"l  c #22D4DF",
"z  c #29D3DD",
"x  c #26DDDB",
"c  c #2DDDDE",
"v  c #33D2DD",
"b  c #3AD2DC",
"n  c #32DADF",
"m  c #3CDDDF",
"M  c #01E1DF",
"N  c #17E0DE",
"B  c #21E4DE",
"V  c #13C8E1",
"C  c #1BCDE1",
"Z  c #01DFE0",
"A  c #0BDEE0",
"S  c #16D5E0",
"D  c #1CD4E1",
"F  c #1BDDE1",
"G  c #21CEE2",
"H  c #24D6E1",
"J  c #2AD4E2",
"K  c #24DBE2",
"L  c #2CDDE4",
"P  c #2CDCE9",
"I  c #37D4E0",
"U  c #38D5E1",
"Y  c #33DDE4",
"T  c #32DDE9",
"R  c #39DEEB",
"E  c #02E3E0",
"W  c #0BE4E1",
"Q  c #01E8E2",
"!  c #14E4E2",
"~  c #1CE4E3",
"^  c #14EAE4",
"/  c #1CEBE5",
"(  c #1BEDE8",
")  c #1EF0E6",
"_  c #21E4E3",
"`  c #2CE2E5",
"'  c #23EBE6",
"]  c #2BEAE6",
"[  c #23EEE9",
"{  c #2CEDE9",
"}  c #33E3E5",
"|  c #3BE3E5",
" . c #35E8E7",
".. c #39EAE7",
"X. c #35E4E9",
"o. c #3BE5E9",
"O. c #34ECE9",
"+. c #3CEAEA",
"@. c #23F1E7",
"#. c #2BF0E7",
"$. c #26F2EA",
"%. c #2CF1E9",
"&. c #33F3EB",
"*. c #3BF4ED",
"=. c #3CF9EE",
"-. c #3DF7F0",
";. c #45CEDE",
":. c #4BCDDF",
">. c #5ECFDD",
",. c #44D3DF",
"<. c #4BD2DE",
"1. c #45D3E0",
"2. c #4CD8E1",
"3. c #52D4E0",
"4. c #5BD6E1",
"5. c #5ADDE4",
"6. c #65D6E3",
"7. c #6AD3E3",
"8. c #65DBE3",
"9. c #6ADAE4",
"0. c #71D8E4",
"q. c #7BDBE6",
"w. c #43E7E5",
"e. c #4AE7E6",
"r. c #47EEE6",
"t. c #4EE9E7",
"y. c #4AE0E8",
"u. c #43ECED",
"i. c #4AEDED",
"p. c #5CE5E7",
"a. c #55EFE6",
"s. c #5DECE7",
"d. c #54E9E9",
"f. c #42F3ED",
"g. c #49F0EC",
"h. c #42F9EF",
"j. c #4CF8EF",
"k. c #53F5EE",
"l. c #5EF0EB",
"z. c #51FCEF",
"x. c #44E9F0",
"c. c #45F6F1",
"v. c #49F5F0",
"b. c #44FBF0",
"n. c #4CFBF2",
"m. c #53F3F1",
"M. c #53FEF4",
"N. c #5BFFF5",
"B. c #56FFF8",
"V. c #5BFFF9",
"C. c #64E9E7",
"Z. c #64E7E8",
"A. c #63EBE8",
"S. c #75E2E7",
"D. c #7DE3E8",
"F. c #74EDEC",
"G. c #7BEEEB",
"H. c #6AF2ED",
"J. c #76F3ED",
"K. c #63FFF6",
"L. c #63FFFA",
"P. c #6CFFFC",
"I. c #87DCE6",
"U. c #8BDBE8",
"Y. c #91DCED",
"T. c #89E0E7",
"R. c #85E1EA",
"E. c #8AE2E9",
"W. c #85EEEE",
"Q. c #89EEEE",
"!. c #95E6EB",
"~. c #9CE6EC",
"^. c #9EEBEA",
"/. c #84F0EE",
"(. c #8CF2EE",
"). c #96F0EF",
"_. c #9AF2EF",
"`. c #95F2F1",
"'. c #9CF5F2",
"]. c #A4E6EC",
"[. c #A3ECED",
"{. c #ACEAEE",
"}. c #B5EEEC",
"|. c #BCEBEF",
" X c #ABF5EF",
".X c #B7F4EE",
"XX c #A7E5F0",
"oX c #A9EDF0",
"OX c #B4EDF0",
"+X c #A2F3F1",
"@X c #ADF4F2",
"#X c #A4F9F3",
"$X c #ACFBF4",
"%X c #B3F4F3",
"&X c #B4FAF3",
"*X c #BDFCF3",
"=X c #CCEFF3",
"-X c #C3FCF4",
";X c #D4F7F5",
":X c #DCF4F3",
">X c #E8FAF7",
",X c #F3FAF7",
"<X c #FEFEFC",
/* pixels */
"- - - - : - : Z E / _ N ! r 0 e 0 0 Z Z e e e Z e Z Z 0 0 e e : - - - : - - @ - - @ - @ - - - - , - - - - - - , - , , - - - @ - - @ - - : , q / / ' D - ",
"- : 1 - - - @ : q X.=.n.P.M.] { { O.! e e Z E e e 0 e A.s.J.W.;.- - - - - q q q q 1 1 q : @ @ - - - @ , - , - @ - - , @ - 1 1 1 q 1 : 1 Z Z r &.*.*.} - ",
"- : 1 : - - - - - - - p #.#.#.{ { *.! e Z e e ` '.`.@X<X<X{.U.<.@ - : - - q q q M E M e e q 1 q 1 q q q q q 0 q 0 0 w 0 q Z M M E e E Z e e e 0 e q - - ",
": @ . @ @ - : - - - % - : 0 1 0 0 1 q e 0 e 0 ~ A.s.4.k k @ . - - - - - - @ @ % - : r ^ ^ W M W E W ! E E E e / v.*.-.*.*.v._ e Z e e A | | | ` : - - - ",
"- y L K _ < @ - % $ @ % @ 2 ] $.[ ! ! ! ! ! ' e , @ - @ X - - : - . @ . - - : q : . L u...j.K.N.K.n.&.e 0 e 0 e e e e E ! ! A Z Z e e W +X&X&XE.@ - % % ",
"$ J o.X.o.< $ % % - : Z 1 5 +.T +.L.L.L.L.P.+.@ - - - - - - - - K +. .| 2 @ 1 Z 0 - - - @ y o.} o.S - Y `.(.G.G.F.F.).| 0 Z q e e e e 0 Z 0 0 - - - - , ",
"% + + + O % % % : - : q q - @ . - H u u F H - @ - % % % % , % % G T L ` > - - - - - - - - - @ @ @ @ @ g q.q.<X<X<X<XG.} e W W Z e q ' n.-.+.< @ - - : 0 ",
"% % % % % , - , - - - @ - - - - - . @ @ @ @ - : - - , , , % % % + + + + % , + O + + % % @ % % % % - - - X X 6 f d p 0 0 r *.+.n.B.M.L.K.+.8 1 - - - : - ",
": - - - - - - - - , - - , - - : , - - , - : : - - 0 e 0 0 - % % % % % % % + C T P T V $ % % $ % - , @ - - - - @ @ - - , - ; o L i.+.+.> @ @ - - - - - , ",
"- - - - - - - - - - - - : - - - : 0 0 , - - - - - - @ - - - - - @ - % $ % + C R P X.V O % - , 0 0 0 e q - - - - - - - , - - - - @ @ @ @ - - - - - - - , ",
"0 0 - @ - : - - - - 0 e e q - - - q 1 : - - - - - 2 9 - - @ - - - - - - - - @ . + @ @ , - : : 1 1 1 1 : - - , , - , % % - % - - - - : 1 : : : , - 0 e e ",
"^ %.' ' r e ' ' ' ] / e : - - - - - @ . @ @ - - @ L m.n.' [ %.N , : - - - - : - : - : - - - - - % % $ $ % % , - - - , % , - - - - - q e q e q , , - : e ",
"N w.&.=.e e @.#.&.=.' - - - - - - @ K +.X. .2 @ - @ :  .}  .h.^ e 0 : 1 0 q - - - - - - @ , - - - - % - % , % % % % - - - - : - - - - , - , - - - - - , ",
"@ @ - v  X+X!.[.c - - - - - - , - - u } ` Y 2 - - : - @ @ @ X <.-X*X*X&X_.1 - - - e q 0 0 : - - - @ @ - - , - - : - - - - - - - : - - - : - - - - - - , ",
"- : X 6 ,.,.;.,.5 - - - - , : - - : - . @ . - : - - @ - @ - @ a |.<X<XT.h - - - - : | a.g.d.i e F 9 l 8 : 1 : - q M e E e q - - - - @ . @ . - - - : - - ",
"- - - - X * - - - - - : - - - - - - - : - - - - - 1 0 1 q q - - - @ @ @ - - - - - X 9.{.[.'.r e @.#.h.] 0 e 0 e e e 0 e 1 - : - - - D X.` } 5 - - - - 1 ",
"- : , , , % , % % @ - - - - - - - - - - - , - - - 1 e q q q : - - - - - - - , - - , @ @ X m +X_.'.} 0 ! h.&.&.&.*. .@ @ @ % , @ - - l |  . .5 - - - : - ",
"@ $ $ $ % % $ % , - : - - e q e q , : , , - - - - @ @ - - % - - - - @ - - , : , , : 1 , - j 6.4.6.f - > u.K.N.K.| 9 - - , $ $ % % , %   % X.X.u.K @ - - ",
"1 , 1 , % % % + @ X - - - 1 , q E e 0 e E 0 - 1 : 1 - @ - - @ @ - : : : 1 e e e E e 0 : - - @ - X @ - @ @ > - 2 - @ - - : , , % $ $ % % # V 7 V < % % % ",
"Z 1 q Z : % 2 ..] X.y X - - - - - ~ c.' e e e M Z E 1 : 1 1 q 1 e e e e e e M M e 1 - - - - - - - - - - - @ - - - - : - , q Z 1 % % % % % $ $ + $ % % % ",
"$ + @ @ - - 2 L L y.v 4 6 - , - @ 8 U z.f.*.*.Z e A W W E M e ' h.*.*.c.c.{ e q @ - - - - - : - - 0 e q e q % % % % % , : @ @ - - , , - % $ % q q , $ % ",
"- - - - @ - - X @ T.oX$X^.- - - - @ @ > 9 C F e / j.*.f.~ e e W F ' M.B.M.! 0 @ , , % % % % - - - : 1 , , , % O + . - - , 1 : - @ - - - , - - 0 q , - - ",
"- @ - 1 1 q M e E ! i i 5 - - - - - - - - @ @ - q A M e e 0 0 0 0 0 e e 1 - - - : - - , % % % $ $ % % $ % $ % T ` } l @ - e Q q : q - @ - - - - - - - - ",
"q 1 q M e e e M q : @ @ - - - - - - - - - - - - @ : W.`._._._._.'.+Xp.@ - - - , - - - - - % % 0 q , $ % % % 8 o.} +.H - - - 1 Z E E 0 1 1 q , , , - , - ",
"W E E q { N.h.f.5 @ - - : : : , 1 - - - - - : : , @ 3.>.|.<X<X<X<Xq.k @ - : - - - - - - - - - : q - - - - : - @ @ @ - - - , @ - *.N.@.N ^ E e q Z q q e ",
"n.K.B.K.M.k...7 - - - - - e q Z e q - - - - 0 E q - @ @ - 5 > > > @ @ - - - : - - - - @ , : - - - - : - : - - - - @ @ , - - - @ y m.u.&.$.E e E Z E E e ",
"/ +.X.o.8 + @ @ - : - - - - , - - - - - - - , % - - - - - @ - @ @ - - - - , - @ , q q 1 1 ^ &.&.=.y @ - - - - : - q e : - - - - @ @ @ 2 (.Q.N 0 q e 0 e ",
"- @ @ @ - : - : - - - - - - - - - - : : , , % % - - - - - - : e e q 1 q 1 1 q q 0 M E %.*.n.L.L L 8 - - - - - - % : q : - : : : : - - > 7.=X;X X&X&X&X+X",
"@ - - - - - q e 1 - : X . @ + - , $ 1 e Z 1 q - - - 1 q : - , 1 q W / ) W W ! W / ! q ~ _ 8 2 @ . - - - - : - - , $ + % % , q Z Z q 1 - X @ ;.>X,X,X:X<.",
"- - - , - : : : - - % D ` L P 7 $ % % % % , : - - - 0 e : - - - - 2 +.| N.L.K.N.i.H - @ @ @ @ - - : - - @ . @ X @ , - , $ % % % , , , , : - X - - @ - @ ",
"- : - : - % % % - $ $ G R X.X.< + % % % , - - - @ @ - - - - - - - - . @ l L L L - @ - - - - - - - - - 0 ~ u. .| i : @ - @ - $ $ % % % % @ @ % - - - - - ",
"@ % 0 e q Z 1 $ % | u.R J O O $ % % , - - - - 8 b f @ . @ - - @ @ @ - : - . @ @ - - - : : : 1 : - , , 0 ^ { %.=.) N A e Z 1 : , % % % % % % % % @ , % @ ",
"% % , , , , - % % < V 7 < % % % % , - @ - - - c {.,XD.6.z : - y J ' $.! q - - - - - - 0 e q e q - - - - - X q  ...f.` e e q e 1 - % % @ : : % % % + O O ",
"$ % $ % % $ % @ % % % + $ , @ 1 e q q q - - - - @ 6.[.#Xw.0 e N *.&.w.u @ - - - - - : - , , - - - - - - - - - - - - - - - - - - - : : : - % % @ % 9 R X.",
"$ % % % % % % $ % % % % @ , - 0 q q q q - - - - - X . : / c.*.*.M - . - , - - - - - - - - - - - - 1 e 1 - - - - - - - - - - - - , , - - - : : 2 - K X.` ",
"- - q e - , 1 1 - - - q 1 - - - @ @ @ - - , - - - : - - 8 u u u 2 - - - - - : - - 1 , : - - - @ - 1 q : - - - - - - - - - - - - @ @ - : - - } i.f.+.@ . ",
"- - : : - - e e : - 1 e q , - - - - - - - - - - - - - - - @ X - - - - - : - : - - r Q e 5 9 > q - @ @ @ - @ @ - - @ - - - - @ : 1 : e Z - - , < ; < , - ",
"- - - - - - - @ - - - - - - - @ - - - - - - - , - - > - - - - - - - - - - , - - - , q M B x p Q e : 0 q q 1 q q q q 1 1 q 1 1 e M E e - - 1 0 1 q - @ - ",
"- : - - - - - - - - - - @ 3 j j j 6 - - - q e e e r t e > , , - - > q e < ; - : - ; o > ; n u.r.n.b.n.*.N ! E E e M ! ! ^ ! ! *.n.c.9 @ - : q E E Z q q ",
"Z e e , - - - - - - - : - I @X+X%XZ.e M e 0 e M i y 3 3 3 ; 4 ; ; 3 > > 3 3 3 - 3 3 3 & ; = 4 z s.k.M.a.r.&.Z e e M *.*.*.*...n.c.6 , - - - - q Z E E E ",
"e e e ! &.%.&.&.#.*./ Z E E e e e 0 e 0 M #.&.{ ; & & & ; 3 = # o o o 3 3 3 3 ; = - 3 3 3 ; o o o * > 0 0 0 0 e e e e M e 0 e e : @ - - - - - - - e e e ",
"e e q ! +.#.[ W ^ / E 0 e 0 ~ f.&.=.*.f.M.P.+.f - = - = - @ d e.u.t.z . . % ; 3 ; - ; 3 ; > ; 3 ; X 4 ]. X}..X.X%XQ.M 0 { f.*.*.; - - - - : - - . K M.#.",
"B.B.B.b.{ e r w.| p p _ } } ! ~ ` M.M.N.w.> @ @ , : , - - $ > C C C 9 9 C D 2 - @ % - + $ $ % % - : > ;.].<X,X<XI.h : - y u u 9 - - - , - - - - - 5 J n.",
"i.+.i.] q q Y {.[.<X<X<X<XS.q - - - - - - @ - - - - - 1 , $ $ + $ O V x.o.x.G + 1 q 1 1 1 1 , % - - - X - - - - @ - - - @ @ X - : : : : : : : - - - @ - ",
"X X X @ - - - . - 9.q.R.6.@ @ - - - - - - - - - - - - - - , - @ % % % + $ + + % 1 Z 1 q q Z : - - - : - - - - - - , - - - - - : : - , , , % , - - - - - ",
": - : - - - - - - . . X X : - - - - - , % % 0 e e : @ @ @ - - - , @ $ % % % % @ $ O @ @ % % : 1 1 : : - - - - : , 1 1 : - - - - - - , % % % $ % , , - 1 ",
"% - , % , % - : - : : : : - - , - , % % % - - 1 : - H H 9 - - - - - : : @ - - - , , - - - - : - : - : - - - : e q e e 1 - - : : : - : : , % % , 1 Z q e ",
"% % - - , , , - - % - % - - % % + % % % : - - - @ - T n.P.=.#.&.&.O./ 0 1 - - - - @ - - - - - - - - - - - - , - - - - - - - - : : - - - - , - % % % $ % ",
"% % - : , : , % % % % % % % % % % % , : : , - - - : . : K K ` #.{ *.' e E q - @ q q e q - - - - - - - - - - - - - - - - - - - - - - - - - @ - - - X @ - ",
"% % $ % $ $ % + O O O % % % % 1 e q e q Z 1 - - - , - - . @ @ - - ` f.M.M.V.#.w ' ^ 0 - - - 1 : : 1 - - - - - - @ @ @ @ - - - - - - - @ - : - - - - 1 - ",
"- - % , - @ $ 2 P P P V + - % % - : : - - - - - - - - - : - - - - @ u g.f.+.M.L.i.K @ - - 1 e q e q : - - : q S } K w - , : : q ~ F.F.G.d.0 M [ #.#.r - ",
"- : - - - - + 9 +.X.o.V % - 1 e q 1 - - - , - : - : - , , - , - - - @ @ @ . 8 X.- @ : - - , - - - - - - - - 1 y | K.N.*.h.[ e e E /.(._.C.~ P.K.} } > @ ",
"- : : - 6.}.[.{.s . . - - - : 0 q : - - - - - 1 1 1 : 1 : - - - - : 1 - - - - . - - - - - - - - - - , : - : - @ X 8 l z ` { } ] ] e 0 0 - y z 8 + . - - ",
"- , - % 9 k v v 5 - : - - @ @ % @ @ - @ - @ - - : - - - - - - , - q e 1 - - - - - - - - - @ - @ - : - @ - - % $ - - @ X . f }.[..X0.- - - @ - X : : : - ",
"% $ $ % % % @ - - - - , q q 0 1 q 1 1 1 1 0 1 - - - - - - - @ @ - , - - , - - , - % : q q q 1 q - @ - - % $ 1 q : @ - : : - - , - - - - - - : : - - - % ",
"1 q q , - : - - , - - , 1 q Z E E E W E W M M e 0 1 1 q q q q q 1 q q q q q q q q q Z e e e ' b.*.+.< - - % 1 A % $ % % - $ - - - - - , @ @ % % % % $ , ",
", : 0 - - - : 1 : - - - @ % @ - @ u g.*.n.~ e e W / / / / / / / / W M M M E M E Z E E ! / / L f u u : - - : @ $ % % % $ % % % % % , % , # % , % % % % % ",
"- - - - : - - , , , - 1 0 q q 0 - , > w e e e 0 / f.O.*.&.{ { ] { 0 0 e e E M M E Z 1 } u.+.} @ @ @ - - - - - : 1 : - - % % % % % $ $ - , 1 - : % % , % ",
"- - - - - - - - - - - 1 Z q q q : - - + 8 -.&.{ e 0 e e 0 [ &.%.%.#.&.*.w 1 1 q q : @ @ @ @ @ - - - : - - : - - : : 1 : - @ % , , % % @ % , % @ - - : - ",
"- , , : , , : - - : - - % @ - @ - - - - 5 J k.N.+.-.A q e ~ ..K.N.L.g.J < @ @ - - @ - - - - - - : - , - - - - , - - - - - : - - q e e e q - : : : - - - ",
"0 Z e Z e E 0 - - - : - - - - - - - - : @ @ - 2 8 8 < , : , - < > 2 - @ - - - - - : q q 1 1 1 : @ - @ % - @ , @ @ - - - - - - - : 1 , 1 : : , @ @ @ - - ",
"e e Z Z e q : , : - - - - - - - - , - - - - - - - @ - - - - - @ @ @ - - - , : - - 1 q q M M e e 1 q 1 q 1 1 1 q q : - @ - @ @ - @ - % - @ @ : 1 S | O.#.",
"*.*.W 0 - @ - - - @ @ @ - - - @ % - , 1 - - - : - , - : , - : - - - - 1 1 - - , - - - - 1 r N e M e E E E E E e E W w e e w w e q q 0 q q q E E ^ &.] *.",
"/ ~ 1 - - - - : v ,.;.,.2 - w _ ~ ~ A 0 , - - - - - - e e : - - - , - : : : - - - - - - . 4.-X-X} ~ e 0 e E e e e &.h.=.*.=.*.h.&.Z E E E E q e 0 0 0 e ",
": @ - - - - - 1 D.{.#X).e 0 M =.=.r.u - : - - : - - - - : - - - - , - - - - - - - - - - - > s ].:X<X(.G.+.e e e q e q e e A r r M e e e e ! O.{ O.! e e ",
"- - - - - - - - @ @ 0 a.'.'.+XB : X - - - - - - - - - - - - - - - , - : : , - - - - @ - - - - . g R.R.!.1.1 &.&.%.O.%.&.{ e e e e e e e e W %.( { / M : ",
"- - - , - - : - : - - ,.0.9.0.6 - - - - - - - , - - - - - } u.r...: . % @ @ - 2 8 2 8 2 - - - , - . X . @ - f u.L.N.K.f._ e p } p r r r r p ~ K W 1 : - ",
"- : : - , - - - - - - @ - X X - - - - - - - : 1 1 1 1 : - 8 8 8 5 6 8.6.7.:.+ P i.+.u.o.% % % % % - - : - - . - < > > - - @ 3.%X<X<X<X<X<X;X~..X8.@ @ , ",
": : 1 - - - % % $ % - , , % , : - : , : - : - , - , , , - % + + + & XXXXXX0.+ % % % % % % $ % $ % % , - - - - - - - @ - - - @ - T.XX!.!.oX3.. - @ , - - ",
"- - - - : - - , , % % $ % % % % @ % % % % - % % % % % % % % % % % % $ O + $ % % % % % % % - - - - : - - - : - - - - - - - - - - @ . X @ @ @ - - - - - - ",
"- - @ - - - - - 0 Z 1 % % $ % , , , , % % % 1 : : 1 - % % % % % % % % @ % % @ % % , - - - - . @ @ - - 1 q Z q e 1 - : - - - - - - - - - - - - - e Z - - ",
"@ : 1 q : - - - , : : - @ % : Z 1 q Z 1 $ % % % % % % % % % % - % , - - - : : - - - - - - y } L ` 2 @ , : , : : - - - - - : - - - - - @ - - : - : : - : ",
"1 e M M : - - - - - - - - : - @ @ @ % @ - @ % - , % , % - - : - - - - - @ - - - - : - - - u +.X.o.5 @ - - - - - - - , : - - 1 w 0 0 q q 0 1 - - - - - @ ",
"$X$X.XZ.@ - - - @ - - - - - - : - - - @ @ - @ @ X - - : - - - - - X.u.+. .- - - , - - - - - . . k }.oXOX2.@ - - : - - - , , : 0 : F b.=.=.M : 0 q 0 q 1 ",
"t.n k g - - : 1 1 : - - - - - , - - y L K K K K K H - - - - - @ - y i S y - : . + . O + - - - @ 9 b b b 6 - : % % % @ $ $ % % $ @ , y ! } H.l.H...M / %.",
"w @ @ - , - : q q E Z 1 0 @ @ @ @ - K u.X.X. .| +.+., . @ - 1 : : e E q 1 - - 8.!.U.Y.I.$ % % % @ . + % - , @ , q q q 1 1 % - - - - - . g ~.!.].5.1 ` +."
};
