/* XPM */
static char *water[] = {
/* columns rows colors chars-per-pixel */
"50 50 149 2 ",
"   c #00B6CF",
".  c #00BBCF",
"X  c #0ABCCD",
"o  c #00AED3",
"O  c #00B5D6",
"+  c #00BDD3",
"@  c #0ABDD1",
"#  c #00B5D9",
"$  c #01BBD9",
"%  c #12BED2",
"&  c #0BC0CD",
"*  c #17C2CE",
"=  c #00C4D5",
"-  c #0BC4D4",
";  c #01CAD6",
":  c #0AC9D6",
">  c #01C4D9",
",  c #0BC5DA",
"<  c #01CCD9",
"1  c #0BCAD9",
"2  c #13C3D2",
"3  c #1CC3D5",
"4  c #14C9D6",
"5  c #13C7DB",
"6  c #13CDDB",
"7  c #1DCBDB",
"8  c #00D4D6",
"9  c #01D3DB",
"0  c #0CD5DC",
"q  c #01DBDC",
"w  c #0CDCDD",
"e  c #17D2D7",
"r  c #16D3DB",
"t  c #1DD3DE",
"y  c #12D9DF",
"u  c #1BDCDE",
"i  c #20C1D6",
"p  c #21CBD5",
"a  c #22CDDC",
"s  c #2ECDDA",
"d  c #3CC5D9",
"f  c #34CADB",
"g  c #3AC9DA",
"h  c #22D3DE",
"j  c #29D4DD",
"k  c #26DDDB",
"l  c #2FDBDD",
"z  c #38D0DC",
"x  c #32DADF",
"c  c #01E1DF",
"v  c #1CCEE2",
"b  c #01DFE0",
"n  c #0DDEE0",
"m  c #1CDEE2",
"M  c #20CEE2",
"N  c #24D7E1",
"B  c #2AD2E1",
"V  c #23DAE2",
"C  c #2CDEE5",
"Z  c #38D5E1",
"A  c #32DCE4",
"S  c #32DEE8",
"D  c #02E2E0",
"F  c #0BE3E1",
"G  c #01E8E2",
"H  c #13E4E2",
"J  c #1BE4E3",
"K  c #14EAE4",
"L  c #1CEAE5",
"P  c #1BEDE8",
"I  c #1EF0E6",
"U  c #20E1E2",
"Y  c #2BE3E4",
"T  c #24EBE6",
"R  c #2BEAE6",
"E  c #26EEE8",
"W  c #2DEDE9",
"Q  c #32E3E5",
"!  c #39E2E7",
"~  c #34E4E9",
"^  c #3BE5E9",
"/  c #34EAE8",
"(  c #3DEBEA",
")  c #20F0E7",
"_  c #2BF0E7",
"`  c #2BF1E9",
"'  c #33F3EB",
"]  c #3BF3ED",
"[  c #3CF9EE",
"{  c #3DF7F0",
"}  c #46C9DB",
"|  c #5ECFDD",
" . c #4ADAE0",
".. c #54D2E0",
"X. c #5CD6E1",
"o. c #65D6E2",
"O. c #65D8E3",
"+. c #68DAE3",
"@. c #79DAE4",
"#. c #43E7E6",
"$. c #47EEE6",
"%. c #4EE9E7",
"&. c #44ECED",
"*. c #48EFED",
"=. c #5CE5E7",
"-. c #55EFE5",
";. c #5BEEE7",
":. c #52E8E9",
">. c #42F3ED",
",. c #49F0EC",
"<. c #53F6ED",
"1. c #51FCEF",
"2. c #44E9F0",
"3. c #45F6F1",
"4. c #4AF6F0",
"5. c #44FDF1",
"6. c #4DFEF3",
"7. c #53FDF3",
"8. c #5BFFF5",
"9. c #5BFFF8",
"0. c #64E7E8",
"q. c #75E2E7",
"w. c #63FFF6",
"e. c #63FFFA",
"r. c #6CFFFC",
"t. c #87DCE6",
"y. c #8DE0E8",
"u. c #83EEED",
"i. c #89EEEE",
"p. c #9EEBEA",
"a. c #9AF2EF",
"s. c #95F2F1",
"d. c #9BF5F2",
"f. c #A2EBEE",
"g. c #AFE9EF",
"h. c #B4EFE8",
"j. c #BCEBEF",
"k. c #ADF3EF",
"l. c #B7F4EE",
"z. c #BDECF0",
"x. c #A3F3F2",
"c. c #AFF4F2",
"v. c #A4F9F3",
"b. c #B2F3F3",
"n. c #B5FAF4",
"m. c #BDFCF4",
"M. c #C1FAF4",
"N. c #EBFCF7",
"B. c #FDFDFA",
/* pixels */
"= = = = = t Q C A 1 = = ; = + +   .  .M.l.m.n.s.< = = ; q 9 8 9 ; = = + = . = = = = = = ; = = = ; = ",
"= = = = = =   + + = = = = = + = = + i z.B.B.y.d = = = = = ! <.,.:.w q m t h 6 ; ; ; > 9 c q b q < = ",
"= = = = = = = = = = > = ; 9 9 9 8 = = = + = = + = = = = . +.g.f.d.w q ) ` 3.R 8 q q q q q 9 q < = = ",
"; = = = = = = = = = = = < q 9 9 9 = = = = = = = = = = = = =   .  .v.s.a.Q 8 c 3.' ' ' ] / + + $ = > ",
"9 b q 9 > ; > ; = + = = + + = + + = = = = = = = > ; > > ; < ; = s o.X.O.h = - *.w.8.w.^ 7 = = = # # ",
"> ; q c c 9 9 D 9 ; ; ; < = + = + = + = ; ; ; < b q b D q 9 > = = + . + = = + + - = - = + = = ; > < ",
"= = = + H >.E q q q b D q 9 1 9 9 9 ; q q q q q q D D 9 ; = = = = = = = = + > = + = = = = ; > = 9 b ",
"= > = + 5 A 7.>.] ] b q n F c c D q T >.] { ] 4.` q 9 + = = ; = = ; = = 8 q 9 q 9 > + $ + $ > = + $ ",
"- = = ; =   1 t 7 m q L 4.] >.J q q c J T 7.9.7.H < = = = $ $ $ $ = = = ; ; > > > # o O   = = = < ; ",
"= = = = = = = + + + ; 0 F q q q 8 q 0 8 9 q q < = = = = = = > $ $ $ $ # # $ # $ # , A Y ~ h + = q G ",
"= = = = > = = = = = = + = u.s.a.a.a.a.a.x.=.+ + = = = ; = = = ; $ $ 9 9 > # $ # $ 1 / Q ^ B = = = < ",
"; ; ; ; ; = = > = ; ; = = ..| j.B.B.B.B.@.g = = = = = = ; = = = = + < 9 > = = > = = . +   = ; = = + ",
"9 q 9 q 9 = = = = 9 q 9 = + . = 5 - - 1 + + = = = = = = = = + = ; = = + = ; = ; = ; = ; = $ = = = = ",
"> > = = = = = > = + $ > = = = = = = + + = + = = = = = = < 9 ; < K / ' [ r + = = = = = = 9 q ; = = = ",
"= = ; = = ; ; > > $ $ = ; = = = = ; q q q 9 9 9 9 < 9 9 c c ' [ 7.w.Y A 1 = > ; = ; = $ < < ; = ; ; ",
"+ O = + # < q 9 9 9 > > = < < = = = ; 0 F P P H F F F P H 9 J m 6 1 +   = ; = = = = > = O O $ $ > q ",
"C S , # $ $ $ $ = ; = = = 8 q ; = = = + 1 ( ^ 8.w.8.8.$.N + = + + + = ; > = = + + + + + = = = $ $ $ ",
"S S , $ $ $ $ = = = = = = = = = = = = > =     h Q C C = + = = = = = = = = ; 9 m #.~ ^ 0 ; = = + + $ ",
"o o # $ $ > = = = = 1 z p +   = = = = + + = = = + + O = = = ; ; ; ; ; = = = 9 L W ` ] I H w q q < ; ",
"$ $ $ $ + = = = = = l g.N.t.o.j ; = 6 N T E H 8 = = = = = = 9 q 9 q 9 = = = = = . q / ( >.R 9 9 q q ",
"> $ 9 q 9 9 9 = = = = = O.f.v.#.9 q J ] ' &.r + = ; > = = = = = = = = ; = = = = = = = = = = = = = > ",
"= = < 0 9 9 9 > = = = = +   ; L >.] ] c =   = = = = = = = = = = = = = = < q ; = = = = = = = = = = = ",
"= = = + = + = ; = = = = = > = 6 t t t : = = = ; = = = ; ; ; > = = + + = < 9 ; = ; = = = = = = = = = ",
"= = = = = = = = = = ; = = = = = + + + = = = = = = ; = = q G b 4 p 1 < = + + + + = + = + + = = = = + ",
"= = = + = = = = = + = > = - = = > ; = = ; = = > > ; = = ; 9 q U k u G q ; < 8 8 < 9 9 9 9 9 < 9 9 ; ",
"2 f f f 7 = = = 9 q 9 b 0 6 q 1 = = = = : 9 q - , = = = - % : - x >.>.1.5.6.' H H c c c c H H H H H ",
"Z c.x.b.0.q q q q q c w e 4 - 2 2 3 - - 2 - 1 2 2 * = 2 2 2 2 @ 2 3 s ;.<.1.-.$.' b q q w ] ] ] ] ( ",
"D q q q 8 q 9 q _ ' R 2 % * 2 - 2 * & X . X 2 2 2 2 - 2 = 2 2 2 - X @ X : : 8 8 8 9 q q q q q q q q ",
"q L ] ' [ >.[ 1.r.^ a = 2 - 2 = = p %.#.%.B   . + - 2 , = - 2 - - - - - . 3 p.k.h.l.n.b.i.q q W ] ] ",
"Q H U Y 7.7.8.( - + + = = > > $ + $ v v v 5 v v v 1 + $ + + # $ $ $ $ > = - } f.B.N.B.t.d ; ; 6 t t ",
"q.8 =   = = = = + = = = = ; < = # # O # o v 2.^ 2.M # < < > < < < $ + = ; = . = = = = + + = = = + + ",
"+ + = = = = = = ; = = = = = = = > > + $ $ # O # O # $ > b b < 9 q < = = = = = = = = + = = = = = = = ",
"= ; = ; = = = $ $ 0 q q ; + + + = = = = + + + $ $ $ $ $ # $ + + = ; ; ; < ; = = = ; ; < ; < > = = ; ",
"= = = = $ $ $ $ = ; ; ; = V B 6 = = = = = = = . = ; = = = = = ; = = = ; > ; = = = ; q 9 b 9 < = = = ",
"> $ $ $ $ $ $ = = = = = = A 4.r.[ ' ` ' ' P 8 < + = = = = = = = = = = = = = = = = = = = = = = = > = ",
"$ $ $ $ $ > ; > ; = = = = + = V N Y ` R ] L q c 9 = + 8 9 q 9 = = = = = = = = = = = = ; = = = = = > ",
"$ # < q 9 q q b < = = = = = =   + + = = Y >.9.6.8.' 9 T K 9 = = = < < < < = = = = = + + + + = = = = ",
"$ $ $ = ; = ; = = = ; = = = = ; = = = = @ t >.&.( 7.e.*.V + = = < q 0 q 0 ; = = = < y C V r = = > < ",
"= 8 9 0 < = = = = = ; = = = = > = ; = = = + + +   6 ~ = + ; > ; = = = > = = = = = 9 u ^ w.8.' >.E q ",
"= < 9 8 ; = = = ; = ; ; ; < < ; > = > = ; ; = = = +   = = = = = = = = = = = ; ; = = = . 1 N V Y R Y ",
"+ + + + + = = = = + = = = = = ; = > = = 9 q ; = = > = = = = + + + = + = ; = = = = + # = + + +   s h.",
"9 9 < 9 < < < 1 < 9 = = = = + = = + = = + > > = = = = > + ; 9 8 < < 9 = + = $ $ $ < b 1 + > ; = = = ",
"9 b G D c c c c c c 9 0 < 9 9 9 9 9 9 9 9 9 9 9 9 9 9 9 9 b c c q T 5.] ^ : = = $ < 9 $ # $ = + $ > ",
"$ + > = k ,.[ 4.J q c c L L L J L J L L D D D D D D b D D D H J L Y a h u = = = > + # # $ $ # $ $ $ ",
"9 < < = = - 0 q q q 8 J >.' ] ] W W W / q 9 q q D D b G b < ~ &.( Q + + = = = ; = = = ; ; > > $ # $ ",
"9 9 9 ; = = O 6 ] ] E q 9 q q 9 T ' E E ` ' ] 0 ; 9 < 9 < + = + + = = = = > = = = = ; ; ; ; < > = = ",
"+ = = = = = = 5 N <.8.&.>.c q q J ( w.8.w.,.a , + = + = = + > + = = = = = = = = ; = = = = = = = ; = ",
"= = = = = = = = + = 1 6 7 > ; = + = : : 1 = + = = = > = ; 9 < ; ; ; ; + + + = = + = = + = ; = = > = ",
"= = = = = = = = ; = + = = = = = = = = = + = = = = = = = < 9 9 G D q q 9 < < 9 < < < 9 9 ; + + + = + ",
"= = = + + > ; = > > = = = = = > = = = = = ; < ; = = ; = > = > ; w H q q q G D D D D D D b n 0 9 0 9 "
};
