/* XPM */
static char *water[] = {
/* columns rows colors chars-per-pixel */
"76 76 28 1 ",
"  c #0356FB",
". c #025CFD",
"X c #0165FE",
"o c #026CFE",
"O c #0274FE",
"+ c #027CFE",
"@ c #0284FE",
"# c #018CFE",
"$ c #0194FD",
"% c #019CFE",
"& c #01A4FE",
"* c #01ACFE",
"= c #01B4FE",
"- c #01BBFE",
"; c #01C4FE",
": c #01CCFE",
"> c #16CDFC",
", c #18C8FD",
"< c #01D4FE",
"1 c #01DBFE",
"2 c #16D4FD",
"3 c #15DBFD",
"4 c #01E3FE",
"5 c #01EBFE",
"6 c #14E3FD",
"7 c #15EAFD",
"8 c #01F2FE",
"9 c #15F2FF",
/* pixels */
"677767777797666333327733333333333333263>22>676322766332223222>>>>>>>33>2363>",
"5885555888854441441458111444114441111441<<:585411584411114111<:<:<1<<144444:",
"5885411885<<141<414851<<11111<184<<<<414:::4881<<4411411481<<:::<<<<<44411<<",
"45444141441<<1<<111114555444<<184:<:<1481<<455<::4541<<555<:<:;;<44;;444;<44",
"41445111111111<1111:<4555411<<<441:::<15111444:;;1541<:155<;:;:<145;;141;<44",
"<<4851<41<145441145:<<<1441<1<<;15:;::<11<<455:-;1541:;-:8<;;;<8444<:<1<1<<4",
"<4555551411144411454<<:144<::14::14<:41<<111<<11111<1<--;<:<::<<41<:<<<11114",
"1555488111<1444114441<<14411<45:;<51<51<<11:;;454<::41;;;:<<<:::11::<<<:::<1",
"5554<5811<<154555411441<1585544:::54151;111::;141<:<144<<1<:::;:41;;;1;*==;4",
"5541455:<<<4554554<11<<14454444<<<85141:<<<<<:14574144<::<1<;;;;;;;-;54<-;<<",
"44<<541:<<<4544441<<1<:14444111<<<41<41;;:<<<:<144411<::<<<<;:::-=-;:484;:<<",
"4<:<81<<:::<1<11<1111<::<5441<1<:<:;:4<--;1<::1<;;;;;:11:--:4414-*=;:<<:<<<:",
"41:<4<<:<<11<<1<<<1<<:111<45441441;;:4<=-;41<<1<;;;;-;<11<;:4114<::::<<:::<<",
"51<:<<<<1111<11<<<<<:<454;<581<455:;:4<;;:44441:;;;;;:<111;;11454141::<<<:<1",
"511<<<151:-:1111:;;;<5444:;:41;;15:;;441441414<;;;;-:1<41-;-*188;;<<<4114;-<",
"411<<45551111<1<1:--<441:<<:<:;;15::::151<<141:;;-;:::;<<-=;:;;<--;;;><1;---",
"141<<48585444<<<4:;-<41:;<41;;;;<1:<:-<5:;;141;-;-;1;=-::--:5-*=--=-==:4=--*",
"4444414884-14<145<;;14;:::11;;::;-<:;;;::::<11;--=:8;*=:<<<11<:;-----*<88:==",
"454451<<1:-:<;14<:;;<1<<::<4<::<;*----;:::<111::;<151<<<:<<<<::;;-**=<<;<-*=",
"414441<==-;;:;<1;;:;<14<::<44<::;---:;::::<111<<<444455<:::::;;;;;**=8;&*==*",
";;44:::--;111;:;;-;<<<1411<<<<<*;41314:-:;=<11<::<<111454<111:---;:::;=*=--=",
";-;<41<<::<44;;;<11<<:111::<<<::<41114111::11<<<::::<14<<1:;;:<::::::;;-----",
":;=;844411<11;-:585:;:411-;<<::1411<1445111111<::;--<44::1-**:111<::;:;;;--;",
":--;1::<114<;;-;585;<4111<<1<:;:::1:--:11<-<41;=*;:=14::::-=*<111<<<;:;---=*",
":;-;11<:<441<;;:11<:<111<<:;<::---1:==;11<::::==-=;1<::::<-=--:;<1<;-;---;;%",
"1;;:441;14555:::-=-<<:1<:<-*:<:=&=1:==:1<11;===;<&=8=*:::1:-;=**;11=&---=<<&",
"1-:1<:;;<1584;;;-=-::<<:;:-*:::*&*:<<<<11<<111<:<-*****<1-;;;:-&<14=&;;;*;41",
":<<<<;--;:11<<<<:::1<<<:;;--11<-=-<1141:<<1154;---=%%*-:;-=-::;=-;;==::;&-;-",
"-81<<;-;--;;;1115555<:<;;-:<654<:<45441;::<144*%&--*%-4;=--;;:;-*&&-:;;;**%#",
"<<41;---<1;:<:<14541-*=**51::15;<4454-=;;--=:8*&---=:<;;;<::;;--*=111=14**&#",
"<151=---:<::<::<<1<:-*&=:<;;::::14:::---;=**-<=*---:::;-:11<;-=-&=741;;;%&*=",
"145<=-;:;;<::<:--:;=-=&<8=*=:-*<41*&=1<---====;--=;1-=;;:4<:;-==&=4<:1*@%%=4",
"11441-**:14:;-<4141*==:;-=---;::::*&*141-*&&&%-::::<::::<5;=-=**<<&>11=##-44",
"1<114=*&:1>:;;<5451;-;<-**-;-;:;:;;-;41-=*%%&=;:<<<<<<<<:;===;;-<:%=;;*%$;1<",
"11<11-**<<%=::1441451:<-**-;;;:;;:4445-#-=%$=8;;<::<<<:1-@*==<54-*-*%%*-=--=",
"11411;-=1<%=;-;<1111-*=---==*;<<=*454:*$=-=:14::14:&%=<<::<:&<54;**$%<<<----",
"44411;--11=---;:<<:1:=*=;;=*&;11:=><:-**--*241-;44-##*<:<55:%;::=*-=-41:----",
"14<<<;--14:;--:1<::151*=--=&&;1141*%*=;::=$;<:&=4:=$$*<:<14:%%%%$*:114;=----",
"111<11<1::;;;:1<-;:444<;;::;;*&451*&*%=<-*&:1:-**--**=;;;;:-%&*>;:1111;-----",
"::<::155<:::<<<:--:<11;:;---:=%:<:=*&$=1;=&-;:-=&;;===-==--=&%*;;::<1<;=---;",
"--=-;<5444441<;=:;;;<:$*:%$%;:;*&&:=$#=1<;&&&=*-1<:*==-&&;;-%&&%&*&:1;--=;:<",
";-<11;==14-<11=%::;&-:;*%%%%=;;&%**=;;---=&%*;=*&**&%*:*&***$%%$*=*<54;==-::",
"--155-%&:2=;<<-&-;=#*::=&%%%=--=*&%-11;***&%=--=*%%&&-<*$$*=*&&&*&&->;---;::",
"--<54-&*===;<:1:*&*$=:;<<%$%===<-&%-1<-*=*&&&*:<<*%%;<:%@#-<:=**%$$#++%-;:;<",
"=*;:;*=1;==;:<1:&&*===*;:%$%=--1-%&*=*=;-*$&%%:<<*$%;<:%+@-::=*-=*%%$+=<-:;%",
"**====-1;*=-;::;**=:=%&*=%$&*-;:-%&%%$*;;-**$@=;;&$%-:;&$%-<:&&-;=$%%+-1&-;+",
"&*===<:#*=*---===;1<=%&&%&&&*-;:=%%%%%*-::<&$#@$*&%%==&;<:;::##-;*$$$#;3@=;+",
"--*=:;=&;<<:<1;*==-<:-%*--*&=*%%&=-:;*&=;:;;;-&%*%#$==%;<:;;:$#**&$$%=;:=-;=",
";;=-<-=;<44414;*===::;*=;:*%-%@@&::14-=*;::;;;-***&&-*#=--;;:$@&&&$$$<;;:;-:",
"*;13--:1116114;**--=&%<:-;&#;*@@&;;34<:;;::&@+*--141<=#$$$-::#@*&**$$:;::-*=",
"*1<<;-:14<=-;;----;&&*=::&$#%*=*--&&%$-1<:-**&=--*-5:;;%@#=::&$%%%&%%=&%%&**",
";4::<-;11;$&*&=;;-*%*=&--@#$+&:-==&%#O*51;*----=*#%:;:4=%%-;-=%##$&&&&$#@&;-",
"54<::;;4=$&*=*-;;&$%&=-%@###+&;##&<4<@*54;*--=;*$$$@=<<11:<-$&%#$$&&&&&&%-1<",
"=*=-==-1*%%==&&*&-;$%&%%%%*==*$##%15<%%*:<;&%%%%$#%=-:<*%&%*<*$%#%=&%%%%&--&",
"$@&==-;:*%%=-%%$#:4*%%&*==;<1*O#$%;<:=%@*;:%#$$%%$&:;--%##@%<*&*$$=&%&%&==%+",
"*#&-111:*$$-:##$$-54&#11<:;;<&O@#%$&--&##%-$#$*===-;<=@==#$#O=:;%+#*-==**==@",
"*@&;441:=**;-#@#*=;1<;141;::1;*%%&@%-==&&*=&%%*-=&&-*$@%%@#+o=<:%+@#$#&==%$=",
"-$=;:<:;;---*$$$-*&:<<:::;:1::;**&@%-*==-==&&&*==#$=$#$$@OO+@*-=%#OO+ $==#@:",
"<::;*&*--=$$&-=&**&%$%&#@-1<%#%&&&&*=*===*%%%&*=*#$=-;;%+OX#:#oO== O+O+#@@#*",
"1;<;&**&==*%$=**&&*$$$-&$::-###&&&%*-----=**&%*=***=:::$@%$&:@Xo=;*+oO+@+$%+",
"1;;-&*&%=--&%*&***&$$%:=&;-*%%%%%&%=;;;;:-*=*%*==;:-===$%==-;#OO*;<$O+@#@&=+",
";4&#$$%===-*&===:&@$#%1%o%*=-;-$#$::;;-;:;==*%-:;::;#oo><%=;;&$$-:;-*&**&==>",
"-4;==&&--=&=-=*=;-&$#$&**&&*;:-$@#$=:---%$%%%$&%$$%=+XO%=;--;&$%$#&$$**=*=-:",
";<11:=&==*&-;==-;:;%$$@*:%%&;;-$@OX%;&&*Oo#@#@@+oXO%@@$O$4;=-&$&Oo+O@*&%&*=-",
"<<1:;*&&%&;;;:<<1<;*=-&&&$#$;-&&#oO@$###++##@+@+OoOO-1<@#41-$&**%$++@=+ %%$O",
"1<<<:*%&=;;:;$=:;=*=&#$$%#@#;-*&$@@@@###+@$#%=*%#@$*><<&%=-=$$&*$#@$$&&#O$&%",
":<<:<=%%:1-;*o$=*%%=$OO$&##$--&%%&$####@#$&$=14;$$*4::::=@%&$$$*$$%&=&;= #=;",
"$;:11:=&%&-#+>;--*&==%O+#&->;=**=;>*$#@@*&$@*11=$o$54;%:=O;;#$&&;::-==*&&%$$",
"*-:<;:=%&&=$$-;;%$$%==+$===%=***=-*&$#@@**$=--;=$oO&**&%$O;:$&&%;1<;=-=&&$$#",
";;::-;=%==*==*-=#@@@%*@&::%+****&&$%$#@@%**1>$&%$@  +%*@O+->&&*&;::-==-=$$$%",
";;=;11;=&=:::;#+:%+$@++O@--&-;-@+@=;-##@ #4=%&=&$;=@##$$$$**&=-=;=+$==;;%$%=",
"--%%=;:-*=14:$OO-=%@OOOoO==*--*$$&--&@++#&-$%=$@@$=-=*&$$$#$&-;-&#o$*=%@++$;",
"**$++*;;==:<,oo@&--OO+OO+&**=*&*-;;&#@++;=@#$*@+@O$11:-%$$+@&==-#O+%**+ oO#:",
"*=$@@=:;<;#@@$%$+O@=&$#=-+#&==*%=:-==$&>:=$%@ *3>+ o:4-;%+O#=#+o&-==-->;+@%<",
"=*%$$%&&-=+#&=*$O O%%%$*=#*-$$$-*$=-=$$$$$####;11# o%*%==#$$*@@%=-==**;-+#%=",
"-*=*%#++%&+*:;*#++O+#%$%&*>:+o@1&o=;=&+  o@O$:::<# O  O*-****+$4;*&%%&&%+#$#"
};
