/* XPM */
static char *wool[] = {
/* columns rows colors chars-per-pixel */
"50 50 157 2 ",
"   c #120709",
".  c #100C0B",
"X  c #1C0C0E",
"o  c #09061D",
"O  c #070C1C",
"+  c #140B1A",
"@  c #3A1019",
"#  c #190F22",
"$  c #081120",
"%  c #0F142A",
"&  c #171227",
"*  c #1E1221",
"=  c #171428",
"-  c #18172C",
";  c #171D35",
":  c #1C1E31",
">  c #1D1F3D",
",  c #2E1623",
"<  c #23192B",
"1  c #221B37",
"2  c #1C2037",
"3  c #292035",
"4  c #28223E",
"5  c #3E2936",
"6  c #40171E",
"7  c #1E2040",
"8  c #192257",
"9  c #262643",
"0  c #282846",
"q  c #29264C",
"w  c #322E42",
"e  c #30214E",
"r  c #312C5D",
"t  c #2F3C65",
"y  c #2C3869",
"u  c #343F6B",
"i  c #383777",
"p  c #353D74",
"a  c #3C3B74",
"s  c #313B78",
"d  c #483F65",
"f  c #3F447B",
"g  c #50416B",
"h  c #4B4778",
"j  c #47487E",
"k  c #564679",
"l  c #393E81",
"z  c #3D4D88",
"x  c #3C51BA",
"c  c #5B4D85",
"v  c #4A5188",
"b  c #6B5288",
"n  c #445BBF",
"m  c #4255BB",
"M  c #3D53C0",
"N  c #4356C1",
"B  c #4A57C0",
"V  c #425CC4",
"C  c #4B5DC3",
"Z  c #4E5CCC",
"A  c #515FC7",
"S  c #4361C4",
"D  c #4464CB",
"F  c #4965CB",
"G  c #4669CC",
"H  c #4B68C9",
"J  c #5360C6",
"K  c #5C62C5",
"L  c #5564CB",
"P  c #5B65CC",
"I  c #536ACD",
"U  c #4769D0",
"Y  c #4E6AD4",
"T  c #486DD9",
"R  c #5665D2",
"E  c #5B66D2",
"W  c #546CD3",
"Q  c #5D6BD4",
"!  c #536ED9",
"~  c #5C6CDA",
"^  c #5572DD",
"/  c #5B73DC",
"(  c #666DCF",
")  c #6167D1",
"_  c #646BD4",
"`  c #6B6ED4",
"'  c #656DDA",
"]  c #6B6EDA",
"[  c #6B71D6",
"{  c #6371DC",
"}  c #6E71DA",
"|  c #7071D6",
" . c #7475DB",
".. c #7B77DC",
"X. c #7C79DD",
"o. c #446CE2",
"O. c #5471E1",
"+. c #5974E2",
"@. c #5577E8",
"#. c #5B77EA",
"$. c #5879EB",
"%. c #5F7BF3",
"&. c #6C73E1",
"*. c #6F7AE2",
"=. c #6A7FEA",
"-. c #7A76E5",
";. c #777BE4",
":. c #7C7AE2",
">. c #7D7CE9",
",. c #627EF4",
"<. c #8179DE",
"1. c #857EE4",
"2. c #8A7FE7",
"3. c #857FE9",
"4. c #897FE9",
"5. c #6B87E5",
"6. c #6087ED",
"7. c #6883EC",
"8. c #7285ED",
"9. c #778AEF",
"0. c #6B90E6",
"q. c #6685F3",
"w. c #6C8DF3",
"e. c #7892F9",
"r. c #7698FF",
"t. c #8682E4",
"y. c #8F86E4",
"u. c #8181E8",
"i. c #8B83E9",
"p. c #9083E4",
"a. c #9386EB",
"s. c #9589EC",
"d. c #998BEC",
"f. c #9E96E9",
"g. c #8F84F1",
"h. c #898DF6",
"j. c #978DF1",
"k. c #9B8BF3",
"l. c #9D94F6",
"z. c #9299FC",
"x. c #A08EEF",
"c. c #A393F3",
"v. c #AA95F4",
"b. c #AD99F6",
"n. c #AA95F9",
"m. c #A19AFD",
"M. c #B59BF7",
"N. c #B49CFB",
"B. c #B89BFC",
"V. c #93A1FB",
"C. c #B7A0FF",
"Z. c #BAA2FC",
"A. c #CFACFF",
"S. c #D4AEFF",
"D. c #DBB8F7",
"F. c #D7B1FF",
"G. c None",
/* pixels */
"G.G.G.G.G.G.G.G.G.G.G.G.G.G.G.G.G.G.G.G.G.G.G.G.G.G.G.G.G.G.G.G.G.G.G.G.G.G.G.G.G.G.G.G.G.G.G.G.G.G.",
"G.G.G.G.G.G.G.G.G.G.G.G.G.G.G.G.G.G.G.G.G.G.G.G.G.G.G.G.G.G.G.G.G.G.G.G.G.G.G.G.G.G.G.G.G.G.G.G.G.G.",
"G.G.G.G.G.G.G.G.G.G.G.G.G.G.G.G.G.G.G.G.G.G.G.G.G.G.G.G.G.G.G.G.G.G.G.G.G.G.G.G.G.G.G.G.G.G.G.G.G.G.",
"G.G.G.G.G.G.G.G.G.G.G.G.G.G.G.G.G.G.G.G.G.G.G.G.G.G.G.G.G.G.G.G.G.G.G.G.G.G.G.G.G.G.G.G.G.G.G.G.G.G.",
"G.G.G.G.G.G.G.G.G.G.G.G.G.G.G.G.G.G.G.G.G.G.G.G.G.G.G.G.G.G.G.G.G.G.G.G.G.G.G.G.G.G.G.G.G.G.G.G.G.G.",
"G.G.G.G.G.G.G.G.G.G.G.G.G.G.G.G.G.G.G.G.G.G.G.G.G.G.G.G.G.G.G.G.G.G.G.G.G.G.G.G.G.G.G.G.G.G.G.G.G.G.",
"G.G.G.G.G.G.G.G.G.G.G.G.G.G.G.G.G.G.G.G.G.G.G.G.G.G.G.G.G.G.G.G.G.G.G.G.G.G.G.G.G.G.G.G.G.G.G.G.G.G.",
"G.G.G.G.G.G.G.G.G.G.G.G.G.G.G.G.G.G.G.G.G.G.G.G.G.G.G.G.G.G.G.G.G.G.G.G.G.G.G.G.G.G.G.G.G.G.G.G.G.G.",
"G.G.G.G.G.G.G.G.G.G.G.G.G.G.G.G.G.G.G.G.G.G.G.G.G.G.G.G.G.G.G.G.G.G.G.G.G.G.G.G.G.G.G.G.G.G.G.G.G.G.",
"G.G.G.G.G.G.G.G.G.G.G.G.G.G.G.G.G.G.G.G.G.G.G.G.G.G.G.G.G.G.G.G.G.G.G.G.G.G.G.G.G.G.G.G.G.G.G.G.G.G.",
"G.G.G.G.G.G.G.G.G.G.G.G.G.G.G.G.G.G.G.G.G.G.G.G.G.G.G.G.G.G.G.G.G.G.G.G.G.G.G.G.G.G.G.G.G.G.G.G.G.G.",
"G.G.G.G.G.G.G.G.G.G.G.G.G.G.G.G.G.G.G.G.G.G.G.G.G.G.G.G.G.G.G.G.G.G.G.G.G.G.G.G.G.G.G.G.G.G.G.G.G.G.",
"G.G.G.G.G.G.G.G.G.G.G.G.G.G.G.G.G.G.G.G.G.G.G.G.G.G.G.G.G.G.G.G.G.G.G.G.G.G.G.G.G.G.G.G.G.G.G.G.G.G.",
"G.G.G.G.G.G.G.G.G.G.G.G.G.G.G.G.G.G.G.G.G.G.G.G.G.G.G.G.G.G.G.G.G.G.G.G.G.G.G.G.G.G.G.G.G.G.G.G.G.G.",
"G.G.G.G.G.G.G.G.G.G.G.G.G.G.G.G.G.G.G.G.G.G.G.G.O + + + O G.G.G.G.G.G.G.G.G.G.G.G.G.G.G.G.G.G.G.G.G.",
"G.G.G.G.G.G.G.G.G.G.G.G.G.G.G.G.G.G.G.G.G.G.@ h Y H S I ! e 6 G.G.G.G.G.G.G.G.G.G.G.G.G.G.G.G.G.G.G.",
"G.G.G.G.G.G.G.G.G.G.G.G.G.G.G.G.G.G.G.G.: p O.G W ~ D g.&.u.{ 8 0 G.G.G.G.G.G.G.G.G.G.G.G.G.G.G.G.G.",
"G.G.G.G.G.G.G.G.G.G.G.G.G.G.G.G.G.G.G.f +.Y W W I Q F 2._ i._ s.Q r G.G.G.G.G.G.G.G.G.G.G.G.G.G.G.G.",
"G.G.G.G.G.G.G.G.G.G.G.G.G.G.G.G.G.G.p w.W Q I ..| 1._ :.' 3.E a.~ f.g G.G.G.G.G.G.G.G.G.G.G.G.G.G.G.",
"G.G.G.G.G.G.G.G.G.G.G.G.G.G.G.G.G.9 #.V F ..;.}  .X.( :._ 3.) 4.I l.~ o G.G.G.G.G.G.G.G.G.G.G.G.G.G.",
"G.G.G.G.G.G.G.G.G.G.G.G.G.G.G.G.G.v ^ L W  ...} } X.( :._ 4.) d.Q } &.g G.G.G.G.G.G.G.G.G.G.G.G.G.G.",
"G.G.G.G.G.G.G.G.G.G.G.G.G.G.G.G.4 r.H [ i...X... .<.` 2.} u._ ` B x b.c.* G.G.G.G.G.G.G.G.G.G.G.G.G.",
"G.G.G.G.G.G.G.G.G.G.G.G.G.G.G.G.i / n C ( A L A J P C P A k.) x ] C.i.E k G.G.G.G.G.G.G.G.G.G.G.G.G.",
"G.G.G.G.G.G.G.G.G.G.G.G.G.G.G.q ,.S Q ..} |  .|  .[ ' | m P ] b.s.] E N.D.3 G.G.G.G.G.G.G.G.G.G.G.G.",
"G.G.G.G.G.G.G.G.G.G.G.G.G.G.G.7 ^ H I .... . ...[ k.S.a.' { N.t.R ) N.1._ = G.G.G.G.G.G.G.G.G.G.G.G.",
"G.G.G.G.G.G.G.G.G.G.G.G.G.G.G.2 ! Q  .[ [ | _ E (  .] P c.d.' R v.S.>.Q ` & G.G.G.G.G.G.G.G.G.G.G.G.",
"G.G.G.G.G.G.G.G.G.G.G.G.G.G.G.q q.) <.|  .` d.F.d.P _ M.p.E ) N.1.P Q Z.D.1 G.G.G.G.G.G.G.G.G.G.G.G.",
"G.G.G.G.G.G.G.G.G.G.G.G.G.G.G.G.l Y ~ ..`  .| Q Q v.k.E Q v.S.;._ ` N.;.c G.G.G.G.G.G.G.G.G.G.G.G.G.",
"G.G.G.G.G.G.G.G.G.G.G.G.G.G.G.G.1 @.L i.S.s._  .b.p.R } b.1.Z Q M.S.} ;.* G.G.G.G.G.G.G.G.G.G.G.G.G.",
"G.G.G.G.G.G.G.G.G.G.G.G.G.G.G.G.G.p ^ I K E n.d.C _ n.S. ._ X.B.| C >.b G.G.G.G.G.G.G.G.G.G.G.G.G.G.",
"G.G.G.G.G.G.G.G.G.G.G.G.G.G.G.G.G.0 q.V Q B.i.P X.b.1.N _ M.A.{ ( p.z.2 G.G.G.G.G.G.G.G.G.G.G.G.G.G.",
"G.G.G.G.G.G.G.G.G.G.G.G.G.G.G.G.G.G.p 6.8.K _ v.S...Q 1.N.<.B -.h.V.f G.G.G.G.G.G.G.G.G.G.G.G.G.G.G.",
"G.G.G.G.G.G.G.G.G.G.G.G.G.G.G.G.G.G.G.d o.o.7.;.B ] B.m.Q F U 9.w.y G.G.G.G.G.G.G.G.G.G.G.G.G.G.G.G.",
"G.G.G.G.G.G.G.G.G.G.G.G.G.G.G.G.G.G.G.G.; z $.M ! 9.*.V F 7.e.p ; G.G.G.G.G.G.G.G.G.G.G.G.G.G.G.G.G.",
"G.G.G.G.G.G.G.G.G.G.G.G., G.G.G.G.G.5 G.G.G., v 0.F V O.5.t $ G.G.G.G.G.G.G.G.G.G.G.G.G.G.G.G.G.G.G.",
"G.G.G.G.G.G.G.G.G.G.G.G.G.G.. X   G.G.G.G.G.G.G.% # * < - G.G.G.G.G.G.G.G.G.G.G.G.G.G.G.G.G.G.G.G.G.",
"G.G.G.G.G.G.G.G.G.G.G.G.G.G.G.G.G.G.G.G.G.G.G.G.G.G.G.G.G.G.G.G.G.G.G.G.G.G.G.G.G.G.G.G.G.G.G.G.G.G.",
"G.G.G.G.G.G.G.G.G.G.G.G.G.G.G.G.G.G.G.G.G.G.G.G.G.G.G.G.G.G.G.G.G.G.G.G.G.G.G.G.G.G.G.G.G.G.G.G.G.G.",
"G.G.G.G.G.G.G.G.G.G.G.G.G.G.G.G.G.G.G.G.G.G.G.G.G.G.G.G.G.G.G.G.G.G.G.G.G.G.G.G.G.G.G.G.G.G.G.G.G.G.",
"G.G.G.G.G.G.G.G.G.G.G.G.G.G.G.G.G.G.G.G.G.G.G.G.G.G.G.G.G.G.G.G.G.G.G.G.G.G.G.G.G.G.G.G.G.G.G.G.G.G.",
"G.G.G.G.G.G.G.G.G.G.G.G.G.G.G.G.G.G.G.G.G.G.G.G.G.G.G.G.G.G.G.G.G.G.G.G.G.G.G.G.G.G.G.G.G.G.G.G.G.G.",
"G.G.G.G.G.G.G.G.G.G.G.G.G.G.G.G.G.G.G.G.G.G.G.G.G.G.G.G.G.G.G.G.G.G.G.G.G.G.G.G.G.G.G.G.G.G.G.G.G.G.",
"G.G.G.G.G.G.G.G.G.G.G.G.G.G.G.G.G.G.G.G.G.G.G.G.G.G.G.G.G.G.G.G.G.G.G.G.G.G.G.G.G.G.G.G.G.G.G.G.G.G.",
"G.G.G.G.G.G.G.G.G.G.G.G.G.G.G.G.G.G.G.G.G.G.G.G.G.G.G.G.G.G.G.G.G.G.G.G.G.G.G.G.G.G.G.G.G.G.G.G.G.G.",
"G.G.G.G.G.G.G.G.G.G.G.G.G.G.G.G.G.G.G.G.G.G.G.G.G.G.G.G.G.G.G.G.G.G.G.G.G.G.G.G.G.G.G.G.G.G.G.G.G.G.",
"G.G.G.G.G.G.G.G.G.G.G.G.G.G.G.G.G.G.G.G.G.G.G.G.G.G.G.G.G.G.G.G.G.G.G.G.G.G.G.G.G.G.G.G.G.G.G.G.G.G.",
"G.G.G.G.G.G.G.G.G.G.G.G.G.G.G.G.G.G.G.G.G.G.G.G.G.G.G.G.G.G.G.G.G.G.G.G.G.G.G.G.G.G.G.G.G.G.G.G.G.G.",
"G.G.G.G.G.G.G.G.G.G.G.G.G.G.G.G.G.G.G.G.G.G.G.G.G.G.G.G.G.G.G.G.G.G.G.G.G.G.G.G.G.G.G.G.G.G.G.G.G.G.",
"G.G.G.G.G.G.G.G.G.G.G.G.G.G.G.G.G.G.G.G.G.G.G.G.G.G.G.G.G.G.G.G.G.G.G.G.G.G.G.G.G.G.G.G.G.G.G.G.G.G.",
"G.G.G.G.G.G.G.G.G.G.G.G.G.G.G.G.G.G.G.G.G.G.G.G.G.G.G.G.G.G.G.G.G.G.G.G.G.G.G.G.G.G.G.G.G.G.G.G.G.G."
};
